<svg width="60" height="60" viewBox="0 0 60 60" fill="none" xmlns="http://www.w3.org/2000/svg">
<rect width="60" height="60" rx="30" fill="#1BA098"/>
<path d="M35.2109 16H22.7891C17.9428 16 14 19.9428 14 24.7891V37.2109C14 42.0572 17.9428 46 22.7891 46H35.2109C40.0572 46 44 42.0572 44 37.2109V24.7891C44 19.9428 40.0572 16 35.2109 16ZM42.8281 37.2109C42.8281 41.4111 39.4111 44.8281 35.2109 44.8281H22.7891C18.5889 44.8281 15.1719 41.4111 15.1719 37.2109V24.7891C15.1719 20.5889 18.5889 17.1719 22.7891 17.1719H35.2109C39.4111 17.1719 42.8281 20.5889 42.8281 24.7891V37.2109Z" fill="white"/>
<path d="M35.2109 18.5781H22.7891C19.3643 18.5781 16.5781 21.3643 16.5781 24.7891V37.2109C16.5781 40.6357 19.3643 43.4219 22.7891 43.4219H26.3633C26.6869 43.4219 26.9492 43.1596 26.9492 42.8359C26.9492 42.5123 26.6869 42.25 26.3633 42.25H22.7891C20.0105 42.25 17.75 39.9895 17.75 37.2109V24.7891C17.75 22.0105 20.0105 19.75 22.7891 19.75H35.2109C37.9895 19.75 40.25 22.0105 40.25 24.7891V37.2109C40.25 39.9895 37.9895 42.25 35.2109 42.25H31.6758C31.3522 42.25 31.0899 42.5123 31.0899 42.8359C31.0899 43.1596 31.3522 43.4219 31.6758 43.4219H35.2109C38.6357 43.4219 41.4219 40.6357 41.4219 37.2109V24.7891C41.4219 21.3643 38.6357 18.5781 35.2109 18.5781Z" fill="white"/>
<path d="M29.4143 42.4217C29.3053 42.3127 29.1541 42.25 29 42.25C28.8459 42.25 28.6947 42.3127 28.5857 42.4217C28.4768 42.5307 28.4141 42.6818 28.4141 42.8359C28.4141 42.99 28.4768 43.1412 28.5857 43.2502C28.6947 43.3592 28.8459 43.4219 29 43.4219C29.1541 43.4219 29.3053 43.3592 29.4143 43.2502C29.5232 43.1412 29.5859 42.99 29.5859 42.8359C29.5859 42.6818 29.5232 42.5307 29.4143 42.4217Z" fill="white"/>
<path d="M24.3026 25.1238C24.0813 24.8877 23.7106 24.8756 23.4744 25.0968L23.4485 25.1212C23.2131 25.3433 23.2023 25.7141 23.4244 25.9495C23.5397 26.0717 23.695 26.1333 23.8507 26.1333C23.995 26.1333 24.1395 26.0803 24.2527 25.9735L24.2756 25.952C24.5118 25.7308 24.5239 25.3599 24.3026 25.1238Z" fill="white"/>
<path d="M29 22.9141C27.713 22.9141 26.4322 23.2241 25.2959 23.8106C25.0084 23.959 24.8956 24.3125 25.044 24.6C25.1925 24.8876 25.5459 25.0003 25.8334 24.8519C26.8181 24.3436 27.8835 24.0859 29 24.0859C32.8124 24.0859 35.9141 27.1876 35.9141 31C35.9141 34.8124 32.8124 37.9141 29 37.9141C25.1876 37.9141 22.0859 34.8124 22.0859 31C22.0859 29.8036 22.3962 28.6248 22.9832 27.5911C23.143 27.3098 23.0444 26.9521 22.763 26.7923C22.4816 26.6325 22.124 26.731 21.9641 27.0125C21.2772 28.2222 20.9141 29.6011 20.9141 31C20.9141 35.4586 24.5414 39.0859 29 39.0859C33.4586 39.0859 37.0859 35.4586 37.0859 31C37.0859 26.5414 33.4586 22.9141 29 22.9141Z" fill="white"/>
<path d="M29 25.7266C26.0922 25.7266 23.7266 28.0922 23.7266 31C23.7266 33.9078 26.0922 36.2734 29 36.2734C31.9078 36.2734 34.2734 33.9078 34.2734 31C34.2734 28.0922 31.9078 25.7266 29 25.7266ZM29 35.1016C26.7384 35.1016 24.8984 33.2616 24.8984 31C24.8984 28.7384 26.7384 26.8984 29 26.8984C31.2616 26.8984 33.1016 28.7384 33.1016 31C33.1016 33.2616 31.2616 35.1016 29 35.1016Z" fill="white"/>
<path d="M36.6904 21.083C35.4627 21.083 34.4639 22.0819 34.4639 23.3096C34.4639 24.5373 35.4627 25.5361 36.6904 25.5361C37.9181 25.5361 38.917 24.5373 38.917 23.3096C38.917 22.0819 37.9181 21.083 36.6904 21.083ZM36.6904 24.3643C36.1089 24.3643 35.6357 23.8911 35.6357 23.3096C35.6357 22.728 36.1089 22.2549 36.6904 22.2549C37.272 22.2549 37.7451 22.728 37.7451 23.3096C37.7451 23.8911 37.272 24.3643 36.6904 24.3643Z" fill="white"/>
</svg>
