<svg width="240" height="40" viewBox="0 0 240 40" fill="none" xmlns="http://www.w3.org/2000/svg">
<rect width="40" height="40" rx="20" fill="#DEB992"/>
<path d="M19.8875 30H21.75V12H19.8875L16.5 14.025V16.0875L19.8875 14.05V30Z" fill="white"/>
<path d="M113.25 29.9875L113.263 27.6625L121.1 20.6375C121.733 20.0792 122.163 19.5458 122.388 19.0375C122.621 18.5292 122.738 18.0208 122.738 17.5125C122.738 16.8708 122.596 16.2958 122.313 15.7875C122.029 15.2708 121.638 14.8625 121.138 14.5625C120.638 14.2625 120.063 14.1125 119.413 14.1125C118.746 14.1125 118.15 14.2708 117.625 14.5875C117.108 14.8958 116.704 15.3083 116.413 15.825C116.121 16.3417 115.979 16.9 115.988 17.5H113.313C113.313 16.3333 113.575 15.3125 114.1 14.4375C114.633 13.5542 115.363 12.8667 116.288 12.375C117.213 11.875 118.271 11.625 119.463 11.625C120.596 11.625 121.613 11.8833 122.513 12.4C123.413 12.9083 124.121 13.6083 124.638 14.5C125.163 15.3917 125.425 16.4083 125.425 17.55C125.425 18.375 125.317 19.075 125.1 19.65C124.883 20.225 124.558 20.7583 124.125 21.25C123.692 21.7417 123.15 22.275 122.5 22.85L116.45 28.25L116.163 27.5H125.425V29.9875H113.25Z" fill="#3D9496"/>
<rect x="100.5" y="0.5" width="39" height="39" rx="19.5" stroke="#3D9496"/>
<rect x="200.5" y="0.5" width="39" height="39" rx="19.5" stroke="#3D9496"/>
<rect x="40" y="20" width="60" height="1" fill="#3D9496"/>
<rect x="140" y="20" width="60" height="1" fill="#3D9496"/>
</svg>
