<svg width="60" height="60" viewBox="0 0 60 60" fill="none" xmlns="http://www.w3.org/2000/svg">
<rect width="60" height="60" rx="30" fill="#1BA098"/>
<g clip-path="url(#clip0)">
<path d="M36.0435 20.3621H38.979V15.0028H33.6444C33.1994 14.9843 27.7746 14.8806 26.3686 20.2424C26.3482 20.2985 25.8989 21.5737 25.8989 24.5524L21.021 24.5672V30.1882L25.9051 30.1741V45.0003H33.3654V30.187H38.3032V24.5512H33.3654V22.7779C33.3654 21.6755 33.8302 20.3621 36.0435 20.3621ZM37.0687 25.785V28.952H32.131V43.7653H27.1395V28.9359L22.2554 28.9501V25.798L27.1525 25.7838L27.1395 25.1561C27.0753 22.0008 27.5253 20.6738 27.5456 20.6102C28.7591 15.9922 33.3926 16.2243 33.5913 16.2366L37.7446 16.2378V19.1283H36.0435C33.1593 19.1283 32.1316 21.0133 32.1316 22.7773V25.785H37.0687Z" fill="white"/>
</g>
<defs>
<clipPath id="clip0">
<rect width="30" height="30" fill="white" transform="translate(15 15)"/>
</clipPath>
</defs>
</svg>
