<svg width="60" height="60" viewBox="0 0 60 60" fill="none" xmlns="http://www.w3.org/2000/svg">
<rect width="60" height="60" rx="30" fill="#1BA098"/>
<g clip-path="url(#clip0)">
<path d="M36.5745 23.1435L24.2364 30.7425C23.5382 31.1735 23.2078 32.0248 23.4328 32.8122L24.7668 37.4997C24.8808 37.8994 25.2365 38.165 25.6457 38.165C25.6685 38.165 25.6915 38.1642 25.7146 38.1625C26.152 38.1307 26.4982 37.8049 26.5564 37.3706L26.9033 34.8003C26.95 34.4545 27.1167 34.1328 27.3721 33.8951L37.5536 24.4308C37.8613 24.1455 37.902 23.6783 37.6484 23.3441C37.3945 23.0097 36.9331 22.9232 36.5745 23.1435ZM26.558 33.02C26.1005 33.4458 25.8024 34.0213 25.7187 34.6404L25.5505 35.8871L24.5821 32.4845C24.5035 32.2088 24.6194 31.9108 24.8637 31.76L33.9022 26.1931L26.558 33.02Z" fill="white"/>
<path d="M43.5119 18.1902C43.1264 17.8635 42.5945 17.7735 42.1234 17.9555L14.8836 28.4638C14.3441 28.6719 13.9973 29.1798 14 29.7579C14.0028 30.3364 14.3548 30.8416 14.8974 31.0449L21.2601 33.4196L23.7421 41.4016C23.8784 41.8404 24.2224 42.1813 24.6622 42.3136C25.1018 42.4458 25.5765 42.3513 25.9313 42.0611L29.631 39.0451C29.8086 38.9002 30.0623 38.8931 30.2478 39.0278L36.9207 43.8724C37.1607 44.0469 37.444 44.1367 37.7306 44.1367C37.8985 44.1367 38.0675 44.1059 38.2296 44.0432C38.6683 43.8736 38.9873 43.4976 39.0828 43.0376L43.9712 19.5234C44.0738 19.0282 43.8979 18.5174 43.5119 18.1902ZM42.801 19.2805L37.9126 42.7946C37.8949 42.8796 37.8337 42.9149 37.7988 42.9285C37.7636 42.942 37.6942 42.9571 37.6232 42.9054L30.9501 38.0606C30.6518 37.844 30.3011 37.7365 29.951 37.7365C29.5691 37.7365 29.1877 37.8645 28.876 38.1185L25.1755 41.1352C25.1097 41.1891 25.0413 41.1795 25.0065 41.169C24.9715 41.1585 24.9089 41.1286 24.8835 41.0468L22.3145 32.7847C22.2596 32.6082 22.126 32.4669 21.9528 32.4023L15.3161 29.9253C15.2168 29.8881 15.1956 29.8106 15.1953 29.7521C15.195 29.6941 15.2154 29.6169 15.3139 29.5789L42.5537 19.0707C42.5538 19.0706 42.554 19.0705 42.5542 19.0705C42.6426 19.0363 42.7081 19.0756 42.7393 19.1019C42.7705 19.1286 42.8203 19.1872 42.801 19.2805Z" fill="white"/>
<path d="M39.0478 30.774C38.7252 30.7039 38.407 30.9087 38.337 31.2313L38.2461 31.6496C38.1761 31.9722 38.3809 32.2904 38.7034 32.3604C38.7461 32.3697 38.7887 32.3741 38.8308 32.3741C39.1059 32.3741 39.3535 32.183 39.4143 31.9032L39.5051 31.4849C39.5751 31.1623 39.3703 30.8441 39.0478 30.774Z" fill="white"/>
<path d="M38.4502 33.5264C38.1272 33.4564 37.8093 33.6611 37.7393 33.9837L36.3648 40.3148C36.2948 40.6374 36.4995 40.9556 36.822 41.0256C36.8648 41.0349 36.9074 41.0393 36.9494 41.0393C37.2245 41.0393 37.472 40.8482 37.5329 40.5684L38.9074 34.2372C38.9774 33.9147 38.7727 33.5964 38.4502 33.5264Z" fill="white"/>
</g>
<defs>
<clipPath id="clip0">
<rect width="30" height="30" fill="white" transform="translate(14 16)"/>
</clipPath>
</defs>
</svg>
