<svg width="50" height="50" viewBox="0 0 50 50" fill="none" xmlns="http://www.w3.org/2000/svg">
<g clip-path="url(#clip0)">
<path d="M26.0417 49.9993H3.125C1.40208 49.9993 0 48.5973 0 46.8743V44.791C0 43.0681 1.40208 41.666 3.125 41.666H26.0417C27.7646 41.666 29.1667 43.0681 29.1667 44.791V46.8743C29.1667 48.5973 27.7646 49.9993 26.0417 49.9993ZM3.125 43.7493C2.55 43.7493 2.08333 44.2181 2.08333 44.791V46.8743C2.08333 47.4473 2.55 47.916 3.125 47.916H26.0417C26.6167 47.916 27.0833 47.4473 27.0833 46.8743V44.791C27.0833 44.2181 26.6167 43.7493 26.0417 43.7493H3.125Z" fill="#1BA098"/>
<path d="M22.277 26.308C21.7916 26.308 21.327 26.1663 20.9437 25.783L13.6312 18.4705C12.352 17.1913 13.7583 14.9788 14.2187 14.2538C15.0833 12.8955 16.4291 11.2747 18.0124 9.69132C19.5978 8.10382 21.2208 6.75382 22.5791 5.88924C23.3083 5.42465 25.5228 4.0184 26.802 5.29757L34.1145 12.6101C35.3958 13.8913 33.9854 16.108 33.5229 16.8351C32.6562 18.1955 31.3062 19.8184 29.7187 21.4038C28.1354 22.9872 26.5145 24.333 25.1583 25.1955C24.652 25.5205 23.4124 26.308 22.277 26.308ZM25.3312 6.77049C24.9666 6.78507 22.6812 7.97049 19.4937 11.1559C16.3062 14.3434 15.1187 16.6309 15.1937 17.1476L22.4187 24.3101C22.7853 24.2955 25.0708 23.1101 28.2604 19.9226C31.327 16.8538 32.5395 14.6226 32.5604 13.9976L25.3312 6.77049Z" fill="#1BA098"/>
<path d="M18.7564 31.0816C17.9606 31.0816 17.1627 30.7774 16.5564 30.1712L9.24391 22.8587C8.65641 22.2732 8.3335 21.492 8.3335 20.6607C8.3335 19.8295 8.65641 19.0482 9.246 18.4607L10.7085 16.9982C11.921 15.7857 13.8939 15.7857 15.1064 16.9982L22.4189 24.3107C23.6314 25.5232 23.6314 27.4962 22.4189 28.7087L20.9564 30.1712C20.3481 30.7774 19.5522 31.0816 18.7564 31.0816ZM12.9064 18.1712C12.6439 18.1712 12.3814 18.2732 12.1793 18.4732L10.7189 19.9337C10.5231 20.1295 10.4168 20.3857 10.4168 20.6607C10.4168 20.9357 10.5231 21.192 10.7189 21.3878L18.0314 28.7003C18.4335 29.1003 19.0835 29.0982 19.4835 28.7003L20.946 27.2378C21.346 26.8378 21.346 26.1857 20.946 25.7857L13.6335 18.4732C13.4314 18.2732 13.1689 18.1712 12.9064 18.1712Z" fill="#1BA098"/>
<path d="M34.8438 14.9916C34.0479 14.9916 33.25 14.6874 32.6437 14.0812L25.3313 6.76869C24.1188 5.55619 24.1188 3.58535 25.3313 2.37285L26.7937 0.910352C28.0062 -0.302148 29.9792 -0.302148 31.1917 0.910352L38.5042 8.22285C39.7167 9.43535 39.7167 11.4083 38.5042 12.6208L37.0417 14.0833C36.4354 14.6895 35.6396 14.9916 34.8438 14.9916ZM28.9937 2.08535C28.7312 2.08535 28.4687 2.18535 28.2667 2.38535L26.8042 3.84785C26.4042 4.24785 26.4042 4.89785 26.8042 5.29785L34.1167 12.6104C34.5167 13.0083 35.1687 13.0083 35.5687 12.6104L37.0312 11.1499C37.4312 10.7499 37.4312 10.0979 37.0312 9.69785L29.7188 2.38535C29.5187 2.18535 29.2562 2.08535 28.9937 2.08535ZM37.7667 11.8854H37.7875H37.7667Z" fill="#1BA098"/>
<path d="M46.0355 41.673C44.7792 41.673 43.4272 40.9542 41.9897 39.5167C40.5522 38.0792 32.1001 28.7772 26.8542 22.5917C26.4813 22.1542 26.5355 21.4959 26.9751 21.1251C27.4126 20.7522 28.0709 20.8042 28.4438 21.2459C33.9147 27.6959 42.2209 36.8022 43.4626 38.0438C45.8084 40.3938 46.723 39.4792 47.2688 38.9376C47.5188 38.6876 47.8626 38.3459 47.9105 37.8563C47.9813 37.1459 47.4501 36.2042 46.3772 35.1292C45.1459 33.8959 36.0542 25.6022 29.5792 20.1063C29.1397 19.7334 29.0855 19.0772 29.4584 18.6397C29.8334 18.1959 30.4897 18.148 30.9272 18.5188C37.1376 23.7876 46.4292 32.2292 47.8542 33.6563C49.4063 35.2084 50.1251 36.6917 49.9876 38.0626C49.8647 39.2897 49.1084 40.0459 48.7459 40.4084C47.9001 41.2522 46.9959 41.673 46.0355 41.673Z" fill="#1BA098"/>
</g>
<defs>
<clipPath id="clip0">
<rect width="50" height="50" fill="white"/>
</clipPath>
</defs>
</svg>
