<svg width="50" height="50" viewBox="0 0 50 50" fill="none" xmlns="http://www.w3.org/2000/svg">
<g clip-path="url(#clip0)">
<path d="M18.7502 8.33333C16.4522 8.33333 14.5835 6.46458 14.5835 4.16667C14.5835 1.86875 16.4522 0 18.7502 0C21.0481 0 22.9168 1.86875 22.9168 4.16667C22.9168 6.46458 21.0481 8.33333 18.7502 8.33333ZM18.7502 2.08333C17.6022 2.08333 16.6668 3.01875 16.6668 4.16667C16.6668 5.31458 17.6022 6.25 18.7502 6.25C19.8981 6.25 20.8335 5.31458 20.8335 4.16667C20.8335 3.01875 19.8981 2.08333 18.7502 2.08333Z" fill="white"/>
<path d="M13.1042 23.5208C12.8375 23.5208 12.5708 23.4187 12.3667 23.2167L3.42917 14.2792C3.23542 14.0833 3.125 13.8187 3.125 13.5417V7.29167C3.125 6.71667 3.59167 6.25 4.16667 6.25C4.74167 6.25 5.20833 6.71667 5.20833 7.29167V13.1104L13.8417 21.7437C14.2479 22.15 14.2479 22.8104 13.8417 23.2167C13.6375 23.4187 13.3708 23.5208 13.1042 23.5208Z" fill="white"/>
<path d="M4.16667 8.33333C1.86875 8.33333 0 6.46458 0 4.16667C0 1.86875 1.86875 0 4.16667 0C6.46458 0 8.33333 1.86875 8.33333 4.16667C8.33333 6.46458 6.46458 8.33333 4.16667 8.33333ZM4.16667 2.08333C3.01875 2.08333 2.08333 3.01875 2.08333 4.16667C2.08333 5.31458 3.01875 6.25 4.16667 6.25C5.31458 6.25 6.25 5.31458 6.25 4.16667C6.25 3.01875 5.31458 2.08333 4.16667 2.08333Z" fill="white"/>
<path d="M18.7502 20.8333C18.1752 20.8333 17.7085 20.3667 17.7085 19.7917V7.29167C17.7085 6.71667 18.1752 6.25 18.7502 6.25C19.3252 6.25 19.7918 6.71667 19.7918 7.29167V19.7917C19.7918 20.3667 19.3252 20.8333 18.7502 20.8333Z" fill="white"/>
<path d="M25.3752 22.5417C25.1085 22.5417 24.8419 22.4396 24.6377 22.2375C24.2314 21.8312 24.2314 21.1708 24.6377 20.7646L32.2919 13.1104V7.29167C32.2919 6.71667 32.7585 6.25 33.3335 6.25C33.9085 6.25 34.3752 6.71667 34.3752 7.29167V13.5417C34.3752 13.8187 34.2648 14.0833 34.071 14.2792L26.1127 22.2375C25.9085 22.4396 25.6419 22.5417 25.3752 22.5417Z" fill="white"/>
<path d="M33.3332 8.33333C31.0353 8.33333 29.1665 6.46458 29.1665 4.16667C29.1665 1.86875 31.0353 0 33.3332 0C35.6311 0 37.4998 1.86875 37.4998 4.16667C37.4998 6.46458 35.6311 8.33333 33.3332 8.33333ZM33.3332 2.08333C32.1853 2.08333 31.2498 3.01875 31.2498 4.16667C31.2498 5.31458 32.1853 6.25 33.3332 6.25C34.4811 6.25 35.4165 5.31458 35.4165 4.16667C35.4165 3.01875 34.4811 2.08333 33.3332 2.08333Z" fill="white"/>
<path d="M37.2998 49.3725C35.2707 49.3725 32.9207 48.7308 30.2207 47.4495C27.2061 46.0204 25.754 46.0766 24.7957 46.1162C24.0207 46.1516 23.2165 46.1787 22.4207 45.3829C22.1415 45.1037 20.8728 43.5829 23.3665 41.0891C24.6103 39.8454 26.3165 39.487 27.7978 39.4662L19.1603 30.8287C17.979 29.6475 17.9811 27.7225 19.1665 26.537C20.3498 25.3537 22.2748 25.3495 23.4582 26.5329L27.0478 30.1225C27.1894 29.8391 27.379 29.5745 27.6144 29.3391C28.4394 28.5141 29.6228 28.2641 30.6603 28.585C30.8061 28.1725 31.0457 27.785 31.3748 27.4537C32.504 26.3225 34.3103 26.2683 35.5019 27.2954C35.6457 27.0058 35.8394 26.7391 36.0728 26.5058C37.2582 25.3225 39.1811 25.3183 40.3644 26.5016L45.9894 32.1266C49.5165 35.6537 49.129 40.76 45.0457 44.8558C45.0436 44.8579 45.0415 44.86 45.0394 44.862C45.0311 44.8704 45.0207 44.8808 45.0123 44.8912L42.6769 47.2266C41.2248 48.6558 39.4415 49.3725 37.2998 49.3725ZM25.3603 44.0183C26.4978 44.0183 28.2457 44.2058 31.1144 45.5662C37.3332 48.5162 39.854 47.0808 41.2123 45.7433L43.5582 43.3975C43.5644 43.3912 43.5707 43.385 43.5748 43.3808C46.0561 40.8745 47.7686 36.8475 44.5353 33.6141L38.8936 27.9725C38.5228 27.6037 37.9228 27.6058 37.5478 27.9766C37.1748 28.3495 37.1728 28.9516 37.5415 29.3225L38.9478 30.7287C39.1519 30.9329 39.2519 31.1995 39.2519 31.4662C39.2519 31.7329 39.1498 31.9995 38.9478 32.2037C38.5415 32.61 37.8811 32.61 37.4748 32.2037L34.1936 28.9225C33.8228 28.5558 33.2228 28.5579 32.8498 28.9287C32.4769 29.3016 32.4748 29.9037 32.8436 30.2745L35.1873 32.6183C35.3915 32.8225 35.4915 33.0891 35.4915 33.3558C35.4915 33.6225 35.3894 33.8891 35.1873 34.0933C34.7811 34.4995 34.1207 34.4995 33.7144 34.0933L30.4332 30.812C30.0623 30.4433 29.4623 30.4475 29.0894 30.8183C28.7165 31.1912 28.7144 31.7933 29.0832 32.1641L31.4269 34.5079C31.6311 34.712 31.7311 34.9787 31.7311 35.2454C31.7311 35.512 31.629 35.7787 31.4269 35.9829C31.0207 36.3891 30.3603 36.3891 29.954 35.9829L21.9853 28.0141C21.6165 27.6454 21.0144 27.6475 20.6394 28.0183C20.2665 28.3912 20.2644 28.9933 20.6332 29.3641L31.4144 40.1454C31.7519 40.4829 31.8165 41.0037 31.5728 41.412C31.329 41.8204 30.8353 42.0141 30.3832 41.8808C30.3436 41.8704 26.6103 40.7995 24.8373 42.5704C24.0311 43.3766 23.9123 43.8725 23.9332 43.985C24.0228 44.0475 24.0394 44.0683 24.7123 44.0433C24.9061 44.0266 25.1207 44.0183 25.3603 44.0183Z" fill="white"/>
<path d="M14.1457 33.75C13.904 33.75 13.6498 33.6667 13.4623 33.5125C11.5269 31.925 10.4165 29.5812 10.4165 27.0833C10.4165 22.4875 14.154 18.75 18.7498 18.75C19.9832 18.75 21.1498 19.0083 22.2207 19.5188C22.7394 19.7667 22.9603 20.3875 22.7123 20.9083C22.4644 21.4271 21.8478 21.6479 21.3228 21.4C20.5353 21.0229 19.6707 20.8333 18.7498 20.8333C15.304 20.8333 12.4998 23.6375 12.4998 27.0833C12.4998 28.9333 13.3144 30.6729 14.7373 31.8625C15.0019 32.0521 15.1769 32.3604 15.1769 32.7083C15.1769 33.2854 14.7207 33.75 14.1457 33.75Z" fill="white"/>
</g>
<defs>
<clipPath id="clip0">
<rect width="50" height="50" fill="white"/>
</clipPath>
</defs>
</svg>
