<svg width="50" height="50" viewBox="0 0 50 50" fill="none" xmlns="http://www.w3.org/2000/svg">
<path d="M48.9582 23.958C49.5415 23.958 49.9998 24.4163 49.9998 24.9997C49.9998 25.583 49.5415 26.0413 48.9582 26.0413H47.9165V23.958H48.9582Z" fill="#1BA098"/>
<path d="M26.0415 23.958H47.9165V26.0413H26.0415V23.958Z" fill="#1BA098"/>
<path d="M44.7917 50H25C25.5833 50 26.0417 49.5417 26.0417 48.9583V47.9167H44.7917C46.5208 47.9167 47.9167 46.5208 47.9167 44.7917V26.0417H48.9583C49.5417 26.0417 50 25.5833 50 25V44.7917C50 47.6667 47.6667 50 44.7917 50Z" fill="#1BA098"/>
<path d="M50 5.20833V25C50 24.4167 49.5417 23.9583 48.9583 23.9583H47.9167V5.20833C47.9167 3.47917 46.5208 2.08333 44.7917 2.08333H26.0417V1.04167C26.0417 0.458333 25.5833 0 25 0H44.7917C47.6667 0 50 2.33333 50 5.20833Z" fill="#1BA098"/>
<path d="M41.6665 12.5C42.2498 12.5 42.7082 12.9583 42.7082 13.5417C42.7082 14.125 42.2498 14.5833 41.6665 14.5833H33.3332C32.7498 14.5833 32.2915 14.125 32.2915 13.5417C32.2915 12.9583 32.7498 12.5 33.3332 12.5H41.6665Z" fill="#1BA098"/>
<path d="M41.6665 33.333C42.2498 33.333 42.7082 33.7913 42.7082 34.3747C42.7082 34.958 42.2498 35.4163 41.6665 35.4163H33.3332C32.7498 35.4163 32.2915 34.958 32.2915 34.3747C32.2915 33.7913 32.7498 33.333 33.3332 33.333H41.6665Z" fill="#1BA098"/>
<path d="M41.6665 39.583C42.2498 39.583 42.7082 40.0413 42.7082 40.6247C42.7082 41.208 42.2498 41.6663 41.6665 41.6663H33.3332C32.7498 41.6663 32.2915 41.208 32.2915 40.6247C32.2915 40.0413 32.7498 39.583 33.3332 39.583H41.6665Z" fill="#1BA098"/>
<path d="M26.0418 47.917V48.9587C26.0418 49.542 25.5835 50.0003 25.0002 50.0003C24.4168 50.0003 23.9585 49.542 23.9585 48.9587V47.917H26.0418Z" fill="#1BA098"/>
<path d="M23.9585 26.042H26.0418V47.917H23.9585V26.042Z" fill="#1BA098"/>
<path d="M23.9585 23.958H26.0418V26.0413H23.9585V23.958Z" fill="#1BA098"/>
<path d="M23.9585 2.08301H26.0418V23.958H23.9585V2.08301Z" fill="#1BA098"/>
<path d="M26.0418 1.04167V2.08333H23.9585V1.04167C23.9585 0.458333 24.4168 0 25.0002 0C25.5835 0 26.0418 0.458333 26.0418 1.04167Z" fill="#1BA098"/>
<path d="M2.0835 23.958H23.9585V26.0413H2.0835V23.958Z" fill="#1BA098"/>
<path d="M16.6665 12.5C17.2498 12.5 17.7082 12.9583 17.7082 13.5417C17.7082 14.125 17.2498 14.5833 16.6665 14.5833H13.5415V12.5H16.6665Z" fill="#1BA098"/>
<path d="M16.3542 39.8958C16.7708 40.2917 16.7708 40.9583 16.3542 41.3542C16.1667 41.5625 15.8958 41.6667 15.625 41.6667C15.3542 41.6667 15.0833 41.5625 14.8958 41.3542L12.5 38.9583L13.9583 37.5L16.3542 39.8958Z" fill="#1BA098"/>
<path d="M14.8958 33.6455C15.2917 33.2288 15.9583 33.2288 16.3542 33.6455C16.7708 34.0413 16.7708 34.708 16.3542 35.1038L13.9583 37.4997L12.5 36.0413L14.8958 33.6455Z" fill="#1BA098"/>
<path d="M11.0356 37.498L12.4941 36.0396L13.9525 37.498L12.4941 38.9565L11.0356 37.498Z" fill="#1BA098"/>
<path d="M13.5418 14.583V17.708C13.5418 18.2913 13.0835 18.7497 12.5002 18.7497C11.9168 18.7497 11.4585 18.2913 11.4585 17.708V14.583H13.5418Z" fill="#1BA098"/>
<path d="M11.4585 12.5H13.5418V14.5833H11.4585V12.5Z" fill="#1BA098"/>
<path d="M13.5418 9.37467V12.4997H11.4585V9.37467C11.4585 8.79134 11.9168 8.33301 12.5002 8.33301C13.0835 8.33301 13.5418 8.79134 13.5418 9.37467Z" fill="#1BA098"/>
<path d="M12.5002 36.0413L11.0418 37.4997L8.646 35.1038C8.22933 34.708 8.22933 34.0413 8.646 33.6455C9.04183 33.2288 9.70849 33.2288 10.1043 33.6455L12.5002 36.0413Z" fill="#1BA098"/>
<path d="M11.4582 12.5V14.5833H8.33317C7.74984 14.5833 7.2915 14.125 7.2915 13.5417C7.2915 12.9583 7.74984 12.5 8.33317 12.5H11.4582Z" fill="#1BA098"/>
<path d="M10.1043 41.3542C9.91683 41.5625 9.64599 41.6667 9.37516 41.6667C9.10433 41.6667 8.8335 41.5625 8.646 41.3542C8.22933 40.9583 8.22933 40.2917 8.646 39.8958L11.0418 37.5L12.5002 38.9583L10.1043 41.3542Z" fill="#1BA098"/>
<path d="M2.08333 23.958V26.0413H1.04167C0.458333 26.0413 0 25.583 0 24.9997C0 24.4163 0.458333 23.958 1.04167 23.958H2.08333Z" fill="#1BA098"/>
<path d="M0 5.20833C0 2.33333 2.33333 0 5.20833 0H25C24.4167 0 23.9583 0.458333 23.9583 1.04167V2.08333H5.20833C3.47917 2.08333 2.08333 3.47917 2.08333 5.20833V23.9583H1.04167C0.458333 23.9583 0 24.4167 0 25V5.20833Z" fill="#1BA098"/>
<path d="M2.08333 44.7917C2.08333 46.5208 3.47917 47.9167 5.20833 47.9167H23.9583V48.9583C23.9583 49.5417 24.4167 50 25 50H5.20833C2.33333 50 0 47.6667 0 44.7917V25C0 25.5833 0.458333 26.0417 1.04167 26.0417H2.08333V44.7917Z" fill="#1BA098"/>
</svg>
