<svg width="50" height="50" viewBox="0 0 50 50" fill="none" xmlns="http://www.w3.org/2000/svg">
<g clip-path="url(#clip0)">
<path d="M48.9583 50.0003H1.04167C0.466667 50.0003 0 49.5337 0 48.9587C0 48.3837 0.466667 47.917 1.04167 47.917H48.9583C49.5333 47.917 50 48.3837 50 48.9587C50 49.5337 49.5333 50.0003 48.9583 50.0003Z" fill="#1BA098"/>
<path d="M13.5418 50.0003H3.12516C2.55016 50.0003 2.0835 49.5337 2.0835 48.9587V37.5003C2.0835 36.3524 3.01683 35.417 4.16683 35.417H12.5002C13.6502 35.417 14.5835 36.3524 14.5835 37.5003V48.9587C14.5835 49.5337 14.1168 50.0003 13.5418 50.0003ZM4.16683 47.917H12.5002V37.5003H4.16683V47.917Z" fill="#1BA098"/>
<path d="M30.2083 50.0003H19.7917C19.2167 50.0003 18.75 49.5337 18.75 48.9587V25.0003C18.75 23.8524 19.6833 22.917 20.8333 22.917H29.1667C30.3167 22.917 31.25 23.8524 31.25 25.0003V48.9587C31.25 49.5337 30.7833 50.0003 30.2083 50.0003ZM20.8333 47.917H29.1667V25.0003H20.8333V47.917Z" fill="#1BA098"/>
<path d="M46.8748 49.9997H36.4582C35.8832 49.9997 35.4165 49.533 35.4165 48.958V29.1663C35.4165 28.0184 36.3498 27.083 37.4998 27.083H45.8332C46.9832 27.083 47.9165 28.0184 47.9165 29.1663V48.958C47.9165 49.533 47.4498 49.9997 46.8748 49.9997ZM37.4998 47.9164H45.8332V29.1663H37.4998V47.9164Z" fill="#1BA098"/>
<path d="M5.2082 22.9169C4.94154 22.9169 4.67487 22.8148 4.4707 22.6127C4.06445 22.2064 4.06445 21.546 4.4707 21.1398L14.8874 10.7231C15.1457 10.4648 15.5186 10.3564 15.877 10.4481L31.9728 14.471L44.0561 2.3877C44.4624 1.98145 45.1228 1.98145 45.529 2.3877C45.9353 2.79395 45.9353 3.45436 45.529 3.86061L33.029 16.3606C32.7728 16.6189 32.3978 16.7231 32.0395 16.6335L15.9436 12.6127L5.94362 22.6127C5.74154 22.8148 5.47487 22.9169 5.2082 22.9169Z" fill="#1BA098"/>
<path d="M44.7915 12.4997C44.2165 12.4997 43.7498 12.033 43.7498 11.458V4.16634H36.4582C35.8832 4.16634 35.4165 3.69967 35.4165 3.12467C35.4165 2.54967 35.8832 2.08301 36.4582 2.08301H44.7915C45.3665 2.08301 45.8332 2.54967 45.8332 3.12467V11.458C45.8332 12.033 45.3665 12.4997 44.7915 12.4997Z" fill="#1BA098"/>
</g>
<defs>
<clipPath id="clip0">
<rect width="50" height="50" fill="white"/>
</clipPath>
</defs>
</svg>
