<svg width="50" height="50" viewBox="0 0 50 50" fill="none" xmlns="http://www.w3.org/2000/svg">
<g clip-path="url(#clip0)">
<path d="M49.9927 9.6209C49.9521 9.20216 49.7458 8.81468 49.4177 8.55219C45.6148 5.48981 41.2524 3.19303 36.6089 1.74934C36.5558 1.72747 36.4995 1.70559 36.4433 1.68685C36.3745 1.66497 36.3058 1.64935 36.2339 1.63685C28.9967 -0.528689 21.0095 -0.528689 13.7723 1.63685C13.6973 1.64935 13.6286 1.6681 13.5598 1.68685C13.5005 1.70559 13.4473 1.72747 13.3942 1.74934C8.74752 3.19303 4.38832 5.48981 0.585355 8.55219C0.257244 8.8178 0.0478772 9.20216 0.00725384 9.62402C-0.0333695 10.0428 0.0978751 10.4615 0.369739 10.7833L5.43516 16.7487C5.97888 17.3925 6.93509 17.4893 7.59757 16.9643C10.3756 14.7613 13.488 13.1395 16.8503 12.1458C17.2534 12.027 17.5909 11.7521 17.7878 11.3802C17.9846 11.0083 18.0221 10.574 17.8971 10.174L16.016 4.25549C21.8501 2.75555 28.153 2.75555 33.9871 4.25549L32.1059 10.174C31.9778 10.574 32.0184 11.0083 32.2153 11.3802C32.4122 11.7521 32.7497 12.027 33.1528 12.1458C36.5151 13.1395 39.6275 14.7613 42.4024 16.9643C42.6899 17.1925 43.0336 17.3018 43.3742 17.3018C43.818 17.3018 44.2586 17.1143 44.5679 16.7487L49.6302 10.7802C49.9021 10.4584 50.0333 10.0428 49.9927 9.6209ZM6.86322 13.6051L3.81647 10.0115C6.63198 7.94909 9.74123 6.32103 13.0223 5.16483L14.4473 9.63965C11.7474 10.5927 9.20688 11.9208 6.86322 13.6051ZM43.1399 13.6051C40.7962 11.9239 38.2557 10.5959 35.5558 9.63965L36.9776 5.16483C40.2618 6.32103 43.368 7.95221 46.1866 10.0115L43.1399 13.6051Z" fill="#1BA098"/>
<path d="M32.8131 18.739H31.2507V14.0517C31.2507 13.1892 30.5507 12.4893 29.6882 12.4893C28.8258 12.4893 28.1258 13.1892 28.1258 14.0517V18.739H21.8761V14.0517C21.8761 13.1892 21.1761 12.4893 20.3136 12.4893C19.4512 12.4893 18.7512 13.1892 18.7512 14.0517V18.739H17.1887C7.71101 18.739 0.00195312 26.4481 0.00195312 35.9258V46.8629C0.00195312 48.5847 1.40502 49.9877 3.12682 49.9877H46.875C48.5968 49.9877 49.9999 48.5847 49.9999 46.8629V35.9258C49.9999 26.4481 42.2908 18.739 32.8131 18.739ZM46.875 46.8629H3.12682V35.9258C3.12682 28.173 9.43594 21.8639 17.1887 21.8639H32.8131C40.5659 21.8639 46.875 28.173 46.875 35.9258V46.8629Z" fill="#1BA098"/>
<path d="M25.0001 24.9883C19.8316 24.9883 15.6255 29.1944 15.6255 34.3629C15.6255 39.5314 19.8316 43.7375 25.0001 43.7375C30.1686 43.7375 34.3747 39.5314 34.3747 34.3629C34.3747 29.1944 30.1686 24.9883 25.0001 24.9883ZM25.0001 40.6126C21.5534 40.6126 18.7504 37.8096 18.7504 34.3629C18.7504 30.9162 21.5534 28.1132 25.0001 28.1132C28.4468 28.1132 31.2498 30.9162 31.2498 34.3629C31.2498 37.8096 28.4468 40.6126 25.0001 40.6126Z" fill="#1BA098"/>
</g>
<defs>
<clipPath id="clip0">
<rect width="50" height="50" fill="white"/>
</clipPath>
</defs>
</svg>
