<svg width="285" height="130" viewBox="0 0 285 130" fill="none" xmlns="http://www.w3.org/2000/svg">
<rect width="10" height="10" fill="#78B5B7"/>
<rect y="40" width="10" height="10" fill="#78B5B7"/>
<rect y="80" width="10" height="10" fill="#78B5B7"/>
<rect y="120" width="10" height="10" fill="#78B5B7"/>
<rect x="155" width="10" height="10" fill="#78B5B7"/>
<rect x="155" y="40" width="10" height="10" fill="#78B5B7"/>
<rect x="155" y="80" width="10" height="10" fill="#78B5B7"/>
<rect x="155" y="120" width="10" height="10" fill="#78B5B7"/>
<rect x="80" width="10" height="10" fill="#78B5B7"/>
<rect x="80" y="40" width="10" height="10" fill="#78B5B7"/>
<rect x="80" y="80" width="10" height="10" fill="#78B5B7"/>
<rect x="80" y="120" width="10" height="10" fill="#78B5B7"/>
<rect x="235" width="10" height="10" fill="#78B5B7"/>
<rect x="235" y="40" width="10" height="10" fill="#78B5B7"/>
<rect x="235" y="80" width="10" height="10" fill="#78B5B7"/>
<rect x="235" y="120" width="10" height="10" fill="#78B5B7"/>
<rect x="40" width="10" height="10" fill="#78B5B7"/>
<rect x="40" y="40" width="10" height="10" fill="#78B5B7"/>
<rect x="40" y="80" width="10" height="10" fill="#78B5B7"/>
<rect x="40" y="120" width="10" height="10" fill="#78B5B7"/>
<rect x="195" width="10" height="10" fill="#78B5B7"/>
<rect x="195" y="40" width="10" height="10" fill="#78B5B7"/>
<rect x="195" y="80" width="10" height="10" fill="#78B5B7"/>
<rect x="195" y="120" width="10" height="10" fill="#78B5B7"/>
<rect x="120" width="10" height="10" fill="#78B5B7"/>
<rect x="120" y="40" width="10" height="10" fill="#78B5B7"/>
<rect x="120" y="80" width="10" height="10" fill="#78B5B7"/>
<rect x="120" y="120" width="10" height="10" fill="#78B5B7"/>
<rect x="275" width="10" height="10" fill="#78B5B7"/>
<rect x="275" y="40" width="10" height="10" fill="#78B5B7"/>
<rect x="275" y="80" width="10" height="10" fill="#78B5B7"/>
<rect x="275" y="120" width="10" height="10" fill="#78B5B7"/>
</svg>
