<svg width="250" height="250" viewBox="0 0 250 250" fill="none" xmlns="http://www.w3.org/2000/svg">
<path opacity="0.2" d="M185.714 219.71C189.44 225.522 187.772 233.316 181.617 236.443C162.089 246.364 140.288 250.981 118.415 249.827C111.521 249.463 106.837 243.014 107.887 236.191C108.937 229.368 115.329 224.771 122.23 224.962C138.054 225.401 153.763 222.074 168.051 215.259C174.282 212.287 181.989 213.898 185.714 219.71Z" fill="#3D9496"/>
<path d="M90.2356 231.994C88.1023 238.56 81.0166 242.21 74.6967 239.432C49.987 228.57 29.3425 209.943 16.0148 186.215C0.637648 158.837 -3.87265 126.676 3.38082 96.1248C10.6343 65.574 29.1201 38.8721 55.1625 21.3288C77.7337 6.12379 104.548 -1.23587 131.503 0.168976C138.397 0.52829 143.086 6.97411 142.04 13.798C140.995 20.6219 134.605 25.2231 127.704 25.0363C106.987 24.4755 86.4895 30.3689 69.13 42.063C48.2961 56.0976 33.5074 77.4592 27.7047 101.9C21.9019 126.341 25.5101 152.07 37.8119 173.972C48.0621 192.221 63.7225 206.699 82.4814 215.511C88.7299 218.446 92.3689 225.428 90.2356 231.994Z" fill="#3D9496"/>
<path opacity="0.5" d="M182.864 28.5219C186.415 22.6015 194.138 20.6322 199.674 24.7563C210.523 32.8377 220.01 42.6437 227.746 53.8084C237.86 68.4058 244.748 84.9908 247.951 102.459C251.153 119.927 250.597 137.876 246.319 155.113C243.047 168.295 237.655 180.829 230.379 192.234C226.665 198.053 218.746 198.952 213.326 194.676C207.906 190.401 207.054 182.574 210.621 176.663C215.778 168.116 219.639 158.824 222.055 149.09C225.478 135.301 225.923 120.941 223.361 106.967C220.799 92.9927 215.288 79.7247 207.197 68.0467C201.485 59.8029 194.579 52.4851 186.725 46.3235C181.294 42.0622 179.313 34.4423 182.864 28.5219Z" fill="#3D9496"/>
<path d="M75.5024 101V122H70.6424V104.9H66.4424V101H75.5024ZM88.1505 122.36C86.4105 122.36 84.8605 121.93 83.5005 121.07C82.1405 120.21 81.0705 118.97 80.2905 117.35C79.5305 115.71 79.1505 113.76 79.1505 111.5C79.1505 109.24 79.5305 107.3 80.2905 105.68C81.0705 104.04 82.1405 102.79 83.5005 101.93C84.8605 101.07 86.4105 100.64 88.1505 100.64C89.8905 100.64 91.4405 101.07 92.8005 101.93C94.1605 102.79 95.2205 104.04 95.9805 105.68C96.7605 107.3 97.1505 109.24 97.1505 111.5C97.1505 113.76 96.7605 115.71 95.9805 117.35C95.2205 118.97 94.1605 120.21 92.8005 121.07C91.4405 121.93 89.8905 122.36 88.1505 122.36ZM88.1505 118.25C89.4305 118.25 90.4305 117.7 91.1505 116.6C91.8905 115.5 92.2605 113.8 92.2605 111.5C92.2605 109.2 91.8905 107.5 91.1505 106.4C90.4305 105.3 89.4305 104.75 88.1505 104.75C86.8905 104.75 85.8905 105.3 85.1505 106.4C84.4305 107.5 84.0705 109.2 84.0705 111.5C84.0705 113.8 84.4305 115.5 85.1505 116.6C85.8905 117.7 86.8905 118.25 88.1505 118.25ZM118.742 117.59H115.322V122H110.582V117.59H99.2718V114.32L109.172 101H114.272L105.092 113.63H110.732V109.7H115.322V113.63H118.742V117.59ZM123.571 116.42C124.411 116.42 125.101 116.69 125.641 117.23C126.181 117.75 126.451 118.44 126.451 119.3C126.451 119.7 126.401 120.1 126.301 120.5C126.201 120.9 125.981 121.5 125.641 122.3L123.931 126.62H120.961L122.281 121.85C121.781 121.65 121.381 121.33 121.081 120.89C120.801 120.43 120.661 119.9 120.661 119.3C120.661 118.44 120.931 117.75 121.471 117.23C122.031 116.69 122.731 116.42 123.571 116.42ZM135.833 108.89C138.793 108.89 140.973 109.48 142.373 110.66C143.793 111.84 144.503 113.42 144.503 115.4C144.503 116.68 144.183 117.85 143.543 118.91C142.903 119.95 141.923 120.79 140.603 121.43C139.303 122.05 137.693 122.36 135.773 122.36C134.293 122.36 132.833 122.17 131.393 121.79C129.973 121.39 128.763 120.83 127.763 120.11L129.683 116.39C130.483 116.99 131.403 117.46 132.443 117.8C133.483 118.12 134.553 118.28 135.653 118.28C136.873 118.28 137.833 118.04 138.533 117.56C139.233 117.08 139.583 116.41 139.583 115.55C139.583 114.65 139.213 113.97 138.473 113.51C137.753 113.05 136.493 112.82 134.693 112.82H129.323L130.403 101H143.213V104.9H134.453L134.123 108.89H135.833ZM155.475 122.36C153.735 122.36 152.185 121.93 150.825 121.07C149.465 120.21 148.395 118.97 147.615 117.35C146.855 115.71 146.475 113.76 146.475 111.5C146.475 109.24 146.855 107.3 147.615 105.68C148.395 104.04 149.465 102.79 150.825 101.93C152.185 101.07 153.735 100.64 155.475 100.64C157.215 100.64 158.765 101.07 160.125 101.93C161.485 102.79 162.545 104.04 163.305 105.68C164.085 107.3 164.475 109.24 164.475 111.5C164.475 113.76 164.085 115.71 163.305 117.35C162.545 118.97 161.485 120.21 160.125 121.07C158.765 121.93 157.215 122.36 155.475 122.36ZM155.475 118.25C156.755 118.25 157.755 117.7 158.475 116.6C159.215 115.5 159.585 113.8 159.585 111.5C159.585 109.2 159.215 107.5 158.475 106.4C157.755 105.3 156.755 104.75 155.475 104.75C154.215 104.75 153.215 105.3 152.475 106.4C151.755 107.5 151.395 109.2 151.395 111.5C151.395 113.8 151.755 115.5 152.475 116.6C153.215 117.7 154.215 118.25 155.475 118.25ZM174.216 100.64C177.156 100.64 179.456 101.54 181.116 103.34C182.776 105.12 183.606 107.69 183.606 111.05C183.606 113.43 183.156 115.47 182.256 117.17C181.376 118.87 180.126 120.16 178.506 121.04C176.886 121.92 175.016 122.36 172.896 122.36C171.776 122.36 170.706 122.24 169.686 122C168.666 121.74 167.796 121.38 167.076 120.92L168.876 117.35C169.896 118.05 171.206 118.4 172.806 118.4C174.586 118.4 175.996 117.88 177.036 116.84C178.076 115.78 178.636 114.26 178.716 112.28C177.456 113.54 175.716 114.17 173.496 114.17C172.156 114.17 170.936 113.9 169.836 113.36C168.736 112.82 167.866 112.06 167.226 111.08C166.586 110.08 166.266 108.93 166.266 107.63C166.266 106.23 166.616 105 167.316 103.94C168.016 102.88 168.966 102.07 170.166 101.51C171.386 100.93 172.736 100.64 174.216 100.64ZM174.576 110.54C175.636 110.54 176.496 110.25 177.156 109.67C177.836 109.07 178.176 108.31 178.176 107.39C178.176 106.47 177.846 105.72 177.186 105.14C176.546 104.56 175.656 104.27 174.516 104.27C173.476 104.27 172.626 104.55 171.966 105.11C171.326 105.67 171.006 106.43 171.006 107.39C171.006 108.35 171.326 109.12 171.966 109.7C172.626 110.26 173.496 110.54 174.576 110.54Z" fill="black"/>
<path d="M96.6641 157.096C95.2135 157.096 94.0828 156.68 93.2721 155.848C92.4615 155.016 92.0561 153.805 92.0561 152.216V145.8H93.2401V152.168C93.2401 153.469 93.5335 154.44 94.1201 155.08C94.7068 155.72 95.5548 156.04 96.6641 156.04C97.7841 156.04 98.6375 155.72 99.2241 155.08C99.8108 154.44 100.104 153.469 100.104 152.168V145.8H101.256V152.216C101.256 153.805 100.851 155.016 100.04 155.848C99.2401 156.68 98.1148 157.096 96.6641 157.096ZM115.08 148.52C116.136 148.52 116.963 148.824 117.56 149.432C118.168 150.04 118.472 150.936 118.472 152.12V157H117.336V152.232C117.336 151.357 117.123 150.691 116.696 150.232C116.28 149.773 115.688 149.544 114.92 149.544C114.045 149.544 113.357 149.816 112.856 150.36C112.355 150.893 112.104 151.635 112.104 152.584V157H110.968V152.232C110.968 151.357 110.755 150.691 110.328 150.232C109.912 149.773 109.315 149.544 108.536 149.544C107.672 149.544 106.984 149.816 106.472 150.36C105.971 150.893 105.72 151.635 105.72 152.584V157H104.584V148.584H105.672V150.12C105.971 149.608 106.387 149.213 106.92 148.936C107.453 148.659 108.067 148.52 108.76 148.52C109.464 148.52 110.072 148.669 110.584 148.968C111.107 149.267 111.496 149.709 111.752 150.296C112.061 149.741 112.504 149.309 113.08 149C113.667 148.68 114.333 148.52 115.08 148.52ZM129.137 148.584V157H128.049V155.464C127.75 155.976 127.339 156.376 126.817 156.664C126.294 156.941 125.697 157.08 125.025 157.08C123.926 157.08 123.057 156.776 122.417 156.168C121.787 155.549 121.473 154.648 121.473 153.464V148.584H122.609V153.352C122.609 154.237 122.827 154.909 123.265 155.368C123.702 155.827 124.326 156.056 125.137 156.056C126.022 156.056 126.721 155.789 127.233 155.256C127.745 154.712 128.001 153.96 128.001 153V148.584H129.137ZM142.814 148.52C143.87 148.52 144.697 148.824 145.294 149.432C145.902 150.04 146.206 150.936 146.206 152.12V157H145.07V152.232C145.07 151.357 144.857 150.691 144.43 150.232C144.014 149.773 143.422 149.544 142.654 149.544C141.78 149.544 141.092 149.816 140.59 150.36C140.089 150.893 139.838 151.635 139.838 152.584V157H138.702V152.232C138.702 151.357 138.489 150.691 138.062 150.232C137.646 149.773 137.049 149.544 136.27 149.544C135.406 149.544 134.718 149.816 134.206 150.36C133.705 150.893 133.454 151.635 133.454 152.584V157H132.318V148.584H133.406V150.12C133.705 149.608 134.121 149.213 134.654 148.936C135.188 148.659 135.801 148.52 136.494 148.52C137.198 148.52 137.806 148.669 138.318 148.968C138.841 149.267 139.23 149.709 139.486 150.296C139.796 149.741 140.238 149.309 140.814 149C141.401 148.68 142.068 148.52 142.814 148.52ZM149.287 148.584H150.423V157H149.287V148.584ZM149.863 146.744C149.628 146.744 149.431 146.664 149.271 146.504C149.111 146.344 149.031 146.152 149.031 145.928C149.031 145.715 149.111 145.528 149.271 145.368C149.431 145.208 149.628 145.128 149.863 145.128C150.098 145.128 150.295 145.208 150.455 145.368C150.615 145.517 150.695 145.699 150.695 145.912C150.695 146.147 150.615 146.344 150.455 146.504C150.295 146.664 150.098 146.744 149.863 146.744ZM160.656 148.584L156.448 158.008C156.107 158.797 155.712 159.357 155.264 159.688C154.816 160.019 154.277 160.184 153.648 160.184C153.243 160.184 152.864 160.12 152.512 159.992C152.16 159.864 151.856 159.672 151.6 159.416L152.128 158.568C152.555 158.995 153.067 159.208 153.664 159.208C154.048 159.208 154.373 159.101 154.64 158.888C154.917 158.675 155.173 158.312 155.408 157.8L155.776 156.984L152.016 148.584H153.2L156.368 155.736L159.536 148.584H160.656Z" fill="#666666"/>
</svg>
