<svg width="13" height="14" viewBox="0 0 13 14" fill="none" xmlns="http://www.w3.org/2000/svg">
<g clip-path="url(#clip0)">
<path d="M11.0955 2.01893C10.907 1.83063 10.5999 1.83063 10.4086 2.01893L8.92976 3.49578C8.74119 3.68409 8.74119 3.99075 8.92976 4.18175C9.11832 4.37006 9.4254 4.37006 9.61666 4.18175L10.74 3.05999C12.5609 5.2255 12.4532 8.47242 10.4113 10.5115C8.25632 12.6636 4.74907 12.6636 2.59407 10.5115C0.43908 8.35944 0.43908 4.85696 2.59407 2.7049C3.91939 1.38138 5.80771 0.821847 7.64215 1.20653C7.89805 1.26033 8.15665 1.09354 8.21053 0.829917C8.2644 0.56898 8.09739 0.310733 7.8361 0.256932C5.67841 -0.195001 3.45876 0.464067 1.90178 2.01893C0.676129 3.2456 0 4.87579 0 6.6082C0 8.3406 0.676129 9.97079 1.90448 11.1975C3.13282 12.4241 4.76254 13.0993 6.5 13.0993C8.23746 13.0993 9.86718 12.4241 11.0955 11.1975C12.3239 9.97079 13 8.3433 13 6.6082C13 4.8731 12.3239 3.2456 11.0955 2.01893Z" fill="#1BA098"/>
<path d="M6.49741 2.09082C6.23073 2.09082 6.01254 2.30872 6.01254 2.57503V6.4057L4.07843 8.33718C3.88987 8.52548 3.88987 8.83215 4.07843 9.02315C4.17271 9.1173 4.29663 9.16572 4.42054 9.16572C4.54445 9.16572 4.66836 9.1173 4.76264 9.02315L6.83952 6.9491C6.85029 6.93834 6.86107 6.92489 6.87184 6.91413C6.87723 6.90875 6.87992 6.90337 6.88262 6.89799C6.888 6.88992 6.89339 6.88454 6.89878 6.87647C6.90417 6.87109 6.90686 6.86302 6.91225 6.85495C6.91494 6.84957 6.92033 6.8415 6.92302 6.83343C6.92572 6.82536 6.9311 6.81998 6.9338 6.81191C6.93649 6.80384 6.94188 6.79846 6.94457 6.79039C6.94727 6.78231 6.94996 6.77693 6.95265 6.76886C6.95535 6.76079 6.95804 6.75272 6.96073 6.74465C6.96343 6.73658 6.96343 6.7312 6.96612 6.72313C6.96882 6.71506 6.97151 6.70699 6.97151 6.69892C6.9742 6.69085 6.9742 6.68278 6.9742 6.67202C6.9742 6.66395 6.9769 6.65857 6.9769 6.6505C6.97959 6.63436 6.97959 6.61822 6.97959 6.60208V2.57503C6.98228 2.30872 6.76409 2.09082 6.49741 2.09082Z" fill="#1BA098"/>
</g>
<defs>
<clipPath id="clip0">
<rect width="13" height="12.9823" fill="white" transform="translate(0 0.116211)"/>
</clipPath>
</defs>
</svg>
