<svg width="13" height="14" viewBox="0 0 13 14" fill="none" xmlns="http://www.w3.org/2000/svg">
<g clip-path="url(#clip0)">
<path d="M11.413 1.72266H1.5897C0.712808 1.72266 0 2.43449 0 3.31019V10.0149C0 10.8906 0.712808 11.6024 1.5897 11.6024H11.4103C12.2872 11.6024 13 10.8906 13 10.0149V3.31287C13.0027 2.43718 12.2899 1.72266 11.413 1.72266ZM12.2764 10.0149C12.2764 10.4903 11.8891 10.8772 11.413 10.8772H1.5897C1.11359 10.8772 0.726257 10.4903 0.726257 10.0149V3.31287C0.726257 2.83742 1.11359 2.45061 1.5897 2.45061H11.4103C11.8864 2.45061 12.2737 2.83742 12.2737 3.31287V10.0149H12.2764Z" fill="#1BA098"/>
<path d="M8.1985 6.57925L11.3779 3.7319C11.5258 3.59759 11.5393 3.36926 11.4048 3.21884C11.2703 3.0711 11.0417 3.05767 10.891 3.19198L6.50659 7.12185L5.65122 6.35898C5.64853 6.35629 5.64584 6.35361 5.64584 6.35092C5.62701 6.33212 5.60818 6.316 5.58666 6.29988L2.10601 3.18929C1.95538 3.05498 1.72674 3.06841 1.59225 3.21884C1.45776 3.36926 1.4712 3.59759 1.62184 3.7319L4.83888 6.60342L1.63528 9.59851C1.49003 9.73551 1.48196 9.96383 1.61915 10.1116C1.69177 10.1868 1.78861 10.2271 1.88544 10.2271C1.9742 10.2271 2.06297 10.1948 2.13291 10.1304L5.38492 7.09231L6.26719 7.87936C6.33713 7.94114 6.4232 7.97069 6.50928 7.97069C6.59535 7.97069 6.68412 7.93845 6.75136 7.87667L7.65784 7.06544L10.891 10.1331C10.961 10.2002 11.0524 10.2324 11.1412 10.2324C11.238 10.2324 11.3322 10.1948 11.4048 10.1196C11.542 9.97458 11.5366 9.74356 11.3913 9.60657L8.1985 6.57925Z" fill="#1BA098"/>
</g>
<defs>
<clipPath id="clip0">
<rect width="13" height="12.9823" fill="white" transform="translate(0 0.170898)"/>
</clipPath>
</defs>
</svg>
