<svg width="30" height="30" viewBox="0 0 30 30" fill="none" xmlns="http://www.w3.org/2000/svg">
<g clip-path="url(#clip0)">
<path d="M21.0435 5.3621H23.979V0.00277363H18.6444C18.1994 -0.015743 12.7746 -0.119436 11.3686 5.24236C11.3482 5.29853 10.8989 6.5737 10.8989 9.55241L6.021 9.56722V15.1882L10.9051 15.1741V30.0003H18.3654V15.187H23.3032V9.55118H18.3654V7.7779C18.3654 6.67555 18.8302 5.3621 21.0435 5.3621ZM22.0687 10.785V13.952H17.131V28.7653H12.1395V13.9359L7.25544 13.9501V10.798L12.1525 10.7838L12.1395 10.1561C12.0753 7.00082 12.5253 5.6738 12.5456 5.61022C13.7591 0.992178 18.3926 1.22425 18.5913 1.2366L22.7446 1.23783V4.12828H21.0435C18.1593 4.12828 17.1316 6.01327 17.1316 7.77728V10.785H22.0687Z" fill="white"/>
</g>
<defs>
<clipPath id="clip0">
<rect width="30" height="30" fill="white"/>
</clipPath>
</defs>
</svg>
