<svg width="211" height="102" viewBox="0 0 211 102" fill="none" xmlns="http://www.w3.org/2000/svg">
<g filter="url(#filter0_d)">
<rect x="30" y="10" width="151" height="42" rx="21" fill="#3B5998"/>
</g>
<path d="M84.12 37H85.296V31.824H89.776V30.656H85.296V26.656H90.736V25.48H84.12V37ZM94.342 37.24C95.8513 37.24 96.9473 36.6827 97.63 35.568V37H98.678V31.632C98.678 31.312 98.662 30.9973 98.63 30.688C98.598 30.3787 98.5287 30.0987 98.422 29.848C98.1927 29.288 97.8007 28.8613 97.246 28.568C96.6967 28.2693 96.0273 28.12 95.238 28.12C94.2887 28.12 93.5153 28.3333 92.918 28.76C92.3207 29.1867 91.9207 29.7867 91.718 30.56L92.862 30.896C93.0273 30.32 93.3127 29.8987 93.718 29.632C94.1287 29.3653 94.63 29.232 95.222 29.232C96.0433 29.232 96.63 29.424 96.982 29.808C97.334 30.1867 97.5153 30.7653 97.526 31.544C97.142 31.5973 96.718 31.6533 96.254 31.712C95.7953 31.7707 95.334 31.8373 94.87 31.912C94.406 31.9867 93.9793 32.072 93.59 32.168C92.9447 32.3387 92.4167 32.624 92.006 33.024C91.5953 33.4187 91.39 33.9707 91.39 34.68C91.39 35.1387 91.4993 35.5627 91.718 35.952C91.9367 36.3413 92.2647 36.6533 92.702 36.888C93.1447 37.1227 93.6913 37.24 94.342 37.24ZM94.478 36.224C94.014 36.224 93.6407 36.1493 93.358 36C93.0807 35.8453 92.878 35.6507 92.75 35.416C92.6273 35.176 92.566 34.9307 92.566 34.68C92.566 34.2107 92.7233 33.8587 93.038 33.624C93.3527 33.3893 93.694 33.2187 94.062 33.112C94.5367 32.984 95.0887 32.88 95.718 32.8C96.3473 32.72 96.9447 32.6453 97.51 32.576C97.51 32.7733 97.502 33 97.486 33.256C97.4753 33.5067 97.446 33.7387 97.398 33.952C97.286 34.6027 96.9767 35.144 96.47 35.576C95.9687 36.008 95.3047 36.224 94.478 36.224ZM104.345 37.24C105.203 37.24 105.939 37.04 106.553 36.64C107.171 36.2347 107.643 35.648 107.969 34.88L106.785 34.528C106.347 35.584 105.534 36.112 104.345 36.112C103.417 36.112 102.718 35.8 102.249 35.176C101.779 34.5467 101.539 33.7147 101.529 32.68C101.539 31.672 101.771 30.848 102.225 30.208C102.683 29.568 103.39 29.248 104.345 29.248C104.91 29.248 105.411 29.392 105.849 29.68C106.291 29.9627 106.614 30.3627 106.817 30.88L107.969 30.512C107.729 29.7707 107.283 29.1867 106.633 28.76C105.987 28.3333 105.227 28.12 104.353 28.12C103.494 28.12 102.763 28.312 102.161 28.696C101.558 29.0747 101.097 29.608 100.777 30.296C100.457 30.9787 100.291 31.7733 100.281 32.68C100.291 33.5653 100.451 34.352 100.761 35.04C101.075 35.728 101.534 36.2667 102.137 36.656C102.739 37.0453 103.475 37.24 104.345 37.24ZM113.042 37.24C113.879 37.24 114.628 37.0347 115.29 36.624C115.956 36.2133 116.46 35.6293 116.802 34.872L115.706 34.448C115.156 35.5573 114.252 36.112 112.994 36.112C112.13 36.112 111.452 35.8427 110.962 35.304C110.476 34.7653 110.21 34 110.162 33.008H116.97C117.012 31.4827 116.679 30.288 115.97 29.424C115.266 28.5547 114.274 28.12 112.994 28.12C112.162 28.12 111.439 28.3067 110.826 28.68C110.218 29.0533 109.746 29.584 109.41 30.272C109.074 30.96 108.906 31.776 108.906 32.72C108.906 33.632 109.074 34.4267 109.41 35.104C109.751 35.7813 110.231 36.3067 110.85 36.68C111.474 37.0533 112.204 37.24 113.042 37.24ZM113.026 29.2C114.652 29.2 115.556 30.1413 115.738 32.024H110.186C110.276 31.112 110.564 30.4133 111.05 29.928C111.535 29.4427 112.194 29.2 113.026 29.2ZM118.737 37H119.793V35.792C120.102 36.24 120.494 36.5947 120.969 36.856C121.444 37.112 121.996 37.24 122.625 37.24C123.436 37.24 124.126 37.04 124.697 36.64C125.268 36.2347 125.702 35.688 126.001 35C126.305 34.312 126.457 33.536 126.457 32.672C126.457 31.8133 126.305 31.04 126.001 30.352C125.702 29.664 125.27 29.12 124.705 28.72C124.14 28.32 123.462 28.12 122.673 28.12C122.076 28.12 121.545 28.232 121.081 28.456C120.622 28.6747 120.236 28.9813 119.921 29.376V25.48H118.737V37ZM122.505 36.144C121.892 36.144 121.385 35.9947 120.985 35.696C120.585 35.392 120.286 34.9787 120.089 34.456C119.892 33.9333 119.793 33.3387 119.793 32.672C119.793 31.6533 120.014 30.824 120.457 30.184C120.905 29.5387 121.58 29.216 122.481 29.216C123.1 29.216 123.609 29.368 124.009 29.672C124.414 29.976 124.716 30.3893 124.913 30.912C125.11 31.4347 125.209 32.0213 125.209 32.672C125.209 33.328 125.108 33.9173 124.905 34.44C124.708 34.9627 124.409 35.3787 124.009 35.688C123.609 35.992 123.108 36.144 122.505 36.144ZM131.822 37.24C132.675 37.24 133.406 37.048 134.014 36.664C134.627 36.28 135.096 35.7467 135.422 35.064C135.752 34.376 135.918 33.5787 135.918 32.672C135.918 31.7813 135.755 30.9947 135.43 30.312C135.11 29.624 134.643 29.088 134.03 28.704C133.422 28.3147 132.686 28.12 131.822 28.12C130.979 28.12 130.251 28.312 129.638 28.696C129.03 29.0747 128.56 29.6053 128.23 30.288C127.899 30.9707 127.734 31.7653 127.734 32.672C127.734 33.5627 127.894 34.352 128.214 35.04C128.539 35.728 129.006 36.2667 129.614 36.656C130.227 37.0453 130.963 37.24 131.822 37.24ZM131.822 36.112C130.888 36.112 130.182 35.8 129.702 35.176C129.222 34.5467 128.982 33.712 128.982 32.672C128.982 31.664 129.214 30.8427 129.678 30.208C130.142 29.568 130.856 29.248 131.822 29.248C132.776 29.248 133.488 29.56 133.958 30.184C134.432 30.8027 134.67 31.632 134.67 32.672C134.67 33.6907 134.435 34.52 133.966 35.16C133.496 35.7947 132.782 36.112 131.822 36.112ZM141.291 37.24C142.144 37.24 142.875 37.048 143.483 36.664C144.096 36.28 144.565 35.7467 144.891 35.064C145.221 34.376 145.387 33.5787 145.387 32.672C145.387 31.7813 145.224 30.9947 144.899 30.312C144.579 29.624 144.112 29.088 143.499 28.704C142.891 28.3147 142.155 28.12 141.291 28.12C140.448 28.12 139.72 28.312 139.107 28.696C138.499 29.0747 138.029 29.6053 137.699 30.288C137.368 30.9707 137.203 31.7653 137.203 32.672C137.203 33.5627 137.363 34.352 137.683 35.04C138.008 35.728 138.475 36.2667 139.083 36.656C139.696 37.0453 140.432 37.24 141.291 37.24ZM141.291 36.112C140.357 36.112 139.651 35.8 139.171 35.176C138.691 34.5467 138.451 33.712 138.451 32.672C138.451 31.664 138.683 30.8427 139.147 30.208C139.611 29.568 140.325 29.248 141.291 29.248C142.245 29.248 142.957 29.56 143.427 30.184C143.901 30.8027 144.139 31.632 144.139 32.672C144.139 33.6907 143.904 34.52 143.435 35.16C142.965 35.7947 142.251 36.112 141.291 36.112ZM147.143 37H148.335V32.84L152.575 37H154.287L149.711 32.68L153.759 28.36H152.191L148.335 32.52V25.48H147.151L147.143 37Z" fill="white"/>
<g clip-path="url(#clip0)">
<path d="M66.3308 24.3208H68.1566V21.1408C67.8416 21.0975 66.7583 21 65.4966 21C62.8641 21 61.0608 22.6558 61.0608 25.6992V28.5H58.1558V32.055H61.0608V41H64.6224V32.0558H67.4099L67.8524 28.5008H64.6216V26.0517C64.6224 25.0242 64.8991 24.3208 66.3308 24.3208Z" fill="white"/>
</g>
<defs>
<filter id="filter0_d" x="0" y="0" width="211" height="102" filterUnits="userSpaceOnUse" color-interpolation-filters="sRGB">
<feFlood flood-opacity="0" result="BackgroundImageFix"/>
<feColorMatrix in="SourceAlpha" type="matrix" values="0 0 0 0 0 0 0 0 0 0 0 0 0 0 0 0 0 0 127 0"/>
<feOffset dy="20"/>
<feGaussianBlur stdDeviation="15"/>
<feColorMatrix type="matrix" values="0 0 0 0 0.231373 0 0 0 0 0.34902 0 0 0 0 0.596078 0 0 0 0.2 0"/>
<feBlend mode="normal" in2="BackgroundImageFix" result="effect1_dropShadow"/>
<feBlend mode="normal" in="SourceGraphic" in2="effect1_dropShadow" result="shape"/>
</filter>
<clipPath id="clip0">
<rect width="20" height="20" fill="white" transform="translate(53 21)"/>
</clipPath>
</defs>
</svg>
