<svg width="25" height="25" viewBox="0 0 25 25" fill="none" xmlns="http://www.w3.org/2000/svg">
<g clip-path="url(#clip0)">
<path d="M24.4849 6.48894C24.1967 5.41797 23.3523 4.57378 22.2816 4.28539C20.3252 3.75 12.4998 3.75 12.4998 3.75C12.4998 3.75 4.67451 3.75 2.71815 4.26498C1.66797 4.55318 0.80299 5.41816 0.514791 6.48894C0 8.44511 0 12.502 0 12.502C0 12.502 0 16.5793 0.514791 18.5151C0.803181 19.5859 1.64737 20.4303 2.71834 20.7187C4.69511 21.254 12.4999 21.254 12.4999 21.254C12.4999 21.254 20.3252 21.254 22.2816 20.7391C23.3525 20.4509 24.1967 19.6065 24.4851 18.5357C24.9999 16.5793 24.9999 12.5226 24.9999 12.5226C24.9999 12.5226 25.0205 8.44511 24.4849 6.48894Z" fill="white"/>
<path d="M8.75 16.2459L15.2573 12.4979L8.75 8.75V16.2459Z" fill="#575DBA"/>
</g>
<defs>
<clipPath id="clip0">
<rect width="25" height="25" fill="white"/>
</clipPath>
</defs>
</svg>
