<svg width="13" height="14" viewBox="0 0 13 14" fill="none" xmlns="http://www.w3.org/2000/svg">
<g clip-path="url(#clip0)">
<path d="M10.17 1.50298C9.13094 0.499701 7.76144 -0.0230628 6.31262 0.0244611C3.67409 0.116869 1.49559 2.16304 1.24178 4.78214C1.19419 5.28642 1.21534 5.7907 1.31052 6.28706C1.31316 6.30818 1.32374 6.36891 1.34753 6.46395C1.42949 6.82038 1.54582 7.16889 1.69916 7.50156C2.23586 8.76359 3.40442 10.7068 5.92927 12.7978C6.09583 12.9351 6.29676 13.0038 6.50034 13.0038C6.70391 13.0038 6.90484 12.9351 7.0714 12.7978C9.59625 10.7041 10.7648 8.76359 11.3015 7.50156C11.4549 7.16889 11.5738 6.82038 11.6531 6.46395C11.6769 6.36891 11.6875 6.30818 11.6902 6.28706C11.751 5.96231 11.7827 5.62701 11.7827 5.29698C11.7827 3.85278 11.209 2.50627 10.17 1.50298ZM10.7516 6.11809C10.7516 6.12601 10.749 6.13129 10.749 6.13921C10.7463 6.15241 10.7384 6.18937 10.7252 6.24746C10.7252 6.2501 10.7252 6.2501 10.7252 6.25274C10.6591 6.5458 10.5612 6.83623 10.4343 7.11081C10.4317 7.11609 10.429 7.12137 10.429 7.12401C9.9373 8.28307 8.85862 10.0731 6.50298 12.0375C4.14734 10.0758 3.06866 8.28307 2.57691 7.12401C2.57426 7.11873 2.57162 7.11345 2.57162 7.11081C2.44472 6.83623 2.3469 6.54844 2.2808 6.25274C2.2808 6.2501 2.2808 6.2501 2.2808 6.24746C2.26758 6.18937 2.25965 6.15241 2.25701 6.13921C2.25701 6.13129 2.25436 6.12601 2.25436 6.11809C2.16976 5.70885 2.14861 5.28906 2.18827 4.8719C2.39448 2.72276 4.18171 1.04623 6.34435 0.9723C7.53142 0.930056 8.65505 1.36041 9.509 2.18416C10.363 3.00791 10.8309 4.11152 10.8309 5.29698C10.8309 5.57156 10.8045 5.84878 10.7516 6.11809Z" fill="#1BA098"/>
<path d="M6.50052 2.54102C4.95124 2.54102 3.6875 3.8004 3.6875 5.35021C3.6875 6.90002 4.95124 8.1594 6.50052 8.1594C6.76226 8.1594 6.97641 7.94554 6.97641 7.68416C6.97641 7.42278 6.76226 7.20892 6.50052 7.20892C5.47472 7.20892 4.63927 6.37461 4.63927 5.35021C4.63927 4.3258 5.47472 3.49149 6.50052 3.49149C7.52632 3.49149 8.36177 4.3258 8.36177 5.35021C8.36177 5.79377 8.20314 6.22148 7.91497 6.55679C7.74312 6.75745 7.76691 7.05579 7.96784 7.2274C8.16877 7.39902 8.46752 7.37526 8.63937 7.1746C9.0756 6.66768 9.31354 6.01818 9.31354 5.35021C9.31354 3.80304 8.05244 2.54102 6.50052 2.54102Z" fill="#1BA098"/>
</g>
<defs>
<clipPath id="clip0">
<rect width="13" height="12.9823" fill="white" transform="translate(0 0.0214844)"/>
</clipPath>
</defs>
</svg>
