<svg width="211" height="102" viewBox="0 0 211 102" fill="none" xmlns="http://www.w3.org/2000/svg">
<g filter="url(#filter0_d)">
<rect x="30" y="10" width="151" height="42" rx="21" fill="url(#paint0_linear)"/>
</g>
<path d="M84.28 37V25.48H85.952V37H84.28ZM94.4184 37V32.752C94.4184 32.416 94.389 32.072 94.3304 31.72C94.277 31.3627 94.1704 31.032 94.0104 30.728C93.8557 30.424 93.6344 30.1787 93.3464 29.992C93.0637 29.8053 92.693 29.712 92.2344 29.712C91.9357 29.712 91.653 29.7627 91.3864 29.864C91.1197 29.96 90.885 30.1173 90.6824 30.336C90.485 30.5547 90.3277 30.8427 90.2104 31.2C90.0984 31.5573 90.0424 31.992 90.0424 32.504L89.0024 32.112C89.0024 31.328 89.149 30.6373 89.4424 30.04C89.7357 29.4373 90.157 28.968 90.7064 28.632C91.2557 28.296 91.9197 28.128 92.6984 28.128C93.2957 28.128 93.797 28.224 94.2024 28.416C94.6077 28.608 94.9357 28.8613 95.1864 29.176C95.4424 29.4853 95.637 29.824 95.7704 30.192C95.9037 30.56 95.9944 30.92 96.0424 31.272C96.0904 31.624 96.1144 31.9333 96.1144 32.2V37H94.4184ZM88.3464 37V28.36H89.8424V30.856H90.0424V37H88.3464ZM101.502 37.232C100.451 37.232 99.5955 37 98.9341 36.536C98.2728 36.072 97.8675 35.4187 97.7181 34.576L99.4301 34.312C99.5368 34.76 99.7821 35.1147 100.166 35.376C100.555 35.632 101.038 35.76 101.614 35.76C102.137 35.76 102.545 35.6533 102.838 35.44C103.137 35.2267 103.286 34.9333 103.286 34.56C103.286 34.3413 103.233 34.1653 103.126 34.032C103.025 33.8933 102.809 33.7627 102.478 33.64C102.147 33.5173 101.643 33.3653 100.966 33.184C100.225 32.992 99.6355 32.7867 99.1981 32.568C98.7661 32.344 98.4568 32.0853 98.2701 31.792C98.0888 31.4933 97.9981 31.1333 97.9981 30.712C97.9981 30.1893 98.1368 29.7333 98.4141 29.344C98.6915 28.9547 99.0808 28.6533 99.5821 28.44C100.089 28.2267 100.681 28.12 101.358 28.12C102.019 28.12 102.609 28.224 103.126 28.432C103.643 28.64 104.062 28.936 104.382 29.32C104.702 29.6987 104.894 30.144 104.958 30.656L103.246 30.968C103.187 30.552 102.993 30.224 102.662 29.984C102.331 29.744 101.902 29.6133 101.374 29.592C100.867 29.5707 100.457 29.656 100.142 29.848C99.8275 30.0347 99.6701 30.2933 99.6701 30.624C99.6701 30.816 99.7288 30.9787 99.8461 31.112C99.9688 31.2453 100.203 31.3733 100.55 31.496C100.897 31.6187 101.409 31.7653 102.086 31.936C102.811 32.1227 103.387 32.3307 103.814 32.56C104.241 32.784 104.545 33.0533 104.726 33.368C104.913 33.6773 105.006 34.0533 105.006 34.496C105.006 35.3493 104.694 36.0187 104.07 36.504C103.451 36.9893 102.595 37.232 101.502 37.232ZM111.72 37C111.176 37.1067 110.643 37.152 110.12 37.136C109.598 37.12 109.131 37.0187 108.72 36.832C108.31 36.6453 108 36.352 107.792 35.952C107.606 35.5947 107.504 35.232 107.488 34.864C107.478 34.4907 107.472 34.0693 107.472 33.6V25.96H109.152V33.52C109.152 33.8667 109.155 34.168 109.16 34.424C109.171 34.68 109.227 34.896 109.328 35.072C109.52 35.4027 109.824 35.592 110.24 35.64C110.662 35.6827 111.155 35.664 111.72 35.584V37ZM105.816 29.704V28.36H111.72V29.704H105.816ZM115.982 37.24C115.342 37.24 114.806 37.1227 114.374 36.888C113.942 36.648 113.614 36.3333 113.39 35.944C113.171 35.5493 113.062 35.1173 113.062 34.648C113.062 34.2107 113.139 33.8267 113.294 33.496C113.449 33.1653 113.678 32.8853 113.982 32.656C114.286 32.4213 114.659 32.232 115.102 32.088C115.486 31.976 115.921 31.8773 116.406 31.792C116.891 31.7067 117.401 31.6267 117.934 31.552C118.473 31.4773 119.006 31.4027 119.534 31.328L118.926 31.664C118.937 30.9867 118.793 30.4853 118.494 30.16C118.201 29.8293 117.694 29.664 116.974 29.664C116.521 29.664 116.105 29.7707 115.726 29.984C115.347 30.192 115.083 30.5387 114.934 31.024L113.374 30.544C113.587 29.8027 113.993 29.2133 114.59 28.776C115.193 28.3387 115.993 28.12 116.99 28.12C117.763 28.12 118.435 28.2533 119.006 28.52C119.582 28.7813 120.003 29.1973 120.27 29.768C120.409 30.0507 120.494 30.3493 120.526 30.664C120.558 30.9787 120.574 31.3173 120.574 31.68V37H119.094V35.024L119.382 35.28C119.025 35.9413 118.569 36.4347 118.014 36.76C117.465 37.08 116.787 37.24 115.982 37.24ZM116.278 35.872C116.753 35.872 117.161 35.7893 117.502 35.624C117.843 35.4533 118.118 35.2373 118.326 34.976C118.534 34.7147 118.67 34.4427 118.734 34.16C118.825 33.904 118.875 33.616 118.886 33.296C118.902 32.976 118.91 32.72 118.91 32.528L119.454 32.728C118.926 32.808 118.446 32.88 118.014 32.944C117.582 33.008 117.19 33.072 116.838 33.136C116.491 33.1947 116.182 33.2667 115.91 33.352C115.681 33.432 115.475 33.528 115.294 33.64C115.118 33.752 114.977 33.888 114.87 34.048C114.769 34.208 114.718 34.4027 114.718 34.632C114.718 34.856 114.774 35.064 114.886 35.256C114.998 35.4427 115.169 35.592 115.398 35.704C115.627 35.816 115.921 35.872 116.278 35.872ZM126.211 41.08C125.747 41.08 125.297 41.008 124.859 40.864C124.427 40.72 124.033 40.5067 123.675 40.224C123.318 39.9467 123.022 39.6027 122.787 39.192L124.331 38.408C124.518 38.776 124.785 39.0453 125.131 39.216C125.478 39.3867 125.843 39.472 126.227 39.472C126.702 39.472 127.107 39.3867 127.443 39.216C127.779 39.0507 128.033 38.8 128.203 38.464C128.379 38.128 128.465 37.712 128.459 37.216V34.8H128.659V28.36H130.139V37.232C130.139 37.4613 130.131 37.68 130.115 37.888C130.099 38.096 130.07 38.304 130.027 38.512C129.905 39.0933 129.67 39.5733 129.323 39.952C128.982 40.3307 128.545 40.6133 128.011 40.8C127.483 40.9867 126.883 41.08 126.211 41.08ZM126.083 37.24C125.278 37.24 124.582 37.04 123.995 36.64C123.414 36.24 122.963 35.696 122.643 35.008C122.329 34.3147 122.171 33.536 122.171 32.672C122.171 31.8027 122.331 31.0267 122.651 30.344C122.971 29.656 123.425 29.1147 124.011 28.72C124.603 28.32 125.305 28.12 126.115 28.12C126.931 28.12 127.617 28.32 128.171 28.72C128.731 29.1147 129.153 29.656 129.435 30.344C129.723 31.032 129.867 31.808 129.867 32.672C129.867 33.536 129.723 34.312 129.435 35C129.147 35.688 128.723 36.2347 128.163 36.64C127.603 37.04 126.91 37.24 126.083 37.24ZM126.315 35.728C126.865 35.728 127.313 35.5973 127.659 35.336C128.006 35.0747 128.259 34.7147 128.419 34.256C128.579 33.7973 128.659 33.2693 128.659 32.672C128.659 32.0747 128.577 31.5467 128.411 31.088C128.251 30.6293 128.001 30.272 127.659 30.016C127.323 29.76 126.894 29.632 126.371 29.632C125.817 29.632 125.361 29.768 125.003 30.04C124.646 30.312 124.379 30.6773 124.203 31.136C124.033 31.5947 123.947 32.1067 123.947 32.672C123.947 33.2427 124.033 33.76 124.203 34.224C124.379 34.6827 124.641 35.048 124.987 35.32C125.339 35.592 125.782 35.728 126.315 35.728ZM132.386 37V28.36H133.874V30.456L133.666 30.184C133.772 29.9067 133.911 29.6533 134.082 29.424C134.252 29.1893 134.45 28.9973 134.674 28.848C134.892 28.688 135.135 28.5653 135.402 28.48C135.674 28.3893 135.951 28.336 136.234 28.32C136.516 28.2987 136.788 28.312 137.05 28.36V29.928C136.767 29.8533 136.452 29.832 136.106 29.864C135.764 29.896 135.45 30.0053 135.162 30.192C134.89 30.368 134.674 30.5813 134.514 30.832C134.359 31.0827 134.247 31.3627 134.178 31.672C134.108 31.976 134.074 32.2987 134.074 32.64V37H132.386ZM140.779 37.24C140.139 37.24 139.603 37.1227 139.171 36.888C138.739 36.648 138.411 36.3333 138.187 35.944C137.968 35.5493 137.859 35.1173 137.859 34.648C137.859 34.2107 137.936 33.8267 138.091 33.496C138.245 33.1653 138.475 32.8853 138.779 32.656C139.083 32.4213 139.456 32.232 139.899 32.088C140.283 31.976 140.717 31.8773 141.203 31.792C141.688 31.7067 142.197 31.6267 142.731 31.552C143.269 31.4773 143.803 31.4027 144.331 31.328L143.723 31.664C143.733 30.9867 143.589 30.4853 143.291 30.16C142.997 29.8293 142.491 29.664 141.771 29.664C141.317 29.664 140.901 29.7707 140.523 29.984C140.144 30.192 139.88 30.5387 139.731 31.024L138.171 30.544C138.384 29.8027 138.789 29.2133 139.387 28.776C139.989 28.3387 140.789 28.12 141.787 28.12C142.56 28.12 143.232 28.2533 143.803 28.52C144.379 28.7813 144.8 29.1973 145.067 29.768C145.205 30.0507 145.291 30.3493 145.323 30.664C145.355 30.9787 145.371 31.3173 145.371 31.68V37H143.891V35.024L144.179 35.28C143.821 35.9413 143.365 36.4347 142.811 36.76C142.261 37.08 141.584 37.24 140.779 37.24ZM141.075 35.872C141.549 35.872 141.957 35.7893 142.299 35.624C142.64 35.4533 142.915 35.2373 143.123 34.976C143.331 34.7147 143.467 34.4427 143.531 34.16C143.621 33.904 143.672 33.616 143.683 33.296C143.699 32.976 143.707 32.72 143.707 32.528L144.251 32.728C143.723 32.808 143.243 32.88 142.811 32.944C142.379 33.008 141.987 33.072 141.635 33.136C141.288 33.1947 140.979 33.2667 140.707 33.352C140.477 33.432 140.272 33.528 140.091 33.64C139.915 33.752 139.773 33.888 139.667 34.048C139.565 34.208 139.515 34.4027 139.515 34.632C139.515 34.856 139.571 35.064 139.683 35.256C139.795 35.4427 139.965 35.592 140.195 35.704C140.424 35.816 140.717 35.872 141.075 35.872ZM157.8 37L157.808 31.616C157.808 30.992 157.648 30.5067 157.328 30.16C157.008 29.808 156.587 29.632 156.064 29.632C155.744 29.632 155.451 29.7067 155.184 29.856C154.923 30 154.709 30.2187 154.544 30.512C154.384 30.8 154.304 31.1627 154.304 31.6L153.496 31.192C153.485 30.584 153.613 30.0507 153.88 29.592C154.152 29.1333 154.52 28.7787 154.984 28.528C155.448 28.272 155.968 28.144 156.544 28.144C157.477 28.144 158.2 28.424 158.712 28.984C159.224 29.544 159.48 30.288 159.48 31.216L159.472 37H157.8ZM147.44 37V28.36H148.928V30.856H149.12V37H147.44ZM152.624 37L152.632 31.648C152.632 31.0187 152.472 30.5253 152.152 30.168C151.837 29.8107 151.413 29.632 150.88 29.632C150.352 29.632 149.925 29.8133 149.6 30.176C149.28 30.5387 149.12 31.0133 149.12 31.6L148.32 31.088C148.32 30.5227 148.456 30.0187 148.728 29.576C149 29.1333 149.368 28.784 149.832 28.528C150.296 28.272 150.821 28.144 151.408 28.144C152.021 28.144 152.544 28.2747 152.976 28.536C153.408 28.792 153.736 29.152 153.96 29.616C154.189 30.08 154.304 30.6187 154.304 31.232L154.296 37H152.624Z" fill="white"/>
<g clip-path="url(#clip0)">
<path d="M70.9805 26.8801C70.9336 25.8174 70.7618 25.0868 70.5156 24.4537C70.2616 23.7818 69.8709 23.1801 69.359 22.68C68.8589 22.1721 68.2533 21.7774 67.5891 21.5274C66.9524 21.2813 66.2256 21.1094 65.163 21.0626C64.0924 21.0118 63.7525 21 61.0371 21C58.3217 21 57.9819 21.0118 56.9152 21.0586C55.8525 21.1055 55.122 21.2775 54.489 21.5235C53.8169 21.7774 53.2153 22.1681 52.7152 22.68C52.2073 23.1801 51.8127 23.7857 51.5626 24.4499C51.3164 25.0868 51.1446 25.8134 51.0977 26.8761C51.0469 27.9467 51.0352 28.2866 51.0352 31.002C51.0352 33.7173 51.0469 34.0572 51.0938 35.1239C51.1406 36.1865 51.3126 36.9171 51.5588 37.5502C51.8127 38.2221 52.2073 38.8238 52.7152 39.3239C53.2153 39.8318 53.8209 40.2265 54.4851 40.4765C55.122 40.7226 55.8486 40.8945 56.9114 40.9413C57.9779 40.9883 58.3179 40.9999 61.0333 40.9999C63.7487 40.9999 64.0885 40.9883 65.1552 40.9413C66.2179 40.8945 66.9484 40.7226 67.5814 40.4765C68.9255 39.9568 69.9881 38.8941 70.5078 37.5502C70.7538 36.9133 70.9258 36.1865 70.9727 35.1239C71.0195 34.0572 71.0313 33.7173 71.0313 31.002C71.0313 28.2866 71.0273 27.9467 70.9805 26.8801ZM69.1794 35.0457C69.1364 36.0225 68.9723 36.5499 68.8356 36.9015C68.4995 37.7728 67.808 38.4643 66.9367 38.8004C66.5851 38.9372 66.0538 39.1012 65.0809 39.1441C64.026 39.1911 63.7096 39.2027 61.0411 39.2027C58.3726 39.2027 58.0522 39.1911 57.0011 39.1441C56.0244 39.1012 55.4969 38.9372 55.1453 38.8004C54.7117 38.6402 54.317 38.3862 53.9967 38.0541C53.6646 37.7298 53.4107 37.3391 53.2504 36.9055C53.1137 36.5539 52.9496 36.0225 52.9067 35.0497C52.8597 33.9948 52.8481 33.6783 52.8481 31.0097C52.8481 28.3412 52.8597 28.0209 52.9067 26.9699C52.9496 25.9932 53.1137 25.4657 53.2504 25.1141C53.4107 24.6804 53.6646 24.2859 54.0007 23.9654C54.3248 23.6333 54.7155 23.3793 55.1493 23.2192C55.5009 23.0825 56.0323 22.9184 57.0051 22.8754C58.06 22.8285 58.3765 22.8168 61.0449 22.8168C63.7174 22.8168 64.0338 22.8285 65.0848 22.8754C66.0616 22.9184 66.589 23.0825 66.9407 23.2192C67.3742 23.3793 67.7689 23.6333 68.0893 23.9654C68.4214 24.2897 68.6753 24.6804 68.8356 25.1141C68.9723 25.4657 69.1364 25.997 69.1794 26.9699C69.2263 28.0248 69.238 28.3412 69.238 31.0097C69.238 33.6783 69.2263 33.9908 69.1794 35.0457Z" fill="white"/>
<path d="M61.0371 25.8643C58.2007 25.8643 55.8994 28.1654 55.8994 31.002C55.8994 33.8385 58.2007 36.1397 61.0371 36.1397C63.8737 36.1397 66.1749 33.8385 66.1749 31.002C66.1749 28.1654 63.8737 25.8643 61.0371 25.8643ZM61.0371 34.3347C59.197 34.3347 57.7044 32.8422 57.7044 31.002C57.7044 29.1617 59.197 27.6693 61.0371 27.6693C62.8774 27.6693 64.3698 29.1617 64.3698 31.002C64.3698 32.8422 62.8774 34.3347 61.0371 34.3347Z" fill="white"/>
<path d="M67.5777 25.6613C67.5777 26.3237 67.0406 26.8608 66.3781 26.8608C65.7158 26.8608 65.1787 26.3237 65.1787 25.6613C65.1787 24.9988 65.7158 24.4619 66.3781 24.4619C67.0406 24.4619 67.5777 24.9988 67.5777 25.6613Z" fill="white"/>
</g>
<defs>
<filter id="filter0_d" x="0" y="0" width="211" height="102" filterUnits="userSpaceOnUse" color-interpolation-filters="sRGB">
<feFlood flood-opacity="0" result="BackgroundImageFix"/>
<feColorMatrix in="SourceAlpha" type="matrix" values="0 0 0 0 0 0 0 0 0 0 0 0 0 0 0 0 0 0 127 0"/>
<feOffset dy="20"/>
<feGaussianBlur stdDeviation="15"/>
<feColorMatrix type="matrix" values="0 0 0 0 0.984314 0 0 0 0 0.321569 0 0 0 0 0.27451 0 0 0 0.2 0"/>
<feBlend mode="normal" in2="BackgroundImageFix" result="effect1_dropShadow"/>
<feBlend mode="normal" in="SourceGraphic" in2="effect1_dropShadow" result="shape"/>
</filter>
<linearGradient id="paint0_linear" x1="30" y1="31" x2="181" y2="31" gradientUnits="userSpaceOnUse">
<stop stop-color="#FFD954"/>
<stop offset="0.511146" stop-color="#FB5246"/>
<stop offset="1" stop-color="#CA38A7"/>
</linearGradient>
<clipPath id="clip0">
<rect width="20" height="20" fill="white" transform="translate(51 21)"/>
</clipPath>
</defs>
</svg>
