<svg width="25" height="25" viewBox="0 0 25 25" fill="none" xmlns="http://www.w3.org/2000/svg">
<g clip-path="url(#clip0)">
<path d="M24.786 0.215536C24.5788 0.0083095 24.268 -0.0554111 23.9961 0.0533778L0.460913 9.46733C0.191627 9.57504 0.0113046 9.83148 0.000953044 10.1214C-0.00934967 10.4112 0.152369 10.6798 0.413306 10.8064L9.69395 15.3074L14.195 24.5881C14.3178 24.8412 14.5741 25.0009 14.8539 25.0009C14.8625 25.0009 14.8713 25.0007 14.88 25.0004C15.1698 24.9901 15.4264 24.8098 15.534 24.5405L24.9481 1.00548C25.0569 0.733406 24.9931 0.422713 24.786 0.215536ZM2.54411 10.2118L21.227 2.73868L10.0928 13.8728L2.54411 10.2118ZM14.7896 22.4573L11.1286 14.9085L22.2628 3.77442L14.7896 22.4573Z" fill="white"/>
</g>
<defs>
<clipPath id="clip0">
<rect width="25" height="25" fill="white"/>
</clipPath>
</defs>
</svg>
