<svg width="667" height="667" viewBox="0 0 667 667" fill="none" xmlns="http://www.w3.org/2000/svg">
<g clip-path="url(#clip0)">
<path d="M225.724 472.273C212.488 472.273 199.287 470.46 186.476 467.039C187.608 448.585 188.655 429.824 189.303 414.309C189.388 412.279 189.466 410.307 189.536 408.396C189.536 408.396 189.851 395.912 190.139 379.599C190.219 375.064 190.298 370.225 190.366 365.285L225.546 355.2L216.635 324.119L190.597 331.584C190.551 317.305 190.231 306.316 189.396 304.743C187.941 301.997 184.848 299.924 181.186 298.364L183.554 295.772C183.554 295.772 181.261 294.791 175.997 293.987V290.805V280.769L147.68 271.392C152.633 253.915 183.6 237.649 190.219 234.764C197.738 231.487 193.225 214.276 190.479 208.66C189.487 206.631 187.916 206.063 185.766 206.063C184.395 206.063 182.787 206.293 180.945 206.525C179.103 206.756 177.024 206.988 174.709 206.988C172.924 206.988 170.997 206.849 168.931 206.468C166.571 206.032 164.48 205.859 162.644 205.859C155.437 205.859 152.179 208.536 152.179 208.536C152.179 208.536 151.125 205.816 149.283 202.296C146.035 205.263 148.62 209.396 148.62 209.396C148.62 209.396 147.82 208.955 146.758 208.955C145.036 208.955 142.624 210.116 141.807 216.199C132.567 216.252 124.606 225.712 124.836 232.399C125.064 239.084 129.405 270.912 135.514 276.461C137.562 278.321 142.199 278.621 144.986 278.621C145.863 278.621 146.556 278.592 146.928 278.572L148.968 294.199C143.838 295.243 140.222 296.557 140.222 296.557L140.893 297.129C138.835 297.872 137.082 298.771 135.962 299.853C132.258 303.432 125.543 321.875 119.477 351.972L75.7663 364.503C71.6898 350.727 70.2575 336.347 72.6475 322.193C80.7532 274.193 129.364 240.824 137.672 192.859C142.795 163.28 131.814 131.235 143.645 103.645C154.784 77.6734 184.396 63.1174 212.661 63.1174C212.712 63.1174 212.764 63.1174 212.815 63.1174C241.124 63.1721 268.063 75.4028 292.035 90.4628C314.519 104.588 335.299 121.388 358.16 134.853V138.811H253.577V469.521C251.396 469.955 249.2 470.34 246.995 470.676C239.932 471.752 232.824 472.273 225.724 472.273ZM157.556 456.28C150.647 452.943 143.962 449.124 137.571 444.864L141.748 429.872C141.748 429.872 150.738 429.872 156.139 429.872C156.46 430.217 156.983 441.177 157.556 456.28ZM108.141 419.815C102.744 413.979 97.7866 407.74 93.3466 401.144C91.8502 398.921 90.4086 396.652 89.0267 394.337L113.561 387.304C113.306 389.164 113.056 391.049 112.811 392.96C112.811 392.96 110.94 403.552 108.141 419.815Z" fill="#DFF1F4"/>
<path d="M572.468 526.785V259.466C576.248 254.186 580.7 249.637 586.565 246.885C590.205 245.177 594.1 244.394 598.021 244.394C609.358 244.394 620.94 250.936 627.384 260.608C636.057 273.625 636.77 290.624 633.204 305.853C629.637 321.084 622.236 335.084 615.521 349.212C608.806 363.34 602.624 378.141 601.789 393.761C600.414 419.526 613.716 444.829 610.063 470.37C608.011 484.726 600.669 497.897 591.442 509.082C585.925 515.773 579.621 521.925 572.468 526.785Z" fill="#FDECC0"/>
<path d="M333.096 583.689C170.331 583.689 38.3828 576.238 38.3828 567.043C38.3828 563.777 55.0369 560.731 83.8131 558.16C78.8792 559.469 70.8104 561.983 70.124 564.593C69.7036 566.189 75.8125 566.651 83.0099 566.651C92.8604 566.651 104.752 565.787 104.752 565.787L106.403 556.406C122.57 555.308 141.197 554.33 161.796 553.496L162.228 565.787C162.228 565.787 174.119 566.651 183.969 566.651C191.167 566.651 197.276 566.189 196.856 564.593C195.861 560.811 179.369 557.23 179.369 557.23L179.509 552.834C202.329 552.046 227.219 551.427 253.577 551.011V564.244H572.468V557.331C607.295 560.064 627.811 563.419 627.811 567.043C627.811 576.238 495.863 583.689 333.096 583.689Z" fill="#E3E5E4"/>
<path d="M253.577 564.244H572.468V138.811H253.577V564.244Z" fill="#2B5873"/>
<path d="M552.951 548.59H273.093V167.485V542.081H552.951V548.59Z" fill="#22485F"/>
<path d="M273.093 542.081H552.951V160.976H273.093V542.081Z" fill="white"/>
<path d="M252.176 165.29V137.411H280.056L252.176 165.29Z" fill="#D97A45"/>
<path d="M573.868 165.29V137.411H545.988L573.868 165.29Z" fill="#D97A45"/>
<path d="M252.176 538.853V566.732H280.056L252.176 538.853Z" fill="#D97A45"/>
<path d="M573.868 538.853V566.732H545.988L573.868 538.853Z" fill="#D97A45"/>
<path d="M413.023 149.293C402.019 149.293 393.099 154.379 393.099 143.377V141.687C393.099 130.683 402.019 121.765 413.023 121.765C424.025 121.765 432.945 130.683 432.945 141.687V143.377C432.945 154.379 424.025 149.293 413.023 149.293Z" fill="#3D9496"/>
<path d="M360.991 174.653H465.053V170.795H360.991V174.653Z" fill="#C9CDCC"/>
<path d="M358.16 170.795H467.886V133.908H358.16V170.795Z" fill="#3D9496"/>
<path d="M467.885 170.795H358.16V154.175H467.885V170.795Z" fill="#F49E48"/>
<path d="M339.378 269.874H301.091V231.586H339.378V269.874Z" fill="#A1D6E1"/>
<path d="M298.437 272.529H342.032V228.933H298.437V272.529ZM343.432 273.929H297.036V227.531H343.432V273.929Z" fill="#A1D6E1"/>
<path d="M339.378 328.535H301.091V290.249H339.378V328.535Z" fill="#A1D6E1"/>
<path d="M298.437 331.19H342.032V287.595H298.437V331.19ZM343.432 332.59H297.036V286.194H343.432V332.59Z" fill="#A1D6E1"/>
<path d="M339.378 387.197H301.091V348.911H339.378V387.197Z" fill="#A1D6E1"/>
<path d="M298.437 389.852H342.032V346.256H298.437V389.852ZM343.432 391.252H297.036V344.856H343.432V391.252Z" fill="#A1D6E1"/>
<path d="M316.82 264.138L294.716 242.268C293.187 240.754 293.175 238.287 294.687 236.759C296.203 235.228 298.67 235.219 300.198 236.73L316.511 252.872L342.402 224.275C343.843 222.68 346.308 222.555 347.903 224.002C349.498 225.444 349.62 227.908 348.175 229.503L316.82 264.138Z" fill="#3A809B"/>
<path d="M316.82 323.241L294.716 301.371C293.187 299.857 293.175 297.391 294.687 295.861C296.203 294.332 298.67 294.323 300.198 295.833L316.511 311.976L342.402 283.377C343.843 281.784 346.308 281.659 347.903 283.105C349.498 284.548 349.62 287.012 348.175 288.607L316.82 323.241Z" fill="#3A809B"/>
<path d="M316.82 380.944L294.716 359.075C293.187 357.56 293.175 355.094 294.687 353.566C296.203 352.034 298.67 352.027 300.198 353.535L316.511 369.68L342.402 341.082C343.843 339.487 346.308 339.362 347.903 340.807C349.498 342.251 349.62 344.715 348.175 346.31L316.82 380.944Z" fill="#3A809B"/>
<path d="M339.378 445.86H301.091V407.574H339.378V445.86Z" fill="#A1D6E1"/>
<path d="M298.437 448.514H342.032V404.919H298.437V448.514ZM343.432 449.915H297.036V403.519H343.432V449.915Z" fill="#A1D6E1"/>
<path d="M339.378 504.523H301.091V466.235H339.378V504.523Z" fill="#A1D6E1"/>
<path d="M298.437 507.177H342.032V463.582H298.437V507.177ZM343.432 508.578H297.036V462.182H343.432V508.578Z" fill="#A1D6E1"/>
<path d="M526.723 241.943H357.288V237.323H526.723V241.943Z" fill="#3A809B"/>
<path d="M526.723 253.04H357.288V248.419H526.723V253.04Z" fill="#3A809B"/>
<path d="M409.668 264.138H357.288V259.516H409.668V264.138Z" fill="#3A809B"/>
<path d="M526.723 299.867H357.288V295.247H526.723V299.867Z" fill="#3A809B"/>
<path d="M526.723 310.964H357.288V306.344H526.723V310.964Z" fill="#3A809B"/>
<path d="M468.003 322.062H357.288V317.442H468.003V322.062Z" fill="#3A809B"/>
<path d="M526.723 357.792H357.288V353.171H526.723V357.792Z" fill="#3A809B"/>
<path d="M502.209 368.889H357.288V364.269H502.209V368.889Z" fill="#3A809B"/>
<path d="M409.668 379.985H357.288V375.364H409.668V379.985Z" fill="#3A809B"/>
<path d="M526.723 415.715H357.288V411.095H526.723V415.715Z" fill="#3A809B"/>
<path d="M442.677 426.812H357.288V422.192H442.677V426.812Z" fill="#3A809B"/>
<path d="M526.723 473.639H357.288V469.02H526.723V473.639Z" fill="#3A809B"/>
<path d="M526.723 484.737H357.288V480.116H526.723V484.737Z" fill="#3A809B"/>
<path d="M480.829 495.834H357.288V491.214H480.829V495.834Z" fill="#3A809B"/>
<path d="M493.799 201.611H332.712V190.194H493.799V201.611Z" fill="#3A809B"/>
<path d="M417.607 130.649C417.607 133.181 415.555 135.233 413.023 135.233C410.491 135.233 408.438 133.181 408.438 130.649C408.438 128.117 410.491 126.064 413.023 126.064C415.555 126.064 417.607 128.117 417.607 130.649Z" fill="white"/>
<path d="M90.224 544.294L87.6099 557.23C87.6099 557.23 71.1188 560.811 70.124 564.593C69.1287 568.374 104.752 565.787 104.752 565.787L108.533 544.294H90.224Z" fill="#456293"/>
<path d="M103.263 552.341C103.047 552.341 102.831 552.339 102.617 552.334C99.4733 552.261 96.3405 551.743 93.3425 550.798C91.9405 550.355 90.5488 549.805 89.2515 549.106L89.6853 546.958C96.4681 547.654 100.975 547.853 103.914 547.853C105.899 547.853 107.169 547.762 107.939 547.671L107.172 552.03C105.885 552.25 104.567 552.341 103.263 552.341Z" fill="#3F5986"/>
<path d="M179.781 544.294L179.369 557.23C179.369 557.23 195.861 560.811 196.856 564.593C197.851 568.374 162.228 565.787 162.228 565.787L161.472 544.294H179.781Z" fill="#456293"/>
<path d="M166.059 553.522C164.845 553.522 163.236 553.386 161.787 553.226L161.591 547.645C163.415 547.869 167.175 548.262 171.067 548.262C174.157 548.262 177.332 548.015 179.688 547.238L179.648 548.469C175.551 551.626 172.248 552.968 167.029 553.483C166.752 553.51 166.423 553.522 166.059 553.522Z" fill="#3F5986"/>
<path d="M253.002 244.598C253.002 244.598 240.758 240.784 241.016 237.234C241.274 233.682 249.527 236.583 249.527 236.583C249.527 236.583 244.934 219.678 246.907 218.304C248.882 216.93 251.863 227.5 251.863 227.5C251.863 227.5 252.432 217.188 255.096 217.382C257.76 217.575 257.25 225.839 257.25 225.839C257.25 225.839 260.226 219.271 262.824 220.352C265.423 221.434 261.147 228.599 261.147 228.599C261.147 228.599 267.748 224.862 268.786 226.655C269.823 228.447 264.636 234.416 264.636 234.416C264.636 234.416 271.046 240.459 263.32 252.054C261.202 251.163 255.192 248.386 252.054 249.036L253.002 244.598Z" fill="#FAC0AA"/>
<path d="M173.571 295.92C173.571 295.92 228.972 300.818 250.153 247.098C265.283 244.819 265.283 255.503 265.283 255.503C265.283 255.503 244.333 334.168 179.339 323.864" fill="#FCD041"/>
<path d="M112.81 392.96C112.81 392.96 95.8235 489.167 87.6099 546.737C105.26 548.679 108.971 547.495 108.971 547.495L141.748 429.872C141.748 429.872 150.737 429.872 156.139 429.872C157.2 431.008 160.444 547.495 160.444 547.495C160.444 547.495 175.252 549.686 181.084 546.66C181.084 546.66 187.744 457.009 189.536 408.396L112.81 392.96Z" fill="#7285CB"/>
<path d="M154.355 419.489C139.112 419.489 123.874 416.613 109.636 411.155C111.587 399.895 112.811 392.96 112.811 392.96C127.074 408.001 146.959 411.655 162.91 411.656C177.979 411.656 189.536 408.396 189.536 408.396C189.466 410.307 189.388 412.279 189.303 414.309C181.002 416.805 172.443 418.436 163.798 419.119C160.655 419.367 157.507 419.489 154.355 419.489Z" fill="#677BBD"/>
<path d="M159.749 293.795C159.749 293.795 141.128 294.859 135.961 299.854C130.793 304.847 119.759 338.797 112.811 392.961C140.548 422.211 189.536 408.397 189.536 408.397C189.536 408.397 192.028 309.707 189.396 304.743C184.367 295.253 159.749 293.795 159.749 293.795Z" fill="#FCD041"/>
<path d="M141.543 394.276C139.519 394.276 137.466 394.198 135.391 394.03C129.366 393.546 120.639 390.991 114.138 387.139L190.366 365.286C190.298 370.226 190.219 375.064 190.139 379.599C178.812 386.566 161.519 394.278 141.543 394.276Z" fill="#F4AF3C"/>
<path d="M38.7167 398.52L35.2329 386.364C33.7345 381.139 36.7569 375.687 41.9834 374.188L216.635 324.119L225.545 355.2L50.8938 405.269C45.6667 406.768 40.2157 403.747 38.7167 398.52Z" fill="#DC6B59"/>
<path d="M198.811 353.073L194.739 338.868L200.527 337.209L204.599 351.413L198.811 353.073Z" fill="#EAA396"/>
<path d="M57.8673 393.479L53.7949 379.274L59.1725 377.733L63.2444 391.938L57.8673 393.479Z" fill="#EAA396"/>
<path d="M18.6454 433.098L-0.110352 367.674L46.6277 354.274L65.3834 419.698L18.6454 433.098Z" fill="#2B5873"/>
<path d="M65.8379 400.985L63.2441 391.937L198.811 353.073L201.405 362.121L190.365 365.285L114.138 387.139L113.56 387.304L89.0264 394.337L65.8379 400.985Z" fill="#C74647"/>
<path d="M207.192 360.462L204.599 351.414L222.951 346.153L225.545 355.201L207.192 360.462Z" fill="#C74647"/>
<path d="M201.405 362.122L198.811 353.074L204.599 351.414L207.192 360.462L201.405 362.122Z" fill="#D36373"/>
<path d="M60.4609 402.527L57.8672 393.479L63.2443 391.938L65.838 400.986L60.4609 402.527Z" fill="#D36373"/>
<path d="M48.1754 405.653C44.0317 405.653 40.2093 403.017 38.8447 398.932L57.8671 393.479L60.4609 402.527L50.8937 405.269C49.9874 405.529 49.0734 405.653 48.1754 405.653Z" fill="#1F3952"/>
<path d="M59.1725 377.732L56.9277 369.903L192.495 331.04L194.739 338.868L59.1725 377.732ZM200.527 337.21L198.281 329.38L216.635 324.119L218.879 331.948L200.527 337.21Z" fill="#D35B52"/>
<path d="M194.739 338.868L192.495 331.04L198.281 329.38L200.527 337.21L194.739 338.868Z" fill="#E08988"/>
<path d="M53.795 379.273L51.5508 371.445L56.9278 369.903L59.1726 377.732L53.795 379.273Z" fill="#E08988"/>
<path d="M34.9049 384.689C34.8674 384.339 34.8486 383.988 34.8491 383.64C34.8518 379.363 37.6653 375.425 41.9835 374.188L51.5507 371.445L53.795 379.273L34.9049 384.689Z" fill="#274C67"/>
<path d="M216.635 324.119L246.677 332.324L225.545 355.2L216.635 324.119Z" fill="#FCE892"/>
<path d="M260.488 349.081C250.149 352.044 239.365 346.067 236.401 335.728C233.437 325.389 239.416 314.605 249.755 311.64C260.093 308.677 270.879 314.656 273.841 324.995C276.807 335.333 270.828 346.117 260.488 349.081Z" fill="#3A809B"/>
<path d="M132.262 372.335C132.262 372.335 141.461 371.859 145.587 373.603C149.709 375.348 151.707 376.377 151.707 376.377L159.935 374.019C159.935 374.019 157.948 384.853 148.113 385.645C138.279 386.439 129.882 383.596 129.882 383.596L132.262 372.335Z" fill="#FAC0AA"/>
<path d="M149.105 295.251C149.105 295.251 91.004 298.834 86.0972 350.134C82.7222 385.413 131.918 387.195 131.918 387.195L134.223 371.559C134.223 371.559 113.567 363.003 113.567 350.37C113.567 337.737 135.961 328.393 135.961 328.393L149.105 295.251Z" fill="#FCD041"/>
<path d="M160.429 292.949C150.141 292.949 140.221 296.558 140.221 296.558L164.224 316.939L183.553 295.773C183.553 295.773 176.953 292.949 160.429 292.949Z" fill="#F79942"/>
<path d="M147.228 278.553C147.228 278.553 138.54 279.211 135.513 276.461C129.405 270.912 125.064 239.084 124.835 232.399C124.606 225.712 132.567 216.252 141.807 216.199C143.128 206.361 148.62 209.396 148.62 209.396C148.62 209.396 146.035 205.263 149.283 202.296C151.125 205.816 152.179 208.536 152.179 208.536C152.179 208.536 157.308 204.321 168.931 206.468C173.676 207.344 177.68 206.935 180.945 206.525C185.677 205.931 188.855 205.337 190.479 208.66C193.225 214.276 197.737 231.487 190.219 234.764C182.7 238.041 143.768 258.583 147.228 278.553Z" fill="#24325E"/>
<path d="M145.915 270.807L149.573 298.833L163.988 311.105L175.997 298.833V280.769L145.915 270.807Z" fill="#FAC0AA"/>
<path d="M168.558 292.868C164.45 292.868 160.395 291.269 157.032 288.868C154.203 286.848 151.75 284.207 150.355 281.023C149.23 278.449 148.828 275.615 148.718 272.81C148.704 272.45 148.695 272.088 148.691 271.727L175.998 280.769V290.806C174.208 291.899 172.15 292.591 170.064 292.796C169.563 292.845 169.06 292.868 168.558 292.868Z" fill="#F89F97"/>
<path d="M151.263 221.874C141.605 226.005 132.41 261.685 144.441 277.063C156.473 292.443 185.292 289.529 195.313 277.806C203.475 268.259 191.503 204.663 151.263 221.874Z" fill="#FAC0AA"/>
<path d="M179.852 243.343C178.159 244.153 181.191 260.861 181.191 260.861C183.477 261.157 190.603 257.351 190.603 255.858C190.603 255.858 183.075 241.805 179.852 243.343Z" fill="#F78D81"/>
<path d="M132.52 258.399C132.677 255.603 135.072 253.41 137.629 252.27C140.187 251.129 144.196 257.669 146.992 257.521C151.549 257.279 155.279 255.049 155.783 253.194C156.14 251.881 155.836 236.443 157.769 234.231C161.06 230.467 166.737 230.263 171.737 230.302C176.737 230.339 182.444 230.015 185.599 226.138C186.325 225.243 186.872 224.179 187.021 223.038C187.256 221.239 186.485 219.443 185.416 217.979C181.748 212.966 174.92 211.279 168.717 211.625C158.636 212.186 148.989 217.289 142.449 224.981C135.907 232.671 132.44 242.798 132.36 252.895" fill="#24325E"/>
<path d="M148.641 260.189C148.641 260.189 149.841 241.533 140.264 244.228C130.686 246.923 132.952 265.697 143.852 265.335" fill="#FAC0AA"/>
<path d="M164.075 242.827C163.645 243.774 164.877 246.283 166.223 246.079C167.568 245.874 174.149 245.024 174.809 243.476C175.468 241.93 174.328 240.03 173.416 239.714C172.504 239.396 164.608 241.654 164.075 242.827Z" fill="#24325E"/>
<path d="M184.661 237.795C184.183 238.687 185.013 241.319 186.225 241.266C187.437 241.211 193.351 241.1 194.095 239.636C194.839 238.172 194.027 236.158 193.252 235.742C192.477 235.326 185.255 236.69 184.661 237.795Z" fill="#24325E"/>
<path d="M172.616 253.847C173.147 254.086 173.677 253.998 174.176 253.862C174.931 253.654 175.736 253.235 175.947 252.182C176.125 251.287 175.809 250.203 175.4 249.3C175.177 248.81 174.921 248.335 174.604 247.963C173.685 246.883 172.36 246.927 171.681 247.94C170.816 249.231 170.911 253.084 172.616 253.847Z" fill="#132B38"/>
<path d="M188.852 249.921C189.384 250.16 189.915 250.072 190.412 249.935C191.168 249.728 191.972 249.308 192.183 248.256C192.361 247.361 192.045 246.277 191.636 245.375C191.413 244.884 191.157 244.409 190.84 244.036C189.921 242.957 188.596 243.001 187.917 244.013C187.052 245.305 187.147 249.157 188.852 249.921Z" fill="#132B38"/>
<path d="M145.904 252.334C145.768 250.427 144.62 248.599 142.913 247.742C141.711 247.139 140.177 247.052 139.068 247.812C137.957 248.572 137.521 250.288 138.365 251.335C138.792 251.866 139.489 252.208 139.689 252.86C139.881 253.487 139.531 254.135 139.261 254.734C138.701 255.982 138.528 257.602 139.472 258.591C140.041 259.188 140.953 259.42 141.751 259.203C144.193 258.536 146.069 254.643 145.904 252.334Z" fill="#F78D81"/>
<path d="M140.8 373.796C140.8 373.796 148.492 370.265 150.446 370.013C152.4 369.76 153.409 371.512 152.904 372.528C152.4 373.543 146.917 376.821 146.917 376.821" fill="#FAC0AA"/>
<path d="M613.207 200.496C613.207 205.091 609.482 208.816 604.887 208.816C600.291 208.816 596.567 205.091 596.567 200.496C596.567 195.902 600.291 192.176 604.887 192.176C609.482 192.176 613.207 195.902 613.207 200.496Z" fill="#E34B53"/>
<path d="M597.496 113.829C597.496 118.211 593.943 121.765 589.561 121.765C585.177 121.765 581.625 118.211 581.625 113.829C581.625 109.446 585.177 105.894 589.561 105.894C593.943 105.894 597.496 109.446 597.496 113.829Z" fill="#2B5873"/>
<path d="M524.916 74.082C527.326 76.49 527.326 80.394 524.916 82.8034C522.508 85.2114 518.604 85.2114 516.196 82.8034C513.787 80.394 513.787 76.49 516.196 74.082C518.604 71.6727 522.508 71.6727 524.916 74.082Z" fill="#3D9496"/>
<path d="M623.733 378.229C626.143 380.638 626.143 384.541 623.733 386.95C621.325 389.358 617.421 389.358 615.012 386.95C612.604 384.541 612.604 380.638 615.012 378.229C617.421 375.819 621.325 375.819 623.733 378.229Z" fill="#3D9496"/>
<path d="M465.737 63.1727C465.737 66.3981 463.123 69.0127 459.899 69.0127C456.673 69.0127 454.06 66.3981 454.06 63.1727C454.06 59.9487 456.673 57.334 459.899 57.334C463.123 57.334 465.737 59.9487 465.737 63.1727Z" fill="#3D9496"/>
<path d="M57.0673 465.017C57.0673 468.243 54.4528 470.857 51.2283 470.857C48.0028 470.857 45.3887 468.243 45.3887 465.017C45.3887 461.793 48.0028 459.179 51.2283 459.179C54.4528 459.179 57.0673 461.793 57.0673 465.017Z" fill="#3D9496"/>
<path d="M507.867 116.656C507.867 118.219 506.6 119.484 505.037 119.484C503.476 119.484 502.209 118.219 502.209 116.656C502.209 115.095 503.476 113.828 505.037 113.828C506.6 113.828 507.867 115.095 507.867 116.656Z" fill="#3A809B"/>
<path d="M587.464 60.2519C587.464 61.8652 586.158 63.1719 584.544 63.1719C582.932 63.1719 581.625 61.8652 581.625 60.2519C581.625 58.6399 582.932 57.3332 584.544 57.3332C586.158 57.3332 587.464 58.6399 587.464 60.2519Z" fill="#3A809B"/>
<path d="M641.06 240.459C641.06 242.071 639.752 243.379 638.14 243.379C636.527 243.379 635.22 242.071 635.22 240.459C635.22 238.847 636.527 237.539 638.14 237.539C639.752 237.539 641.06 238.847 641.06 240.459Z" fill="#3A809B"/>
<path d="M360.991 84.346C360.991 87.6073 358.348 90.25 355.088 90.25C351.827 90.25 349.183 87.6073 349.183 84.346C349.183 81.0846 351.827 78.442 355.088 78.442C358.348 78.442 360.991 81.0846 360.991 84.346Z" fill="#D97A45"/>
<path d="M211.712 153.546C211.712 156.418 209.383 158.747 206.509 158.747C203.637 158.747 201.308 156.418 201.308 153.546C201.308 150.672 203.637 148.343 206.509 148.343C209.383 148.343 211.712 150.672 211.712 153.546Z" fill="#3A809B"/>
<path d="M211.712 102.612C211.712 106.472 208.583 109.602 204.722 109.602C200.86 109.602 197.731 106.472 197.731 102.612C197.731 98.7509 200.86 95.6202 204.722 95.6202C208.583 95.6202 211.712 98.7509 211.712 102.612Z" fill="#3D9496"/>
<path d="M108.534 176.69C108.534 180.399 105.526 183.407 101.815 183.407C98.1049 183.407 95.0981 180.399 95.0981 176.69C95.0981 172.979 98.1049 169.973 101.815 169.973C105.526 169.973 108.534 172.979 108.534 176.69Z" fill="#3D9496"/>
<path d="M175.997 156.358C175.997 158.57 174.204 160.363 171.991 160.363C169.779 160.363 167.985 158.57 167.985 156.358C167.985 154.145 169.779 152.351 171.991 152.351C174.204 152.351 175.997 154.145 175.997 156.358Z" fill="#2B5873"/>
<path d="M89.9372 435.418C89.9372 437.631 88.1434 439.425 85.9314 439.425C83.7185 439.425 81.9253 437.631 81.9253 435.418C81.9253 433.206 83.7185 431.414 85.9314 431.414C88.1434 431.414 89.9372 433.206 89.9372 435.418Z" fill="#2B5873"/>
<path d="M112.81 111.391C112.81 114.427 110.349 116.889 107.312 116.889C104.276 116.889 101.815 114.427 101.815 111.391C101.815 108.355 104.276 105.894 107.312 105.894C110.349 105.894 112.81 108.355 112.81 111.391Z" fill="#D97A45"/>
<path d="M55.9178 262.051C55.9178 264.64 53.8178 266.74 51.2282 266.74C48.6381 266.74 46.5381 264.64 46.5381 262.051C46.5381 259.46 48.6381 257.362 51.2282 257.362C53.8178 257.362 55.9178 259.46 55.9178 262.051Z" fill="#E34B53"/>
</g>
<defs>
<clipPath id="clip0">
<rect width="666.667" height="666.667" fill="white"/>
</clipPath>
</defs>
</svg>
