<svg width="400" height="480" viewBox="0 0 400 480" fill="none" xmlns="http://www.w3.org/2000/svg">
<g filter="url(#filter0_d)">
<path d="M30 38C30 33.5817 33.5817 30 38 30H362C366.418 30 370 33.5817 370 38V442C370 446.418 366.418 450 362 450H38C33.5817 450 30 446.418 30 442V38Z" fill="white"/>
</g>
<path d="M30 390H370V442C370 446.418 366.418 450 362 450H38C33.5817 450 30 446.418 30 442V390Z" fill="white"/>
<path fill-rule="evenodd" clip-rule="evenodd" d="M334.381 413.483C334.787 413.152 335.384 413.176 335.762 413.554L341.604 419.396C341.8 419.592 341.906 419.854 341.906 420.126C341.906 420.397 341.8 420.659 341.604 420.856L335.762 426.698C335.358 427.101 334.705 427.101 334.303 426.698C333.899 426.294 333.899 425.641 334.303 425.238L339.415 420.126L334.303 415.013C333.924 414.635 333.901 414.037 334.232 413.632L334.303 413.554L334.381 413.483Z" fill="#343A40"/>
<path d="M260.297 426V414.625H264.195C265.482 414.625 266.461 414.883 267.133 415.398C267.805 415.914 268.141 416.682 268.141 417.703C268.141 418.224 268 418.693 267.719 419.109C267.438 419.526 267.026 419.849 266.484 420.078C267.099 420.245 267.573 420.56 267.906 421.023C268.245 421.482 268.414 422.034 268.414 422.68C268.414 423.747 268.07 424.568 267.383 425.141C266.701 425.714 265.721 426 264.445 426H260.297ZM262.273 420.867V424.422H264.469C265.089 424.422 265.573 424.268 265.922 423.961C266.271 423.654 266.445 423.227 266.445 422.68C266.445 421.497 265.841 420.893 264.633 420.867H262.273ZM262.273 419.414H264.211C264.826 419.414 265.305 419.276 265.648 419C265.997 418.719 266.172 418.323 266.172 417.812C266.172 417.25 266.01 416.844 265.688 416.594C265.37 416.344 264.872 416.219 264.195 416.219H262.273V419.414ZM275.258 426C275.174 425.839 275.102 425.576 275.039 425.211C274.435 425.841 273.695 426.156 272.82 426.156C271.971 426.156 271.279 425.914 270.742 425.43C270.206 424.945 269.938 424.346 269.938 423.633C269.938 422.732 270.271 422.042 270.938 421.562C271.609 421.078 272.568 420.836 273.812 420.836H274.977V420.281C274.977 419.844 274.854 419.495 274.609 419.234C274.365 418.969 273.992 418.836 273.492 418.836C273.06 418.836 272.706 418.945 272.43 419.164C272.154 419.378 272.016 419.651 272.016 419.984H270.117C270.117 419.521 270.271 419.089 270.578 418.688C270.885 418.281 271.302 417.964 271.828 417.734C272.359 417.505 272.951 417.391 273.602 417.391C274.591 417.391 275.38 417.641 275.969 418.141C276.557 418.635 276.859 419.333 276.875 420.234V424.047C276.875 424.807 276.982 425.414 277.195 425.867V426H275.258ZM273.172 424.633C273.547 424.633 273.898 424.542 274.227 424.359C274.56 424.177 274.81 423.932 274.977 423.625V422.031H273.953C273.25 422.031 272.721 422.154 272.367 422.398C272.013 422.643 271.836 422.99 271.836 423.438C271.836 423.802 271.956 424.094 272.195 424.312C272.44 424.526 272.766 424.633 273.172 424.633ZM281.242 415.492V417.547H282.734V418.953H281.242V423.672C281.242 423.995 281.305 424.229 281.43 424.375C281.56 424.516 281.789 424.586 282.117 424.586C282.336 424.586 282.557 424.56 282.781 424.508V425.977C282.349 426.096 281.932 426.156 281.531 426.156C280.073 426.156 279.344 425.352 279.344 423.742V418.953H277.953V417.547H279.344V415.492H281.242ZM289.242 426C289.159 425.839 289.086 425.576 289.023 425.211C288.419 425.841 287.68 426.156 286.805 426.156C285.956 426.156 285.263 425.914 284.727 425.43C284.19 424.945 283.922 424.346 283.922 423.633C283.922 422.732 284.255 422.042 284.922 421.562C285.594 421.078 286.552 420.836 287.797 420.836H288.961V420.281C288.961 419.844 288.839 419.495 288.594 419.234C288.349 418.969 287.977 418.836 287.477 418.836C287.044 418.836 286.69 418.945 286.414 419.164C286.138 419.378 286 419.651 286 419.984H284.102C284.102 419.521 284.255 419.089 284.562 418.688C284.87 418.281 285.286 417.964 285.812 417.734C286.344 417.505 286.935 417.391 287.586 417.391C288.576 417.391 289.365 417.641 289.953 418.141C290.542 418.635 290.844 419.333 290.859 420.234V424.047C290.859 424.807 290.966 425.414 291.18 425.867V426H289.242ZM287.156 424.633C287.531 424.633 287.883 424.542 288.211 424.359C288.544 424.177 288.794 423.932 288.961 423.625V422.031H287.938C287.234 422.031 286.706 422.154 286.352 422.398C285.997 422.643 285.82 422.99 285.82 423.438C285.82 423.802 285.94 424.094 286.18 424.312C286.424 424.526 286.75 424.633 287.156 424.633ZM293.516 426V418.953H292.227V417.547H293.516V416.773C293.516 415.836 293.776 415.112 294.297 414.602C294.818 414.091 295.547 413.836 296.484 413.836C296.818 413.836 297.172 413.883 297.547 413.977L297.5 415.461C297.292 415.419 297.049 415.398 296.773 415.398C295.867 415.398 295.414 415.865 295.414 416.797V417.547H297.133V418.953H295.414V426H293.516ZM303.258 423.703C303.258 423.365 303.117 423.107 302.836 422.93C302.56 422.753 302.099 422.596 301.453 422.461C300.807 422.326 300.268 422.154 299.836 421.945C298.888 421.487 298.414 420.823 298.414 419.953C298.414 419.224 298.721 418.615 299.336 418.125C299.951 417.635 300.732 417.391 301.68 417.391C302.69 417.391 303.505 417.641 304.125 418.141C304.75 418.641 305.062 419.289 305.062 420.086H303.164C303.164 419.721 303.029 419.419 302.758 419.18C302.487 418.935 302.128 418.812 301.68 418.812C301.263 418.812 300.922 418.909 300.656 419.102C300.396 419.294 300.266 419.552 300.266 419.875C300.266 420.167 300.388 420.393 300.633 420.555C300.878 420.716 301.372 420.88 302.117 421.047C302.862 421.208 303.445 421.404 303.867 421.633C304.294 421.857 304.609 422.128 304.812 422.445C305.021 422.763 305.125 423.148 305.125 423.602C305.125 424.362 304.81 424.979 304.18 425.453C303.549 425.922 302.724 426.156 301.703 426.156C301.01 426.156 300.393 426.031 299.852 425.781C299.31 425.531 298.888 425.188 298.586 424.75C298.284 424.312 298.133 423.841 298.133 423.336H299.977C300.003 423.784 300.172 424.13 300.484 424.375C300.797 424.615 301.211 424.734 301.727 424.734C302.227 424.734 302.607 424.641 302.867 424.453C303.128 424.26 303.258 424.01 303.258 423.703ZM308.805 426H306.906V417.547H308.805V426ZM306.789 415.352C306.789 415.06 306.88 414.818 307.062 414.625C307.25 414.432 307.516 414.336 307.859 414.336C308.203 414.336 308.469 414.432 308.656 414.625C308.844 414.818 308.938 415.06 308.938 415.352C308.938 415.638 308.844 415.878 308.656 416.07C308.469 416.258 308.203 416.352 307.859 416.352C307.516 416.352 307.25 416.258 307.062 416.07C306.88 415.878 306.789 415.638 306.789 415.352ZM312.898 426H311V414H312.898V426Z" fill="#343A40"/>
<path d="M30 390H370" stroke="#ECF0F2"/>
<path d="M30 105H370" stroke="#ECF0F2"/>
<path d="M103.12 67H104.472V58.608L108.384 67H109.144L113.056 58.608V66.992H114.408V55.48H113.096L108.768 64.656L104.416 55.48H103.12V67ZM119.931 67.224C121.19 67.224 122.15 66.7787 122.811 65.888V67H124.083V58.36H122.651V62.912C122.651 63.9093 122.433 64.6533 121.995 65.144C121.563 65.6293 120.99 65.872 120.275 65.872C119.667 65.872 119.193 65.72 118.851 65.416C118.515 65.112 118.278 64.7173 118.139 64.232C118.001 63.7413 117.931 63.2267 117.931 62.688V58.36H116.491V63.136C116.491 63.5467 116.539 63.9893 116.635 64.464C116.737 64.9333 116.913 65.3787 117.163 65.8C117.419 66.216 117.771 66.5573 118.219 66.824C118.667 67.0907 119.238 67.224 119.931 67.224ZM126.323 67H127.755V62.664C127.755 62.152 127.824 61.6587 127.963 61.184C128.102 60.7093 128.382 60.3227 128.803 60.024C129.102 59.8053 129.43 59.6773 129.787 59.64C130.15 59.6027 130.48 59.6213 130.779 59.696V58.36C130.395 58.2747 129.974 58.2747 129.515 58.36C129.056 58.4453 128.662 58.6213 128.331 58.888C128.043 59.0907 127.798 59.3707 127.595 59.728V58.36H126.323V67ZM135.816 67.24C136.674 67.24 137.413 67.048 138.032 66.664C138.656 66.28 139.136 65.744 139.472 65.056C139.813 64.368 139.984 63.5733 139.984 62.672C139.984 61.7813 139.816 60.9947 139.48 60.312C139.149 59.624 138.672 59.088 138.048 58.704C137.424 58.3147 136.68 58.12 135.816 58.12C134.973 58.12 134.24 58.312 133.616 58.696C132.992 59.0747 132.509 59.6053 132.168 60.288C131.826 60.9707 131.656 61.7653 131.656 62.672C131.656 63.5627 131.821 64.352 132.152 65.04C132.488 65.728 132.968 66.2667 133.592 66.656C134.216 67.0453 134.957 67.24 135.816 67.24ZM135.816 65.888C134.946 65.888 134.288 65.5973 133.84 65.016C133.392 64.4293 133.168 63.648 133.168 62.672C133.168 61.728 133.384 60.96 133.816 60.368C134.248 59.7707 134.914 59.472 135.816 59.472C136.701 59.472 137.365 59.7627 137.808 60.344C138.25 60.9253 138.472 61.7013 138.472 62.672C138.472 63.6213 138.25 64.3947 137.808 64.992C137.37 65.5893 136.706 65.888 135.816 65.888ZM142.209 56.832H143.633V55.36H142.209V56.832ZM140.465 70.84H141.465C142.91 70.84 143.633 70.1147 143.633 68.664V58.36H142.209V68.176C142.209 68.6293 142.1 68.96 141.881 69.168C141.662 69.376 141.345 69.48 140.929 69.48H140.465V70.84ZM148.404 67.24C149.844 67.24 150.911 66.712 151.604 65.656V67H152.868V61.656C152.868 61.3147 152.852 60.9893 152.82 60.68C152.788 60.3653 152.711 60.0747 152.588 59.808C152.343 59.2427 151.937 58.8213 151.372 58.544C150.807 58.2613 150.135 58.12 149.356 58.12C148.38 58.12 147.591 58.336 146.988 58.768C146.391 59.2 145.991 59.7947 145.788 60.552L147.14 60.96C147.295 60.432 147.569 60.048 147.964 59.808C148.359 59.568 148.817 59.448 149.34 59.448C150.087 59.448 150.623 59.616 150.948 59.952C151.279 60.2827 151.452 60.792 151.468 61.48C150.828 61.5707 150.156 61.6667 149.452 61.768C148.753 61.864 148.132 61.984 147.588 62.128C146.932 62.32 146.415 62.6213 146.036 63.032C145.657 63.4373 145.468 63.9813 145.468 64.664C145.468 65.128 145.577 65.5547 145.796 65.944C146.02 66.3333 146.348 66.648 146.78 66.888C147.217 67.1227 147.759 67.24 148.404 67.24ZM148.62 66.048C148.007 66.048 147.564 65.9067 147.292 65.624C147.02 65.336 146.884 65.0133 146.884 64.656C146.884 64.2507 147.017 63.9413 147.284 63.728C147.556 63.5093 147.871 63.344 148.228 63.232C148.649 63.1147 149.14 63.016 149.7 62.936C150.26 62.856 150.844 62.776 151.452 62.696C151.452 62.8933 151.441 63.1173 151.42 63.368C151.404 63.6187 151.367 63.848 151.308 64.056C151.207 64.5893 150.924 65.056 150.46 65.456C150.001 65.8507 149.388 66.048 148.62 66.048ZM157.404 67.24C158.844 67.24 159.911 66.712 160.604 65.656V67H161.868V61.656C161.868 61.3147 161.852 60.9893 161.82 60.68C161.788 60.3653 161.711 60.0747 161.588 59.808C161.343 59.2427 160.937 58.8213 160.372 58.544C159.807 58.2613 159.135 58.12 158.356 58.12C157.38 58.12 156.591 58.336 155.988 58.768C155.391 59.2 154.991 59.7947 154.788 60.552L156.14 60.96C156.295 60.432 156.569 60.048 156.964 59.808C157.359 59.568 157.817 59.448 158.34 59.448C159.087 59.448 159.623 59.616 159.948 59.952C160.279 60.2827 160.452 60.792 160.468 61.48C159.828 61.5707 159.156 61.6667 158.452 61.768C157.753 61.864 157.132 61.984 156.588 62.128C155.932 62.32 155.415 62.6213 155.036 63.032C154.657 63.4373 154.468 63.9813 154.468 64.664C154.468 65.128 154.577 65.5547 154.796 65.944C155.02 66.3333 155.348 66.648 155.78 66.888C156.217 67.1227 156.759 67.24 157.404 67.24ZM157.62 66.048C157.007 66.048 156.564 65.9067 156.292 65.624C156.02 65.336 155.884 65.0133 155.884 64.656C155.884 64.2507 156.017 63.9413 156.284 63.728C156.556 63.5093 156.871 63.344 157.228 63.232C157.649 63.1147 158.14 63.016 158.7 62.936C159.26 62.856 159.844 62.776 160.452 62.696C160.452 62.8933 160.441 63.1173 160.42 63.368C160.404 63.6187 160.367 63.848 160.308 64.056C160.207 64.5893 159.924 65.056 159.46 65.456C159.001 65.8507 158.388 66.048 157.62 66.048ZM168.772 67V65.776C168.18 65.8667 167.673 65.8827 167.252 65.824C166.836 65.7653 166.532 65.5653 166.34 65.224C166.239 65.0427 166.183 64.8293 166.172 64.584C166.167 64.3333 166.164 64.0293 166.164 63.672V59.536H168.772V58.36H166.164V55.96H164.74V58.36H162.988V59.536H164.74V63.736C164.74 64.184 164.745 64.584 164.756 64.936C164.772 65.2827 164.865 65.624 165.036 65.96C165.239 66.3493 165.535 66.6373 165.924 66.824C166.313 67.0053 166.756 67.104 167.252 67.12C167.753 67.1413 168.26 67.1013 168.772 67ZM170.686 67H172.11V55.24H170.686V67ZM176.967 67.24C178.407 67.24 179.473 66.712 180.167 65.656V67H181.431V61.656C181.431 61.3147 181.415 60.9893 181.383 60.68C181.351 60.3653 181.273 60.0747 181.151 59.808C180.905 59.2427 180.5 58.8213 179.935 58.544C179.369 58.2613 178.697 58.12 177.919 58.12C176.943 58.12 176.153 58.336 175.551 58.768C174.953 59.2 174.553 59.7947 174.351 60.552L175.703 60.96C175.857 60.432 176.132 60.048 176.527 59.808C176.921 59.568 177.38 59.448 177.903 59.448C178.649 59.448 179.185 59.616 179.511 59.952C179.841 60.2827 180.015 60.792 180.031 61.48C179.391 61.5707 178.719 61.6667 178.015 61.768C177.316 61.864 176.695 61.984 176.151 62.128C175.495 62.32 174.977 62.6213 174.599 63.032C174.22 63.4373 174.031 63.9813 174.031 64.664C174.031 65.128 174.14 65.5547 174.359 65.944C174.583 66.3333 174.911 66.648 175.343 66.888C175.78 67.1227 176.321 67.24 176.967 67.24ZM177.183 66.048C176.569 66.048 176.127 65.9067 175.855 65.624C175.583 65.336 175.447 65.0133 175.447 64.656C175.447 64.2507 175.58 63.9413 175.847 63.728C176.119 63.5093 176.433 63.344 176.791 63.232C177.212 63.1147 177.703 63.016 178.263 62.936C178.823 62.856 179.407 62.776 180.015 62.696C180.015 62.8933 180.004 63.1173 179.983 63.368C179.967 63.6187 179.929 63.848 179.871 64.056C179.769 64.5893 179.487 65.056 179.023 65.456C178.564 65.8507 177.951 66.048 177.183 66.048ZM183.511 67H184.943V62.664C184.943 62.152 185.012 61.6587 185.151 61.184C185.289 60.7093 185.569 60.3227 185.991 60.024C186.289 59.8053 186.617 59.6773 186.975 59.64C187.337 59.6027 187.668 59.6213 187.967 59.696V58.36C187.583 58.2747 187.161 58.2747 186.703 58.36C186.244 58.4453 185.849 58.6213 185.519 58.888C185.231 59.0907 184.985 59.3707 184.783 59.728V58.36H183.511V67ZM195.947 67.232C197.024 67.232 197.869 66.9947 198.483 66.52C199.096 66.0453 199.403 65.3893 199.403 64.552C199.403 64.104 199.309 63.728 199.123 63.424C198.936 63.1147 198.621 62.848 198.179 62.624C197.741 62.3947 197.141 62.184 196.379 61.992C195.701 61.8213 195.184 61.6693 194.827 61.536C194.475 61.4027 194.232 61.2613 194.099 61.112C193.971 60.9627 193.907 60.784 193.907 60.576C193.907 60.208 194.08 59.9147 194.427 59.696C194.779 59.4773 195.235 59.376 195.795 59.392C196.381 59.408 196.864 59.552 197.243 59.824C197.621 60.0907 197.845 60.4533 197.915 60.912L199.371 60.648C199.28 59.8853 198.907 59.2747 198.251 58.816C197.6 58.352 196.781 58.12 195.795 58.12C194.797 58.12 193.995 58.352 193.387 58.816C192.779 59.2747 192.475 59.8853 192.475 60.648C192.475 61.0587 192.565 61.408 192.747 61.696C192.933 61.984 193.245 62.2373 193.683 62.456C194.125 62.6747 194.728 62.8853 195.491 63.088C196.195 63.2747 196.72 63.4373 197.067 63.576C197.419 63.7093 197.651 63.8507 197.763 64C197.875 64.1493 197.931 64.3467 197.931 64.592C197.931 65.0133 197.76 65.3467 197.419 65.592C197.083 65.8373 196.621 65.96 196.035 65.96C195.411 65.96 194.888 65.824 194.467 65.552C194.045 65.2747 193.776 64.9013 193.659 64.432L192.203 64.664C192.352 65.4747 192.755 66.1067 193.411 66.56C194.072 67.008 194.917 67.232 195.947 67.232ZM205.991 67V65.776C205.399 65.8667 204.892 65.8827 204.471 65.824C204.055 65.7653 203.751 65.5653 203.559 65.224C203.458 65.0427 203.402 64.8293 203.391 64.584C203.386 64.3333 203.383 64.0293 203.383 63.672V59.536H205.991V58.36H203.383V55.96H201.959V58.36H200.207V59.536H201.959V63.736C201.959 64.184 201.964 64.584 201.975 64.936C201.991 65.2827 202.084 65.624 202.255 65.96C202.458 66.3493 202.754 66.6373 203.143 66.824C203.532 67.0053 203.975 67.104 204.471 67.12C204.972 67.1413 205.479 67.1013 205.991 67ZM210.201 67.24C211.641 67.24 212.708 66.712 213.401 65.656V67H214.665V61.656C214.665 61.3147 214.649 60.9893 214.617 60.68C214.585 60.3653 214.508 60.0747 214.385 59.808C214.14 59.2427 213.734 58.8213 213.169 58.544C212.604 58.2613 211.932 58.12 211.153 58.12C210.177 58.12 209.388 58.336 208.785 58.768C208.188 59.2 207.788 59.7947 207.585 60.552L208.937 60.96C209.092 60.432 209.366 60.048 209.761 59.808C210.156 59.568 210.614 59.448 211.137 59.448C211.884 59.448 212.42 59.616 212.745 59.952C213.076 60.2827 213.249 60.792 213.265 61.48C212.625 61.5707 211.953 61.6667 211.249 61.768C210.55 61.864 209.929 61.984 209.385 62.128C208.729 62.32 208.212 62.6213 207.833 63.032C207.454 63.4373 207.265 63.9813 207.265 64.664C207.265 65.128 207.374 65.5547 207.593 65.944C207.817 66.3333 208.145 66.648 208.577 66.888C209.014 67.1227 209.556 67.24 210.201 67.24ZM210.417 66.048C209.804 66.048 209.361 65.9067 209.089 65.624C208.817 65.336 208.681 65.0133 208.681 64.656C208.681 64.2507 208.814 63.9413 209.081 63.728C209.353 63.5093 209.668 63.344 210.025 63.232C210.446 63.1147 210.937 63.016 211.497 62.936C212.057 62.856 212.641 62.776 213.249 62.696C213.249 62.8933 213.238 63.1173 213.217 63.368C213.201 63.6187 213.164 63.848 213.105 64.056C213.004 64.5893 212.721 65.056 212.257 65.456C211.798 65.8507 211.185 66.048 210.417 66.048ZM221.569 67V65.776C220.977 65.8667 220.47 65.8827 220.049 65.824C219.633 65.7653 219.329 65.5653 219.137 65.224C219.036 65.0427 218.98 64.8293 218.969 64.584C218.964 64.3333 218.961 64.0293 218.961 63.672V59.536H221.569V58.36H218.961V55.96H217.537V58.36H215.785V59.536H217.537V63.736C217.537 64.184 217.542 64.584 217.553 64.936C217.569 65.2827 217.662 65.624 217.833 65.96C218.036 66.3493 218.332 66.6373 218.721 66.824C219.11 67.0053 219.553 67.104 220.049 67.12C220.55 67.1413 221.057 67.1013 221.569 67ZM223.483 56.832H224.907V55.36H223.483V56.832ZM223.483 67H224.907V58.36H223.483V67ZM230.572 67.232C231.649 67.232 232.494 66.9947 233.108 66.52C233.721 66.0453 234.028 65.3893 234.028 64.552C234.028 64.104 233.934 63.728 233.748 63.424C233.561 63.1147 233.246 62.848 232.804 62.624C232.366 62.3947 231.766 62.184 231.004 61.992C230.326 61.8213 229.809 61.6693 229.452 61.536C229.1 61.4027 228.857 61.2613 228.724 61.112C228.596 60.9627 228.532 60.784 228.532 60.576C228.532 60.208 228.705 59.9147 229.052 59.696C229.404 59.4773 229.86 59.376 230.42 59.392C231.006 59.408 231.489 59.552 231.868 59.824C232.246 60.0907 232.47 60.4533 232.54 60.912L233.996 60.648C233.905 59.8853 233.532 59.2747 232.876 58.816C232.225 58.352 231.406 58.12 230.42 58.12C229.422 58.12 228.62 58.352 228.012 58.816C227.404 59.2747 227.1 59.8853 227.1 60.648C227.1 61.0587 227.19 61.408 227.372 61.696C227.558 61.984 227.87 62.2373 228.308 62.456C228.75 62.6747 229.353 62.8853 230.116 63.088C230.82 63.2747 231.345 63.4373 231.692 63.576C232.044 63.7093 232.276 63.8507 232.388 64C232.5 64.1493 232.556 64.3467 232.556 64.592C232.556 65.0133 232.385 65.3467 232.044 65.592C231.708 65.8373 231.246 65.96 230.66 65.96C230.036 65.96 229.513 65.824 229.092 65.552C228.67 65.2747 228.401 64.9013 228.284 64.432L226.828 64.664C226.977 65.4747 227.38 66.1067 228.036 66.56C228.697 67.008 229.542 67.232 230.572 67.232ZM240.616 67V65.776C240.024 65.8667 239.517 65.8827 239.096 65.824C238.68 65.7653 238.376 65.5653 238.184 65.224C238.083 65.0427 238.027 64.8293 238.016 64.584C238.011 64.3333 238.008 64.0293 238.008 63.672V59.536H240.616V58.36H238.008V55.96H236.584V58.36H234.832V59.536H236.584V63.736C236.584 64.184 236.589 64.584 236.6 64.936C236.616 65.2827 236.709 65.624 236.88 65.96C237.083 66.3493 237.379 66.6373 237.768 66.824C238.157 67.0053 238.6 67.104 239.096 67.12C239.597 67.1413 240.104 67.1013 240.616 67ZM242.53 56.832H243.954V55.36H242.53V56.832ZM242.53 67H243.954V58.36H242.53V67ZM246.346 67H247.794V62.84L251.722 67H253.714L249.45 62.68L253.266 58.36H251.418L247.794 62.52V55.48H246.354L246.346 67ZM256.967 67.24C258.407 67.24 259.473 66.712 260.167 65.656V67H261.431V61.656C261.431 61.3147 261.415 60.9893 261.383 60.68C261.351 60.3653 261.273 60.0747 261.151 59.808C260.905 59.2427 260.5 58.8213 259.935 58.544C259.369 58.2613 258.697 58.12 257.919 58.12C256.943 58.12 256.153 58.336 255.551 58.768C254.953 59.2 254.553 59.7947 254.351 60.552L255.703 60.96C255.857 60.432 256.132 60.048 256.527 59.808C256.921 59.568 257.38 59.448 257.903 59.448C258.649 59.448 259.185 59.616 259.511 59.952C259.841 60.2827 260.015 60.792 260.031 61.48C259.391 61.5707 258.719 61.6667 258.015 61.768C257.316 61.864 256.695 61.984 256.151 62.128C255.495 62.32 254.977 62.6213 254.599 63.032C254.22 63.4373 254.031 63.9813 254.031 64.664C254.031 65.128 254.14 65.5547 254.359 65.944C254.583 66.3333 254.911 66.648 255.343 66.888C255.78 67.1227 256.321 67.24 256.967 67.24ZM257.183 66.048C256.569 66.048 256.127 65.9067 255.855 65.624C255.583 65.336 255.447 65.0133 255.447 64.656C255.447 64.2507 255.58 63.9413 255.847 63.728C256.119 63.5093 256.433 63.344 256.791 63.232C257.212 63.1147 257.703 63.016 258.263 62.936C258.823 62.856 259.407 62.776 260.015 62.696C260.015 62.8933 260.004 63.1173 259.983 63.368C259.967 63.6187 259.929 63.848 259.871 64.056C259.769 64.5893 259.487 65.056 259.023 65.456C258.564 65.8507 257.951 66.048 257.183 66.048ZM266.775 67.232C267.852 67.232 268.697 66.9947 269.311 66.52C269.924 66.0453 270.231 65.3893 270.231 64.552C270.231 64.104 270.137 63.728 269.951 63.424C269.764 63.1147 269.449 62.848 269.007 62.624C268.569 62.3947 267.969 62.184 267.207 61.992C266.529 61.8213 266.012 61.6693 265.655 61.536C265.303 61.4027 265.06 61.2613 264.927 61.112C264.799 60.9627 264.735 60.784 264.735 60.576C264.735 60.208 264.908 59.9147 265.255 59.696C265.607 59.4773 266.063 59.376 266.623 59.392C267.209 59.408 267.692 59.552 268.071 59.824C268.449 60.0907 268.673 60.4533 268.743 60.912L270.199 60.648C270.108 59.8853 269.735 59.2747 269.079 58.816C268.428 58.352 267.609 58.12 266.623 58.12C265.625 58.12 264.823 58.352 264.215 58.816C263.607 59.2747 263.303 59.8853 263.303 60.648C263.303 61.0587 263.393 61.408 263.575 61.696C263.761 61.984 264.073 62.2373 264.511 62.456C264.953 62.6747 265.556 62.8853 266.319 63.088C267.023 63.2747 267.548 63.4373 267.895 63.576C268.247 63.7093 268.479 63.8507 268.591 64C268.703 64.1493 268.759 64.3467 268.759 64.592C268.759 65.0133 268.588 65.3467 268.247 65.592C267.911 65.8373 267.449 65.96 266.863 65.96C266.239 65.96 265.716 65.824 265.295 65.552C264.873 65.2747 264.604 64.9013 264.487 64.432L263.031 64.664C263.18 65.4747 263.583 66.1067 264.239 66.56C264.9 67.008 265.745 67.232 266.775 67.232ZM272.155 56.832H273.579V55.36H272.155V56.832ZM272.155 67H273.579V58.36H272.155V67Z" fill="#343A40"/>
<path d="M102.7 85.993L102.707 84.691L107.096 80.757C107.451 80.4443 107.691 80.1457 107.817 79.861C107.948 79.5763 108.013 79.2917 108.013 79.007C108.013 78.6477 107.934 78.3257 107.775 78.041C107.616 77.7517 107.397 77.523 107.117 77.355C106.837 77.187 106.515 77.103 106.151 77.103C105.778 77.103 105.444 77.1917 105.15 77.369C104.861 77.5417 104.634 77.7727 104.471 78.062C104.308 78.3513 104.228 78.664 104.233 79H102.735C102.735 78.3467 102.882 77.775 103.176 77.285C103.475 76.7903 103.883 76.4053 104.401 76.13C104.919 75.85 105.512 75.71 106.179 75.71C106.814 75.71 107.383 75.8547 107.887 76.144C108.391 76.4287 108.788 76.8207 109.077 77.32C109.371 77.8193 109.518 78.3887 109.518 79.028C109.518 79.49 109.457 79.882 109.336 80.204C109.215 80.526 109.033 80.8247 108.79 81.1C108.547 81.3753 108.244 81.674 107.88 81.996L104.492 85.02L104.331 84.6H109.518V85.993H102.7ZM114.711 86.21C114.025 86.21 113.418 86.0607 112.891 85.762C112.363 85.4587 111.948 85.0433 111.645 84.516C111.346 83.9887 111.197 83.382 111.197 82.696V79.224C111.197 78.538 111.346 77.9313 111.645 77.404C111.948 76.8767 112.363 76.4637 112.891 76.165C113.418 75.8617 114.025 75.71 114.711 75.71C115.397 75.71 116.003 75.8617 116.531 76.165C117.058 76.4637 117.471 76.8767 117.77 77.404C118.073 77.9313 118.225 78.538 118.225 79.224V82.696C118.225 83.382 118.073 83.9887 117.77 84.516C117.471 85.0433 117.058 85.4587 116.531 85.762C116.003 86.0607 115.397 86.21 114.711 86.21ZM114.711 84.81C115.084 84.81 115.422 84.7213 115.726 84.544C116.034 84.362 116.279 84.1193 116.461 83.816C116.643 83.508 116.734 83.165 116.734 82.787V79.119C116.734 78.7457 116.643 78.4073 116.461 78.104C116.279 77.796 116.034 77.5533 115.726 77.376C115.422 77.194 115.084 77.103 114.711 77.103C114.337 77.103 113.997 77.194 113.689 77.376C113.385 77.5533 113.143 77.796 112.961 78.104C112.779 78.4073 112.688 78.7457 112.688 79.119V82.787C112.688 83.165 112.779 83.508 112.961 83.816C113.143 84.1193 113.385 84.362 113.689 84.544C113.997 84.7213 114.337 84.81 114.711 84.81ZM119.899 85.993L119.906 84.691L124.295 80.757C124.65 80.4443 124.89 80.1457 125.016 79.861C125.147 79.5763 125.212 79.2917 125.212 79.007C125.212 78.6477 125.133 78.3257 124.974 78.041C124.816 77.7517 124.596 77.523 124.316 77.355C124.036 77.187 123.714 77.103 123.35 77.103C122.977 77.103 122.643 77.1917 122.349 77.369C122.06 77.5417 121.834 77.7727 121.67 78.062C121.507 78.3513 121.428 78.664 121.432 79H119.934C119.934 78.3467 120.081 77.775 120.375 77.285C120.674 76.7903 121.082 76.4053 121.6 76.13C122.118 75.85 122.711 75.71 123.378 75.71C124.013 75.71 124.582 75.8547 125.086 76.144C125.59 76.4287 125.987 76.8207 126.276 77.32C126.57 77.8193 126.717 78.3887 126.717 79.028C126.717 79.49 126.657 79.882 126.535 80.204C126.414 80.526 126.232 80.8247 125.989 81.1C125.747 81.3753 125.443 81.674 125.079 81.996L121.691 85.02L121.53 84.6H126.717V85.993H119.899ZM130.153 86V77.53L128.256 78.685V77.054L130.153 75.92H131.644V86H130.153ZM134.162 82.171V80.995H138.362V82.171H134.162ZM141.203 89.36L142.666 85.377L142.687 86.553L139.39 78.44H140.916L143.38 84.705H142.932L145.284 78.44H146.768L142.596 89.36H141.203ZM148.005 77.201V75.78H149.468V77.201H148.005ZM148.005 86V78.44H149.468V86H148.005ZM151.71 86V75.71H153.173V86H151.71ZM161.627 86.21C160.903 86.21 160.297 86.035 159.807 85.685C159.317 85.3303 158.946 84.852 158.694 84.25C158.442 83.648 158.316 82.969 158.316 82.213C158.316 81.457 158.439 80.778 158.687 80.176C158.939 79.574 159.307 79.1003 159.793 78.755C160.283 78.405 160.885 78.23 161.599 78.23C162.308 78.23 162.919 78.405 163.433 78.755C163.951 79.1003 164.35 79.574 164.63 80.176C164.91 80.7733 165.05 81.4523 165.05 82.213C165.05 82.969 164.91 83.6503 164.63 84.257C164.354 84.859 163.96 85.335 163.447 85.685C162.938 86.035 162.331 86.21 161.627 86.21ZM158.071 86V75.92H159.541V80.561H159.373V86H158.071ZM161.424 84.887C161.89 84.887 162.275 84.768 162.579 84.53C162.887 84.292 163.115 83.9723 163.265 83.571C163.419 83.165 163.496 82.7123 163.496 82.213C163.496 81.7183 163.419 81.2703 163.265 80.869C163.115 80.4677 162.884 80.148 162.572 79.91C162.259 79.672 161.86 79.553 161.375 79.553C160.917 79.553 160.539 79.665 160.241 79.889C159.947 80.113 159.727 80.4257 159.583 80.827C159.443 81.2283 159.373 81.6903 159.373 82.213C159.373 82.7357 159.443 83.1977 159.583 83.599C159.723 84.0003 159.944 84.3153 160.248 84.544C160.551 84.7727 160.943 84.887 161.424 84.887ZM169.878 86.21C169.122 86.21 168.467 86.0397 167.911 85.699C167.356 85.3583 166.927 84.8893 166.623 84.292C166.325 83.69 166.175 82.997 166.175 82.213C166.175 81.4243 166.329 80.7313 166.637 80.134C166.945 79.532 167.377 79.0653 167.932 78.734C168.488 78.398 169.136 78.23 169.878 78.23C170.634 78.23 171.29 78.4003 171.845 78.741C172.401 79.0817 172.83 79.5507 173.133 80.148C173.437 80.7453 173.588 81.4337 173.588 82.213C173.588 83.0017 173.434 83.697 173.126 84.299C172.823 84.8963 172.394 85.3653 171.838 85.706C171.283 86.042 170.63 86.21 169.878 86.21ZM169.878 84.831C170.602 84.831 171.141 84.5883 171.495 84.103C171.855 83.613 172.034 82.983 172.034 82.213C172.034 81.4243 171.852 80.7943 171.488 80.323C171.129 79.847 170.592 79.609 169.878 79.609C169.388 79.609 168.985 79.721 168.667 79.945C168.35 80.1643 168.114 80.47 167.96 80.862C167.806 81.2493 167.729 81.6997 167.729 82.213C167.729 83.0063 167.911 83.641 168.275 84.117C168.639 84.593 169.174 84.831 169.878 84.831ZM174.993 79.28L175.084 78.629C175.285 78.643 175.441 78.6057 175.553 78.517C175.665 78.4283 175.74 78.3047 175.777 78.146C175.814 77.9873 175.821 77.8077 175.798 77.607H174.993V75.92H176.54V77.747C176.54 78.2977 176.407 78.713 176.141 78.993C175.88 79.273 175.497 79.3687 174.993 79.28ZM179.566 89.36L181.029 85.377L181.05 86.553L177.753 78.44H179.279L181.743 84.705H181.295L183.647 78.44H185.131L180.959 89.36H179.566ZM186.368 77.201V75.78H187.831V77.201H186.368ZM186.368 86V78.44H187.831V86H186.368ZM193.167 86.21C192.392 86.21 191.734 86.0373 191.193 85.692C190.652 85.3467 190.236 84.873 189.947 84.271C189.662 83.669 189.518 82.9853 189.513 82.22C189.518 81.4407 189.667 80.7523 189.961 80.155C190.255 79.553 190.675 79.0817 191.221 78.741C191.767 78.4003 192.423 78.23 193.188 78.23C194.014 78.23 194.719 78.4353 195.302 78.846C195.89 79.2567 196.277 79.819 196.464 80.533L195.008 80.953C194.863 80.5283 194.625 80.1993 194.294 79.966C193.967 79.728 193.592 79.609 193.167 79.609C192.686 79.609 192.292 79.7233 191.984 79.952C191.676 80.176 191.447 80.484 191.298 80.876C191.149 81.268 191.072 81.716 191.067 82.22C191.072 82.9993 191.249 83.6293 191.599 84.11C191.954 84.5907 192.476 84.831 193.167 84.831C193.638 84.831 194.019 84.7237 194.308 84.509C194.602 84.2897 194.826 83.977 194.98 83.571L196.464 83.921C196.217 84.6583 195.808 85.2253 195.239 85.622C194.67 86.014 193.979 86.21 193.167 86.21ZM203.196 86V82.283C203.196 81.989 203.17 81.688 203.119 81.38C203.072 81.0673 202.979 80.778 202.839 80.512C202.704 80.246 202.51 80.0313 202.258 79.868C202.011 79.7047 201.686 79.623 201.285 79.623C201.024 79.623 200.776 79.6673 200.543 79.756C200.31 79.84 200.104 79.9777 199.927 80.169C199.754 80.3603 199.617 80.6123 199.514 80.925C199.416 81.2377 199.367 81.618 199.367 82.066L198.457 81.723C198.457 81.037 198.585 80.4327 198.842 79.91C199.099 79.3827 199.467 78.972 199.948 78.678C200.429 78.384 201.01 78.237 201.691 78.237C202.214 78.237 202.652 78.321 203.007 78.489C203.362 78.657 203.649 78.8787 203.868 79.154C204.092 79.4247 204.262 79.721 204.379 80.043C204.496 80.365 204.575 80.68 204.617 80.988C204.659 81.296 204.68 81.5667 204.68 81.8V86H203.196ZM197.883 86V75.92H199.192V81.359H199.367V86H197.883ZM208.638 86.21C208.078 86.21 207.609 86.1073 207.231 85.902C206.853 85.692 206.566 85.4167 206.37 85.076C206.179 84.7307 206.083 84.3527 206.083 83.942C206.083 83.5593 206.151 83.2233 206.286 82.934C206.422 82.6447 206.622 82.3997 206.888 82.199C207.154 81.9937 207.481 81.828 207.868 81.702C208.204 81.604 208.585 81.5177 209.009 81.443C209.434 81.3683 209.88 81.2983 210.346 81.233C210.818 81.1677 211.284 81.1023 211.746 81.037L211.214 81.331C211.224 80.7383 211.098 80.2997 210.836 80.015C210.58 79.7257 210.136 79.581 209.506 79.581C209.11 79.581 208.746 79.6743 208.414 79.861C208.083 80.043 207.852 80.3463 207.721 80.771L206.356 80.351C206.543 79.7023 206.898 79.1867 207.42 78.804C207.948 78.4213 208.648 78.23 209.52 78.23C210.197 78.23 210.785 78.3467 211.284 78.58C211.788 78.8087 212.157 79.1727 212.39 79.672C212.512 79.9193 212.586 80.1807 212.614 80.456C212.642 80.7313 212.656 81.0277 212.656 81.345V86H211.361V84.271L211.613 84.495C211.301 85.0737 210.902 85.5053 210.416 85.79C209.936 86.07 209.343 86.21 208.638 86.21ZM208.897 85.013C209.313 85.013 209.67 84.9407 209.968 84.796C210.267 84.6467 210.507 84.4577 210.689 84.229C210.871 84.0003 210.99 83.7623 211.046 83.515C211.126 83.291 211.17 83.039 211.179 82.759C211.193 82.479 211.2 82.255 211.2 82.087L211.676 82.262C211.214 82.332 210.794 82.395 210.416 82.451C210.038 82.507 209.695 82.563 209.387 82.619C209.084 82.6703 208.813 82.7333 208.575 82.808C208.375 82.878 208.195 82.962 208.036 83.06C207.882 83.158 207.759 83.277 207.665 83.417C207.577 83.557 207.532 83.7273 207.532 83.928C207.532 84.124 207.581 84.306 207.679 84.474C207.777 84.6373 207.927 84.768 208.127 84.866C208.328 84.964 208.585 85.013 208.897 85.013Z" fill="#868E96"/>
<path d="M334 74C332.895 74 332 73.1046 332 72C332 70.8954 332.895 70 334 70C335.105 70 336 70.8954 336 72C336 73.1046 335.105 74 334 74ZM334 68C332.895 68 332 67.1046 332 66C332 64.8954 332.895 64 334 64C335.105 64 336 64.8954 336 66C336 66.5304 335.789 67.0391 335.414 67.4142C335.039 67.7893 334.53 68 334 68ZM334 62C332.895 62 332 61.1046 332 60C332 58.8954 332.895 58 334 58C335.105 58 336 58.8954 336 60C336 60.5304 335.789 61.0391 335.414 61.4142C335.039 61.7893 334.53 62 334 62Z" fill="#343A40"/>
<mask id="mask0" mask-type="alpha" maskUnits="userSpaceOnUse" x="50" y="50" width="32" height="32">
<path d="M66 82C74.8366 82 82 74.8366 82 66C82 57.1634 74.8366 50 66 50C57.1634 50 50 57.1634 50 66C50 74.8366 57.1634 82 66 82Z" fill="white"/>
</mask>
<g mask="url(#mask0)">
<path d="M66 82C74.8366 82 82 74.8366 82 66C82 57.1634 74.8366 50 66 50C57.1634 50 50 57.1634 50 66C50 74.8366 57.1634 82 66 82Z" fill="#F5F5F5"/>
</g>
<path d="M60.2351 65.9717C60.1937 65.9754 60.1728 65.9245 60.2022 65.8951C60.2836 65.8137 60.365 65.7323 60.4463 65.6509C60.5725 65.5248 60.7002 65.3971 60.8264 65.2709C60.872 65.2253 60.9176 65.1797 60.9632 65.1341C61.0255 65.0718 61.0924 65.014 61.1486 64.9456C61.2885 64.7814 61.3158 64.5412 61.22 64.3481C61.1226 64.1535 60.9128 64.0349 60.6954 64.0485C60.5479 64.0591 60.4232 64.129 60.3214 64.2309C60.2515 64.3008 60.18 64.3723 60.1101 64.4422C60.0098 64.5425 59.911 64.6413 59.8107 64.7416C59.6708 64.8815 59.531 65.0213 59.3911 65.1612C59.2771 65.2752 59.1616 65.3907 59.0476 65.5047C58.9549 65.5974 58.8621 65.6902 58.7679 65.7844C58.6858 65.8665 58.6022 65.9501 58.5201 66.0322C58.473 66.0793 58.4198 66.1264 58.3787 66.1796C58.2435 66.3514 58.2237 66.5962 58.3317 66.7893C58.3774 66.8684 58.4473 66.9322 58.5112 66.9961C58.6419 67.1269 58.7712 67.2561 58.902 67.3869C59.0282 67.5131 59.1559 67.6408 59.2821 67.7671C59.3764 67.8613 59.4722 67.9571 59.5665 68.0514C59.6745 68.1594 59.7809 68.2658 59.8889 68.3738C60.0318 68.5167 60.1748 68.6597 60.3177 68.8026C60.415 68.9 60.526 68.9714 60.6659 68.9897C60.8818 69.0171 61.0962 68.9092 61.2056 68.7207C61.3135 68.5337 61.2983 68.2935 61.169 68.1217C61.1082 68.0396 61.0276 67.9711 60.9561 67.8997C60.8436 67.7871 60.7326 67.6761 60.62 67.5636C60.5151 67.4587 60.4087 67.3522 60.3037 67.2473C60.2367 67.1802 60.2845 67.0654 60.3793 67.0655C60.6384 67.0659 60.8975 67.0653 61.1566 67.0665C61.4637 67.0666 61.7693 67.0682 62.0749 67.0667C62.3608 67.0668 62.6466 67.0668 62.9324 67.0669C63.2152 67.0669 63.501 67.067 63.7838 67.067C63.9997 67.0671 64.2156 67.0671 64.43 67.0687C64.4756 67.0687 64.5212 67.0687 64.5668 67.0687C64.7705 67.0657 64.9606 66.9548 65.0533 66.7708C65.1475 66.5884 65.1277 66.3618 65.0045 66.1961C64.9011 66.0562 64.7369 65.9771 64.5636 65.9771C64.4039 65.9755 64.2443 65.977 64.0831 65.977C63.7988 65.9754 63.5145 65.9769 63.2302 65.9753C62.917 65.9752 62.6068 65.9752 62.2936 65.9751C61.9409 65.9751 61.5882 65.975 61.234 65.9734C60.901 65.9718 60.568 65.9733 60.2351 65.9717ZM65.943 68.4783C65.9431 68.8007 65.9431 69.123 65.9432 69.4453C65.9417 69.7083 65.9433 69.9713 65.9418 70.2344C65.9419 70.4837 65.9419 70.7331 65.9404 70.9839C65.939 71.2652 65.9406 71.5464 65.9391 71.8277C65.9392 72.1713 65.9392 72.5119 65.9393 72.8555C65.9393 72.8656 65.9271 72.8706 65.9199 72.8635C65.762 72.7056 65.6029 72.5464 65.4451 72.3886C65.2824 72.2259 65.1212 72.0647 64.9585 71.902C64.8672 71.8108 64.7577 71.7469 64.63 71.7286C64.4628 71.7043 64.2925 71.762 64.1724 71.8821L64.1739 71.8806C64.0478 72.0068 63.99 72.1892 64.0235 72.3625C64.0448 72.4811 64.1057 72.5815 64.1893 72.6651C64.3094 72.7852 64.428 72.9038 64.5482 73.024C64.7367 73.2125 64.9253 73.4011 65.1154 73.5912C65.2842 73.76 65.4545 73.9303 65.6233 74.0991C65.7312 74.207 65.8392 74.315 65.9472 74.423C65.9958 74.4716 66.043 74.5188 66.0916 74.5674C66.1859 74.6617 66.306 74.7241 66.4398 74.7363C66.6025 74.75 66.7591 74.6907 66.8746 74.5782C66.9142 74.5387 66.9537 74.4992 66.9917 74.4612C67.1087 74.3441 67.2258 74.2271 67.3428 74.1101C67.51 73.9428 67.6772 73.7756 67.8444 73.6084C68.0269 73.426 68.2093 73.2436 68.3917 73.0612C68.5163 72.9366 68.6394 72.8134 68.7641 72.6888C68.831 72.6219 68.8903 72.5505 68.9252 72.4608C68.986 72.2996 68.9677 72.1172 68.8749 71.9727C68.6864 71.6777 68.2698 71.6442 68.0235 71.8874C67.9323 71.9786 67.8426 72.0683 67.7514 72.1595C67.5584 72.3526 67.3653 72.5456 67.1723 72.7386C67.1207 72.7903 67.0324 72.7537 67.0324 72.6807C67.0324 72.5916 67.0324 72.5024 67.0323 72.4133C67.0323 72.2126 67.0307 72.0104 67.0322 71.8082C67.0322 71.6957 67.0322 71.5862 67.0322 71.4737C67.0321 71.2487 67.0321 71.0206 67.032 70.7956C67.032 70.7013 67.032 70.6071 67.032 70.5128C67.0319 70.2848 67.0304 70.0552 67.0318 69.8256C67.0318 69.7222 67.0318 69.6188 67.0318 69.5154C67.0317 69.3026 67.0317 69.0928 67.0317 68.8799C67.0316 68.7765 67.0316 68.6762 67.0316 68.5728C67.0316 68.5059 67.0346 68.439 67.0224 68.3721C66.9829 68.1532 66.805 67.9783 66.5875 67.9372C66.3686 67.8946 66.1421 67.9934 66.022 68.1804C65.9734 68.2716 65.943 68.375 65.943 68.4783ZM71.8853 64.1723C71.6725 64.3851 71.6786 64.7317 71.887 64.9462C71.9691 65.0283 72.0527 65.1119 72.1348 65.194C72.2991 65.3582 72.4648 65.524 72.629 65.6882C72.7231 65.7823 72.6569 65.9432 72.5239 65.9437C72.3033 65.9447 72.0824 65.9456 71.8628 65.9465C71.5618 65.9465 71.2608 65.9495 70.9597 65.9494C70.6785 65.9509 70.3987 65.9508 70.1175 65.9523C69.8392 65.9538 69.5595 65.9537 69.2797 65.9567C69.0654 65.9582 68.8525 65.9581 68.6381 65.9596C68.5895 65.9596 68.5424 65.9611 68.4952 65.9596C68.3067 65.9626 68.1304 66.0599 68.027 66.218C67.916 66.3897 67.9085 66.6102 68.0089 66.7866C68.1032 66.9569 68.2841 67.0618 68.4787 67.0649C68.6231 67.0664 68.7676 67.0649 68.9135 67.065C69.1994 67.065 69.4852 67.0651 69.7695 67.0667C70.0797 67.0667 70.3898 67.0668 70.7015 67.0684C71.0512 67.0684 71.3993 67.07 71.7475 67.0686C72.0744 67.0701 72.4013 67.0687 72.7281 67.0703C72.7693 67.0703 72.7911 67.1229 72.762 67.152C72.563 67.3509 72.365 67.549 72.1657 67.7482C72.0593 67.8546 71.9514 67.9595 71.8465 68.0675C71.7188 68.1982 71.6596 68.3852 71.6961 68.5646C71.7387 68.7714 71.9029 68.9386 72.1082 68.9858C72.2937 69.0284 72.4837 68.9692 72.6175 68.8384C72.6692 68.7867 72.7208 68.7351 72.771 68.6849C72.882 68.5739 72.9929 68.463 73.1039 68.352C73.3304 68.1255 73.5569 67.899 73.7834 67.6725C74.0236 67.4324 74.2637 67.1922 74.5054 66.9505C74.5176 66.9383 74.5297 66.9262 74.5419 66.914C74.6453 66.8106 74.7182 66.6617 74.7227 66.5142C74.7258 66.3743 74.6908 66.2177 74.5934 66.1113C74.5189 66.0307 74.4368 65.9546 74.3577 65.8756C74.2042 65.722 74.049 65.5669 73.8955 65.4133C73.7419 65.2597 73.5883 65.1061 73.4362 64.9541C73.2826 64.8005 73.129 64.6469 72.9755 64.4933C72.8751 64.3929 72.7747 64.2926 72.6759 64.1937C72.6181 64.1359 72.5558 64.0858 72.4797 64.0553C72.3475 63.9991 72.1954 63.999 72.0632 64.0522C71.9993 64.0796 71.937 64.1206 71.8853 64.1723ZM66.8715 58.3863C67.0844 58.5992 67.2973 58.8121 67.5102 59.025C67.755 59.2698 67.9999 59.5147 68.2447 59.7595C68.3344 59.8492 68.4241 59.9389 68.5139 60.0286C68.5899 60.1047 68.6659 60.1807 68.742 60.2567C68.8165 60.3313 68.8879 60.4058 68.926 60.5076C68.999 60.7023 68.9534 60.9273 68.812 61.0778C68.6707 61.2252 68.4548 61.2829 68.2587 61.2236C68.1309 61.184 68.0427 61.0989 67.9515 61.0077C67.8952 60.9514 67.8375 60.8936 67.7812 60.8373C67.5531 60.6092 67.325 60.3811 67.0969 60.153C67.0739 60.13 67.0346 60.1463 67.0346 60.1789C67.0346 60.4966 67.0347 60.8164 67.0347 61.1337C67.0348 61.4408 67.0349 61.7509 67.0349 62.058C67.035 62.3439 67.035 62.6297 67.0351 62.9186C67.0351 63.2044 67.0352 63.4872 67.0353 63.773C67.0353 63.9889 67.0353 64.2048 67.0369 64.4222C67.0369 64.4739 67.0369 64.5226 67.0369 64.5743C67.0354 64.7704 66.9336 64.9513 66.7633 65.0486C66.5855 65.1504 66.3574 65.1443 66.1871 65.0287C66.0366 64.9268 65.9469 64.755 65.9468 64.5725C65.9468 64.4144 65.9468 64.2563 65.9467 64.0982C65.9467 63.8093 65.9466 63.5204 65.945 63.23C65.9435 62.9153 65.9449 62.6006 65.9433 62.2859C65.9433 61.9301 65.9432 61.5744 65.9416 61.2171C65.94 60.8811 65.9415 60.5451 65.9399 60.2091C65.9399 60.1653 65.887 60.1434 65.856 60.1743C65.771 60.2594 65.6855 60.3448 65.6009 60.4295C65.4732 60.5571 65.344 60.6864 65.2163 60.814C65.1646 60.8657 65.1145 60.9159 65.0628 60.9676C64.9746 61.0557 64.891 61.1515 64.774 61.2016C64.5703 61.2898 64.3285 61.2426 64.1719 61.086C64.0153 60.9294 63.9696 60.6861 64.0562 60.4839C64.0988 60.3836 64.1733 60.3121 64.2477 60.2376C64.3313 60.154 64.415 60.0704 64.4986 59.9868C64.5958 59.8895 64.6946 59.7907 64.7919 59.6934C64.909 59.5764 65.0275 59.4578 65.1446 59.3408C65.2875 59.1979 65.4319 59.0535 65.5748 58.9106C65.6812 58.8042 65.7876 58.6978 65.894 58.5914C65.9593 58.526 66.0232 58.4622 66.0886 58.3968C66.2162 58.2691 66.3926 58.2053 66.572 58.2358C66.686 58.2525 66.7909 58.3057 66.8715 58.3863Z" fill="#343A40"/>
<circle cx="66.5" cy="66.4854" r="0.5" fill="#343A40"/>
<path d="M125.496 205.089C128.339 189.155 136.707 174.733 149.13 164.359C161.553 153.985 177.236 148.322 193.421 148.366L193.325 183.568C185.42 183.546 177.761 186.312 171.693 191.379C165.626 196.445 161.539 203.489 160.15 211.271L125.496 205.089Z" fill="#F3F3F4"/>
<path d="M140.265 266.226C131.999 258.004 125.849 247.901 122.342 236.783C119.264 227.026 118.302 216.742 119.498 206.614C119.776 204.269 122.01 202.722 124.335 203.137L152.247 208.127C154.572 208.543 156.092 210.766 155.961 213.124C155.726 217.359 156.256 221.613 157.539 225.679C159.252 231.11 162.256 236.044 166.293 240.059L140.265 266.226Z" fill="#FF922B"/>
<path d="M189.715 125.276C189.715 122.915 191.631 120.99 193.99 121.099C213.427 121.996 232.131 128.995 247.412 141.157C262.694 153.319 273.712 169.975 278.949 188.715C279.585 190.989 278.139 193.288 275.838 193.819L230.75 204.203C228.448 204.733 226.176 203.285 225.39 201.058C223.036 194.392 218.85 188.49 213.274 184.052C207.698 179.614 201.007 176.86 193.982 176.062C191.636 175.796 189.715 173.907 189.715 171.545V125.276Z" fill="#339AF0"/>
<g filter="url(#filter1_dd)">
<path d="M216 124C216 121.791 217.791 120 220 120H294C296.209 120 298 121.791 298 124V154.4C298 156.609 296.209 158.4 294 158.4H268.714L257 168L245.286 158.4H220C217.791 158.4 216 156.609 216 154.4V124Z" fill="white"/>
</g>
<path d="M230.813 144.18C230.253 144.18 229.749 144.048 229.301 143.784C228.853 143.516 228.497 143.15 228.233 142.686C227.973 142.222 227.843 141.694 227.843 141.102V138.348C227.843 137.72 227.973 137.168 228.233 136.692C228.497 136.216 228.861 135.846 229.325 135.582C229.793 135.318 230.331 135.186 230.939 135.186C231.395 135.186 231.823 135.272 232.223 135.444C232.623 135.616 232.969 135.872 233.261 136.212L232.343 137.07C232.179 136.858 231.973 136.69 231.725 136.566C231.481 136.438 231.219 136.374 230.939 136.374C230.579 136.374 230.263 136.46 229.991 136.632C229.719 136.8 229.505 137.022 229.349 137.298C229.197 137.574 229.121 137.87 229.121 138.186V139.77L228.875 139.494C229.123 139.17 229.431 138.914 229.799 138.726C230.167 138.538 230.561 138.444 230.981 138.444C231.517 138.444 231.995 138.57 232.415 138.822C232.839 139.07 233.171 139.408 233.411 139.836C233.655 140.264 233.777 140.746 233.777 141.282C233.777 141.822 233.641 142.312 233.369 142.752C233.101 143.188 232.741 143.536 232.289 143.796C231.841 144.052 231.349 144.18 230.813 144.18ZM230.813 142.974C231.125 142.974 231.409 142.898 231.665 142.746C231.921 142.594 232.125 142.39 232.277 142.134C232.429 141.878 232.505 141.594 232.505 141.282C232.505 140.97 232.429 140.686 232.277 140.43C232.129 140.174 231.927 139.97 231.671 139.818C231.415 139.666 231.131 139.59 230.819 139.59C230.507 139.59 230.221 139.666 229.961 139.818C229.705 139.97 229.501 140.174 229.349 140.43C229.197 140.686 229.121 140.97 229.121 141.282C229.121 141.59 229.197 141.872 229.349 142.128C229.501 142.384 229.705 142.59 229.961 142.746C230.217 142.898 230.501 142.974 230.813 142.974ZM236.146 144L239.182 136.554H235.336V135.36H240.532V136.554L237.502 144H236.146ZM245.143 144.18C244.579 144.18 244.079 144.068 243.643 143.844C243.211 143.616 242.871 143.3 242.623 142.896C242.379 142.492 242.257 142.024 242.257 141.492C242.257 140.996 242.373 140.542 242.605 140.13C242.837 139.718 243.183 139.394 243.643 139.158L243.619 139.59C243.251 139.362 242.967 139.078 242.767 138.738C242.571 138.394 242.473 138.01 242.473 137.586C242.473 137.094 242.587 136.668 242.815 136.308C243.043 135.948 243.357 135.67 243.757 135.474C244.161 135.278 244.623 135.18 245.143 135.18C245.663 135.18 246.123 135.278 246.523 135.474C246.923 135.67 247.237 135.948 247.465 136.308C247.693 136.668 247.807 137.094 247.807 137.586C247.807 138.01 247.713 138.392 247.525 138.732C247.337 139.072 247.049 139.358 246.661 139.59L246.643 139.17C247.099 139.394 247.445 139.714 247.681 140.13C247.917 140.542 248.035 140.996 248.035 141.492C248.035 142.024 247.911 142.492 247.663 142.896C247.415 143.3 247.073 143.616 246.637 143.844C246.201 144.068 245.703 144.18 245.143 144.18ZM245.143 142.986C245.607 142.986 245.983 142.86 246.271 142.608C246.559 142.352 246.703 141.98 246.703 141.492C246.703 141.004 246.559 140.632 246.271 140.376C245.987 140.116 245.611 139.986 245.143 139.986C244.675 139.986 244.297 140.116 244.009 140.376C243.725 140.632 243.583 141.004 243.583 141.492C243.583 141.98 243.727 142.352 244.015 142.608C244.303 142.86 244.679 142.986 245.143 142.986ZM245.143 138.786C245.539 138.786 245.859 138.688 246.103 138.492C246.351 138.292 246.475 137.99 246.475 137.586C246.475 137.182 246.351 136.88 246.103 136.68C245.859 136.476 245.539 136.374 245.143 136.374C244.747 136.374 244.425 136.476 244.177 136.68C243.929 136.88 243.805 137.182 243.805 137.586C243.805 137.99 243.929 138.292 244.177 138.492C244.425 138.688 244.747 138.786 245.143 138.786ZM256.458 144V142.494H252.558V141.306L255.366 135.36H256.8L253.992 141.306H256.458V138.966H257.73V141.306H258.588V142.494H257.73V144H256.458ZM260.879 144L263.915 136.554H260.069V135.36H265.265V136.554L262.235 144H260.879ZM269.876 144.18C269.312 144.18 268.812 144.068 268.376 143.844C267.944 143.616 267.604 143.3 267.356 142.896C267.112 142.492 266.99 142.024 266.99 141.492C266.99 140.996 267.106 140.542 267.338 140.13C267.57 139.718 267.916 139.394 268.376 139.158L268.352 139.59C267.984 139.362 267.7 139.078 267.5 138.738C267.304 138.394 267.206 138.01 267.206 137.586C267.206 137.094 267.32 136.668 267.548 136.308C267.776 135.948 268.09 135.67 268.49 135.474C268.894 135.278 269.356 135.18 269.876 135.18C270.396 135.18 270.856 135.278 271.256 135.474C271.656 135.67 271.97 135.948 272.198 136.308C272.426 136.668 272.54 137.094 272.54 137.586C272.54 138.01 272.446 138.392 272.258 138.732C272.07 139.072 271.782 139.358 271.394 139.59L271.376 139.17C271.832 139.394 272.178 139.714 272.414 140.13C272.65 140.542 272.768 140.996 272.768 141.492C272.768 142.024 272.644 142.492 272.396 142.896C272.148 143.3 271.806 143.616 271.37 143.844C270.934 144.068 270.436 144.18 269.876 144.18ZM269.876 142.986C270.34 142.986 270.716 142.86 271.004 142.608C271.292 142.352 271.436 141.98 271.436 141.492C271.436 141.004 271.292 140.632 271.004 140.376C270.72 140.116 270.344 139.986 269.876 139.986C269.408 139.986 269.03 140.116 268.742 140.376C268.458 140.632 268.316 141.004 268.316 141.492C268.316 141.98 268.46 142.352 268.748 142.608C269.036 142.86 269.412 142.986 269.876 142.986ZM269.876 138.786C270.272 138.786 270.592 138.688 270.836 138.492C271.084 138.292 271.208 137.99 271.208 137.586C271.208 137.182 271.084 136.88 270.836 136.68C270.592 136.476 270.272 136.374 269.876 136.374C269.48 136.374 269.158 136.476 268.91 136.68C268.662 136.88 268.538 137.182 268.538 137.586C268.538 137.99 268.662 138.292 268.91 138.492C269.158 138.688 269.48 138.786 269.876 138.786ZM281.239 144C280.831 144.08 280.431 144.114 280.039 144.102C279.647 144.09 279.297 144.014 278.989 143.874C278.681 143.734 278.449 143.514 278.293 143.214C278.153 142.946 278.077 142.674 278.065 142.398C278.057 142.118 278.053 141.802 278.053 141.45V135.72H279.313V141.39C279.313 141.65 279.315 141.876 279.319 142.068C279.327 142.26 279.369 142.422 279.445 142.554C279.589 142.802 279.817 142.944 280.129 142.98C280.445 143.012 280.815 142.998 281.239 142.938V144ZM276.811 138.528V137.52H281.239V138.528H276.811ZM284.835 144.18C284.355 144.18 283.953 144.092 283.629 143.916C283.305 143.736 283.059 143.5 282.891 143.208C282.727 142.912 282.645 142.588 282.645 142.236C282.645 141.908 282.703 141.62 282.819 141.372C282.935 141.124 283.107 140.914 283.335 140.742C283.563 140.566 283.843 140.424 284.175 140.316C284.463 140.232 284.789 140.158 285.153 140.094C285.517 140.03 285.899 139.97 286.299 139.914C286.703 139.858 287.103 139.802 287.499 139.746L287.043 139.998C287.051 139.49 286.943 139.114 286.719 138.87C286.499 138.622 286.119 138.498 285.579 138.498C285.239 138.498 284.927 138.578 284.643 138.738C284.359 138.894 284.161 139.154 284.049 139.518L282.879 139.158C283.039 138.602 283.343 138.16 283.791 137.832C284.243 137.504 284.843 137.34 285.591 137.34C286.171 137.34 286.675 137.44 287.103 137.64C287.535 137.836 287.851 138.148 288.051 138.576C288.155 138.788 288.219 139.012 288.243 139.248C288.267 139.484 288.279 139.738 288.279 140.01V144H287.169V142.518L287.385 142.71C287.117 143.206 286.775 143.576 286.359 143.82C285.947 144.06 285.439 144.18 284.835 144.18ZM285.057 143.154C285.413 143.154 285.719 143.092 285.975 142.968C286.231 142.84 286.437 142.678 286.593 142.482C286.749 142.286 286.851 142.082 286.899 141.87C286.967 141.678 287.005 141.462 287.013 141.222C287.025 140.982 287.031 140.79 287.031 140.646L287.439 140.796C287.043 140.856 286.683 140.91 286.359 140.958C286.035 141.006 285.741 141.054 285.477 141.102C285.217 141.146 284.985 141.2 284.781 141.264C284.609 141.324 284.455 141.396 284.319 141.48C284.187 141.564 284.081 141.666 284.001 141.786C283.925 141.906 283.887 142.052 283.887 142.224C283.887 142.392 283.929 142.548 284.013 142.692C284.097 142.832 284.225 142.944 284.397 143.028C284.569 143.112 284.789 143.154 285.057 143.154Z" fill="#333333"/>
<path d="M267.939 195.312C271.933 212.345 270.258 230.215 263.17 246.209C256.082 262.203 243.967 275.446 228.666 283.927C213.365 292.408 195.714 295.664 178.395 293.199C162.489 290.935 147.661 283.961 135.798 273.224C134.047 271.639 134.064 268.922 135.74 267.257L161.872 241.306C167.892 247.368 175.727 251.3 184.186 252.504C192.645 253.708 201.266 252.118 208.739 247.976C216.212 243.834 222.128 237.366 225.59 229.554C228.472 223.051 229.522 215.913 228.667 208.905C228.381 206.56 229.784 204.259 232.083 203.72L267.939 195.312Z" fill="#51CF66"/>
<g filter="url(#filter2_d)">
<circle cx="193.31" cy="215.111" r="41.3695" fill="white"/>
</g>
<path d="M73.66 334.15C74.0767 334.15 74.4567 334.095 74.8 333.985C75.1433 333.875 75.4483 333.718 75.715 333.515L76.35 334.145L76.925 333.56L76.29 332.925C76.7767 332.268 77.02 331.427 77.02 330.4C77.02 329.66 76.89 329.008 76.63 328.445C76.37 327.882 75.99 327.442 75.49 327.125C74.99 326.808 74.38 326.65 73.66 326.65C72.9433 326.65 72.3333 326.808 71.83 327.125C71.33 327.442 70.95 327.882 70.69 328.445C70.43 329.008 70.3 329.66 70.3 330.4C70.3 331.14 70.43 331.792 70.69 332.355C70.95 332.918 71.33 333.358 71.83 333.675C72.3333 333.992 72.9433 334.15 73.66 334.15ZM73.66 333.3C73.1233 333.297 72.675 333.173 72.315 332.93C71.9583 332.687 71.69 332.348 71.51 331.915C71.33 331.478 71.2417 330.973 71.245 330.4C71.2483 329.823 71.3383 329.317 71.515 328.88C71.695 328.443 71.9633 328.103 72.32 327.86C72.6767 327.617 73.1233 327.497 73.66 327.5C74.1967 327.503 74.6433 327.627 75 327.87C75.36 328.113 75.6283 328.452 75.805 328.885C75.985 329.318 76.075 329.823 76.075 330.4C76.075 331.157 75.9267 331.778 75.63 332.265L74.97 331.605L74.385 332.19L75.08 332.88C74.8933 333.017 74.6817 333.122 74.445 333.195C74.2083 333.268 73.9467 333.303 73.66 333.3ZM77.7456 334H78.6706L79.2356 332.315H82.3106L82.8806 334H83.8056L81.3956 326.8H80.1556L77.7456 334ZM79.5156 331.48L80.7656 327.735L82.0306 331.48H79.5156ZM85.1173 334H88.1723C88.8323 334 89.354 333.815 89.7373 333.445C90.1207 333.072 90.3123 332.57 90.3123 331.94C90.3123 331.54 90.2123 331.188 90.0123 330.885C89.8123 330.578 89.529 330.347 89.1623 330.19C89.4123 330.043 89.609 329.84 89.7523 329.58C89.8957 329.32 89.9673 329.025 89.9673 328.695C89.9673 328.362 89.8857 328.052 89.7223 327.765C89.5623 327.475 89.329 327.242 89.0223 327.065C88.719 326.888 88.3523 326.8 87.9223 326.8H85.1173V334ZM86.0173 329.805V327.64H87.9123C88.249 327.64 88.5223 327.738 88.7323 327.935C88.9457 328.132 89.0523 328.385 89.0523 328.695C89.0523 329.032 88.9407 329.302 88.7173 329.505C88.4973 329.705 88.229 329.805 87.9123 329.805H86.0173ZM86.0173 333.15V330.645H88.1023C88.4857 330.645 88.7973 330.77 89.0373 331.02C89.2773 331.267 89.3973 331.572 89.3973 331.935C89.3973 332.315 89.264 332.613 88.9973 332.83C88.7307 333.043 88.399 333.15 88.0023 333.15H86.0173ZM94.5654 334.15C95.1221 334.15 95.6137 334.035 96.0404 333.805C96.4671 333.575 96.8004 333.252 97.0404 332.835C97.2837 332.418 97.4054 331.932 97.4054 331.375V326.8H96.5054V331.3C96.5054 331.75 96.4071 332.125 96.2104 332.425C96.0171 332.722 95.7704 332.943 95.4704 333.09C95.1737 333.237 94.8721 333.31 94.5654 333.31C94.2621 333.31 93.9604 333.238 93.6604 333.095C93.3637 332.948 93.1171 332.727 92.9204 332.43C92.7237 332.13 92.6254 331.753 92.6254 331.3V326.8L91.7254 326.805V331.375C91.7254 331.935 91.8454 332.423 92.0854 332.84C92.3287 333.253 92.6637 333.575 93.0904 333.805C93.5171 334.035 94.0087 334.15 94.5654 334.15ZM99.3221 334H103.552V333.155H100.212V326.8H99.3221V334ZM109.695 334.15C110.112 334.15 110.492 334.095 110.835 333.985C111.178 333.875 111.483 333.718 111.75 333.515L112.385 334.145L112.96 333.56L112.325 332.925C112.812 332.268 113.055 331.427 113.055 330.4C113.055 329.66 112.925 329.008 112.665 328.445C112.405 327.882 112.025 327.442 111.525 327.125C111.025 326.808 110.415 326.65 109.695 326.65C108.978 326.65 108.368 326.808 107.865 327.125C107.365 327.442 106.985 327.882 106.725 328.445C106.465 329.008 106.335 329.66 106.335 330.4C106.335 331.14 106.465 331.792 106.725 332.355C106.985 332.918 107.365 333.358 107.865 333.675C108.368 333.992 108.978 334.15 109.695 334.15ZM109.695 333.3C109.158 333.297 108.71 333.173 108.35 332.93C107.993 332.687 107.725 332.348 107.545 331.915C107.365 331.478 107.277 330.973 107.28 330.4C107.283 329.823 107.373 329.317 107.55 328.88C107.73 328.443 107.998 328.103 108.355 327.86C108.712 327.617 109.158 327.497 109.695 327.5C110.232 327.503 110.678 327.627 111.035 327.87C111.395 328.113 111.663 328.452 111.84 328.885C112.02 329.318 112.11 329.823 112.11 330.4C112.11 331.157 111.962 331.778 111.665 332.265L111.005 331.605L110.42 332.19L111.115 332.88C110.928 333.017 110.717 333.122 110.48 333.195C110.243 333.268 109.982 333.303 109.695 333.3ZM114.576 334H115.466V326.8H114.576V334ZM117.483 334H121.713V333.155H118.373V326.8H117.483V334ZM123.075 334H123.965V326.8H123.075V334ZM125.882 334H126.782V328.37L130.537 334H131.437V326.8H130.537V332.425L126.782 326.8H125.882V334ZM133.252 334H135.472C135.539 334 135.665 333.998 135.852 333.995C136.039 333.992 136.215 333.978 136.382 333.955C136.939 333.882 137.404 333.68 137.777 333.35C138.154 333.02 138.437 332.6 138.627 332.09C138.817 331.577 138.912 331.013 138.912 330.4C138.912 329.787 138.817 329.225 138.627 328.715C138.437 328.205 138.154 327.785 137.777 327.455C137.404 327.122 136.939 326.918 136.382 326.845C136.212 326.822 136.035 326.808 135.852 326.805C135.669 326.802 135.542 326.8 135.472 326.8H133.252V334ZM134.167 333.15V327.65H135.472C135.592 327.65 135.732 327.653 135.892 327.66C136.052 327.667 136.19 327.682 136.307 327.705C136.697 327.775 137.014 327.938 137.257 328.195C137.5 328.448 137.679 328.767 137.792 329.15C137.909 329.53 137.967 329.947 137.967 330.4C137.967 330.843 137.91 331.257 137.797 331.64C137.684 332.023 137.505 332.343 137.262 332.6C137.019 332.857 136.7 333.022 136.307 333.095C136.19 333.118 136.054 333.133 135.897 333.14C135.74 333.147 135.599 333.15 135.472 333.15H134.167ZM140.575 334H141.465V326.8H140.575V334Z" fill="#343A40"/>
<path fill-rule="evenodd" clip-rule="evenodd" d="M56 335.5C59.3137 335.5 62 332.814 62 329.5C62 326.186 59.3137 323.5 56 323.5C52.6863 323.5 50 326.186 50 329.5C50 332.814 52.6863 335.5 56 335.5Z" fill="#339AF0"/>
<path fill-rule="evenodd" clip-rule="evenodd" d="M56 332.5C57.6569 332.5 59 331.157 59 329.5C59 327.843 57.6569 326.5 56 326.5C54.3431 326.5 53 327.843 53 329.5C53 331.157 54.3431 332.5 56 332.5Z" fill="white"/>
<path d="M230.7 334H231.59V330.48L234.965 334H236.115L232.59 330.295L235.86 326.8H234.74L231.59 330.18V326.8H230.7V334ZM239.838 334.15C240.558 334.15 241.168 333.992 241.668 333.675C242.168 333.358 242.548 332.918 242.808 332.355C243.068 331.792 243.198 331.14 243.198 330.4C243.198 329.66 243.068 329.008 242.808 328.445C242.548 327.882 242.168 327.442 241.668 327.125C241.168 326.808 240.558 326.65 239.838 326.65C239.122 326.65 238.512 326.808 238.008 327.125C237.508 327.442 237.128 327.882 236.868 328.445C236.608 329.008 236.478 329.66 236.478 330.4C236.478 331.14 236.608 331.792 236.868 332.355C237.128 332.918 237.508 333.358 238.008 333.675C238.512 333.992 239.122 334.15 239.838 334.15ZM239.838 333.3C239.302 333.297 238.853 333.173 238.493 332.93C238.137 332.687 237.868 332.348 237.688 331.915C237.508 331.478 237.42 330.973 237.423 330.4C237.427 329.823 237.517 329.317 237.693 328.88C237.873 328.443 238.142 328.103 238.498 327.86C238.855 327.617 239.302 327.497 239.838 327.5C240.375 327.503 240.822 327.627 241.178 327.87C241.538 328.113 241.807 328.452 241.983 328.885C242.163 329.318 242.253 329.823 242.253 330.4C242.253 330.973 242.163 331.48 241.983 331.92C241.807 332.357 241.538 332.697 241.178 332.94C240.822 333.183 240.375 333.303 239.838 333.3ZM244.669 329.05C244.979 329.107 245.219 329.047 245.389 328.87C245.563 328.693 245.649 328.43 245.649 328.08V326.8H244.669V327.93H245.184C245.201 328.13 245.179 328.302 245.119 328.445C245.063 328.585 244.931 328.648 244.724 328.635L244.669 329.05ZM247.458 334H248.348V331.34H250.453L251.743 334H252.763L251.373 331.145C251.779 330.975 252.088 330.707 252.298 330.34C252.508 329.97 252.613 329.547 252.613 329.07C252.613 328.497 252.461 328.005 252.158 327.595C251.858 327.182 251.416 326.93 250.833 326.84C250.739 326.823 250.644 326.813 250.548 326.81C250.454 326.803 250.373 326.8 250.303 326.8H247.458V334ZM248.348 330.495V327.645H250.273C250.336 327.645 250.408 327.648 250.488 327.655C250.571 327.662 250.649 327.673 250.723 327.69C251.069 327.767 251.319 327.942 251.473 328.215C251.626 328.485 251.703 328.77 251.703 329.07C251.703 329.37 251.626 329.657 251.473 329.93C251.319 330.2 251.069 330.373 250.723 330.45C250.649 330.467 250.571 330.478 250.488 330.485C250.408 330.492 250.336 330.495 250.273 330.495H248.348ZM254.381 334H255.271V326.8H254.381V334ZM257.188 334H260.243C260.903 334 261.424 333.815 261.808 333.445C262.191 333.072 262.383 332.57 262.383 331.94C262.383 331.54 262.283 331.188 262.083 330.885C261.883 330.578 261.599 330.347 261.233 330.19C261.483 330.043 261.679 329.84 261.823 329.58C261.966 329.32 262.038 329.025 262.038 328.695C262.038 328.362 261.956 328.052 261.793 327.765C261.633 327.475 261.399 327.242 261.093 327.065C260.789 326.888 260.423 326.8 259.993 326.8H257.188V334ZM258.088 329.805V327.64H259.983C260.319 327.64 260.593 327.738 260.803 327.935C261.016 328.132 261.123 328.385 261.123 328.695C261.123 329.032 261.011 329.302 260.788 329.505C260.568 329.705 260.299 329.805 259.983 329.805H258.088ZM258.088 333.15V330.645H260.173C260.556 330.645 260.868 330.77 261.108 331.02C261.348 331.267 261.468 331.572 261.468 331.935C261.468 332.315 261.334 332.613 261.068 332.83C260.801 333.043 260.469 333.15 260.073 333.15H258.088ZM269.174 334.15C270.008 334.15 270.693 333.938 271.229 333.515C271.769 333.088 272.141 332.518 272.344 331.805L271.439 331.565C271.293 332.098 271.029 332.522 270.649 332.835C270.273 333.145 269.781 333.3 269.174 333.3C268.638 333.3 268.189 333.178 267.829 332.935C267.469 332.692 267.199 332.352 267.019 331.915C266.839 331.478 266.751 330.973 266.754 330.4C266.758 329.823 266.849 329.318 267.029 328.885C267.209 328.448 267.478 328.108 267.834 327.865C268.191 327.622 268.638 327.5 269.174 327.5C269.781 327.5 270.273 327.655 270.649 327.965C271.029 328.275 271.293 328.698 271.439 329.235L272.344 328.995C272.141 328.278 271.769 327.708 271.229 327.285C270.693 326.862 270.008 326.65 269.174 326.65C268.458 326.65 267.848 326.808 267.344 327.125C266.844 327.442 266.464 327.882 266.204 328.445C265.944 329.008 265.814 329.66 265.814 330.4C265.814 331.14 265.944 331.792 266.204 332.355C266.464 332.918 266.844 333.358 267.344 333.675C267.848 333.992 268.458 334.15 269.174 334.15ZM273.858 334H274.748V330.82H278.538V334H279.428V326.8H278.538V329.975H274.748V326.8H273.858V334ZM281.347 334H282.237V326.8H281.347V334ZM287.114 334.15C287.53 334.15 287.91 334.095 288.254 333.985C288.597 333.875 288.902 333.718 289.169 333.515L289.804 334.145L290.379 333.56L289.744 332.925C290.23 332.268 290.474 331.427 290.474 330.4C290.474 329.66 290.344 329.008 290.084 328.445C289.824 327.882 289.444 327.442 288.944 327.125C288.444 326.808 287.834 326.65 287.114 326.65C286.397 326.65 285.787 326.808 285.284 327.125C284.784 327.442 284.404 327.882 284.144 328.445C283.884 329.008 283.754 329.66 283.754 330.4C283.754 331.14 283.884 331.792 284.144 332.355C284.404 332.918 284.784 333.358 285.284 333.675C285.787 333.992 286.397 334.15 287.114 334.15ZM287.114 333.3C286.577 333.297 286.129 333.173 285.769 332.93C285.412 332.687 285.144 332.348 284.964 331.915C284.784 331.478 284.695 330.973 284.699 330.4C284.702 329.823 284.792 329.317 284.969 328.88C285.149 328.443 285.417 328.103 285.774 327.86C286.13 327.617 286.577 327.497 287.114 327.5C287.65 327.503 288.097 327.627 288.454 327.87C288.814 328.113 289.082 328.452 289.259 328.885C289.439 329.318 289.529 329.823 289.529 330.4C289.529 331.157 289.38 331.778 289.084 332.265L288.424 331.605L287.839 332.19L288.534 332.88C288.347 333.017 288.135 333.122 287.899 333.195C287.662 333.268 287.4 333.303 287.114 333.3ZM291.995 334H292.885V326.8H291.995V334ZM294.902 334H299.132V333.155H295.792V326.8H294.902V334ZM300.394 334H302.614C302.681 334 302.807 333.998 302.994 333.995C303.181 333.992 303.357 333.978 303.524 333.955C304.081 333.882 304.546 333.68 304.919 333.35C305.296 333.02 305.579 332.6 305.769 332.09C305.959 331.577 306.054 331.013 306.054 330.4C306.054 329.787 305.959 329.225 305.769 328.715C305.579 328.205 305.296 327.785 304.919 327.455C304.546 327.122 304.081 326.918 303.524 326.845C303.354 326.822 303.177 326.808 302.994 326.805C302.811 326.802 302.684 326.8 302.614 326.8H300.394V334ZM301.309 333.15V327.65H302.614C302.734 327.65 302.874 327.653 303.034 327.66C303.194 327.667 303.332 327.682 303.449 327.705C303.839 327.775 304.156 327.938 304.399 328.195C304.642 328.448 304.821 328.767 304.934 329.15C305.051 329.53 305.109 329.947 305.109 330.4C305.109 330.843 305.052 331.257 304.939 331.64C304.826 332.023 304.647 332.343 304.404 332.6C304.161 332.857 303.842 333.022 303.449 333.095C303.332 333.118 303.196 333.133 303.039 333.14C302.882 333.147 302.741 333.15 302.614 333.15H301.309ZM307.717 334H308.607V326.8H307.717V334Z" fill="#868E96"/>
<path fill-rule="evenodd" clip-rule="evenodd" d="M216 335.5C219.314 335.5 222 332.814 222 329.5C222 326.186 219.314 323.5 216 323.5C212.686 323.5 210 326.186 210 329.5C210 332.814 212.686 335.5 216 335.5Z" fill="#51CF66"/>
<path fill-rule="evenodd" clip-rule="evenodd" d="M216 332.5C217.657 332.5 219 331.157 219 329.5C219 327.843 217.657 326.5 216 326.5C214.343 326.5 213 327.843 213 329.5C213 331.157 214.343 332.5 216 332.5Z" fill="white"/>
<path d="M70.7 364H71.59V360.48L74.965 364H76.115L72.59 360.295L75.86 356.8H74.74L71.59 360.18V356.8H70.7V364ZM79.8384 364.15C80.5584 364.15 81.1684 363.992 81.6684 363.675C82.1684 363.358 82.5484 362.918 82.8084 362.355C83.0684 361.792 83.1984 361.14 83.1984 360.4C83.1984 359.66 83.0684 359.008 82.8084 358.445C82.5484 357.882 82.1684 357.442 81.6684 357.125C81.1684 356.808 80.5584 356.65 79.8384 356.65C79.1217 356.65 78.5117 356.808 78.0084 357.125C77.5084 357.442 77.1284 357.882 76.8684 358.445C76.6084 359.008 76.4784 359.66 76.4784 360.4C76.4784 361.14 76.6084 361.792 76.8684 362.355C77.1284 362.918 77.5084 363.358 78.0084 363.675C78.5117 363.992 79.1217 364.15 79.8384 364.15ZM79.8384 363.3C79.3017 363.297 78.8534 363.173 78.4934 362.93C78.1367 362.687 77.8684 362.348 77.6884 361.915C77.5084 361.478 77.4201 360.973 77.4234 360.4C77.4267 359.823 77.5167 359.317 77.6934 358.88C77.8734 358.443 78.1417 358.103 78.4984 357.86C78.8551 357.617 79.3017 357.497 79.8384 357.5C80.3751 357.503 80.8217 357.627 81.1784 357.87C81.5384 358.113 81.8067 358.452 81.9834 358.885C82.1634 359.318 82.2534 359.823 82.2534 360.4C82.2534 360.973 82.1634 361.48 81.9834 361.92C81.8067 362.357 81.5384 362.697 81.1784 362.94C80.8217 363.183 80.3751 363.303 79.8384 363.3ZM84.6693 359.05C84.9793 359.107 85.2193 359.047 85.3893 358.87C85.5626 358.693 85.6493 358.43 85.6493 358.08V356.8H84.6693V357.93H85.1843C85.2009 358.13 85.1793 358.302 85.1193 358.445C85.0626 358.585 84.9309 358.648 84.7243 358.635L84.6693 359.05ZM87.4578 364H88.3478V361.34H90.4528L91.7428 364H92.7628L91.3728 361.145C91.7795 360.975 92.0878 360.707 92.2978 360.34C92.5078 359.97 92.6128 359.547 92.6128 359.07C92.6128 358.497 92.4611 358.005 92.1578 357.595C91.8578 357.182 91.4161 356.93 90.8328 356.84C90.7395 356.823 90.6445 356.813 90.5478 356.81C90.4545 356.803 90.3728 356.8 90.3028 356.8H87.4578V364ZM88.3478 360.495V357.645H90.2728C90.3361 357.645 90.4078 357.648 90.4878 357.655C90.5711 357.662 90.6495 357.673 90.7228 357.69C91.0695 357.767 91.3195 357.942 91.4728 358.215C91.6261 358.485 91.7028 358.77 91.7028 359.07C91.7028 359.37 91.6261 359.657 91.4728 359.93C91.3195 360.2 91.0695 360.373 90.7228 360.45C90.6495 360.467 90.5711 360.478 90.4878 360.485C90.4078 360.492 90.3361 360.495 90.2728 360.495H88.3478ZM94.3807 364H95.2707V356.8H94.3807V364ZM97.1876 364H100.243C100.903 364 101.424 363.815 101.808 363.445C102.191 363.072 102.383 362.57 102.383 361.94C102.383 361.54 102.283 361.188 102.083 360.885C101.883 360.578 101.599 360.347 101.233 360.19C101.483 360.043 101.679 359.84 101.823 359.58C101.966 359.32 102.038 359.025 102.038 358.695C102.038 358.362 101.956 358.052 101.793 357.765C101.633 357.475 101.399 357.242 101.093 357.065C100.789 356.888 100.423 356.8 99.9926 356.8H97.1876V364ZM98.0876 359.805V357.64H99.9826C100.319 357.64 100.593 357.738 100.803 357.935C101.016 358.132 101.123 358.385 101.123 358.695C101.123 359.032 101.011 359.302 100.788 359.505C100.568 359.705 100.299 359.805 99.9826 359.805H98.0876ZM98.0876 363.15V360.645H100.173C100.556 360.645 100.868 360.77 101.108 361.02C101.348 361.267 101.468 361.572 101.468 361.935C101.468 362.315 101.334 362.613 101.068 362.83C100.801 363.043 100.469 363.15 100.073 363.15H98.0876ZM109.174 364.15C110.008 364.15 110.693 363.938 111.229 363.515C111.769 363.088 112.141 362.518 112.344 361.805L111.439 361.565C111.293 362.098 111.029 362.522 110.649 362.835C110.273 363.145 109.781 363.3 109.174 363.3C108.638 363.3 108.189 363.178 107.829 362.935C107.469 362.692 107.199 362.352 107.019 361.915C106.839 361.478 106.751 360.973 106.754 360.4C106.758 359.823 106.849 359.318 107.029 358.885C107.209 358.448 107.478 358.108 107.834 357.865C108.191 357.622 108.638 357.5 109.174 357.5C109.781 357.5 110.273 357.655 110.649 357.965C111.029 358.275 111.293 358.698 111.439 359.235L112.344 358.995C112.141 358.278 111.769 357.708 111.229 357.285C110.693 356.862 110.008 356.65 109.174 356.65C108.458 356.65 107.848 356.808 107.344 357.125C106.844 357.442 106.464 357.882 106.204 358.445C105.944 359.008 105.814 359.66 105.814 360.4C105.814 361.14 105.944 361.792 106.204 362.355C106.464 362.918 106.844 363.358 107.344 363.675C107.848 363.992 108.458 364.15 109.174 364.15ZM113.858 364H114.748V360.82H118.538V364H119.428V356.8H118.538V359.975H114.748V356.8H113.858V364ZM121.347 364H122.237V356.8H121.347V364ZM127.114 364.15C127.53 364.15 127.91 364.095 128.254 363.985C128.597 363.875 128.902 363.718 129.169 363.515L129.804 364.145L130.379 363.56L129.744 362.925C130.23 362.268 130.474 361.427 130.474 360.4C130.474 359.66 130.344 359.008 130.084 358.445C129.824 357.882 129.444 357.442 128.944 357.125C128.444 356.808 127.834 356.65 127.114 356.65C126.397 356.65 125.787 356.808 125.284 357.125C124.784 357.442 124.404 357.882 124.144 358.445C123.884 359.008 123.754 359.66 123.754 360.4C123.754 361.14 123.884 361.792 124.144 362.355C124.404 362.918 124.784 363.358 125.284 363.675C125.787 363.992 126.397 364.15 127.114 364.15ZM127.114 363.3C126.577 363.297 126.129 363.173 125.769 362.93C125.412 362.687 125.144 362.348 124.964 361.915C124.784 361.478 124.695 360.973 124.699 360.4C124.702 359.823 124.792 359.317 124.969 358.88C125.149 358.443 125.417 358.103 125.774 357.86C126.13 357.617 126.577 357.497 127.114 357.5C127.65 357.503 128.097 357.627 128.454 357.87C128.814 358.113 129.082 358.452 129.259 358.885C129.439 359.318 129.529 359.823 129.529 360.4C129.529 361.157 129.38 361.778 129.084 362.265L128.424 361.605L127.839 362.19L128.534 362.88C128.347 363.017 128.135 363.122 127.899 363.195C127.662 363.268 127.4 363.303 127.114 363.3ZM131.995 364H132.885V356.8H131.995V364ZM134.902 364H139.132V363.155H135.792V356.8H134.902V364ZM140.394 364H141.239V358.755L143.684 364H144.159L146.604 358.755V363.995H147.449V356.8H146.629L143.924 362.535L141.204 356.8H140.394V364ZM152.228 364.15C152.948 364.15 153.558 363.992 154.058 363.675C154.558 363.358 154.938 362.918 155.198 362.355C155.458 361.792 155.588 361.14 155.588 360.4C155.588 359.66 155.458 359.008 155.198 358.445C154.938 357.882 154.558 357.442 154.058 357.125C153.558 356.808 152.948 356.65 152.228 356.65C151.511 356.65 150.901 356.808 150.398 357.125C149.898 357.442 149.518 357.882 149.258 358.445C148.998 359.008 148.868 359.66 148.868 360.4C148.868 361.14 148.998 361.792 149.258 362.355C149.518 362.918 149.898 363.358 150.398 363.675C150.901 363.992 151.511 364.15 152.228 364.15ZM152.228 363.3C151.691 363.297 151.243 363.173 150.883 362.93C150.526 362.687 150.258 362.348 150.078 361.915C149.898 361.478 149.809 360.973 149.813 360.4C149.816 359.823 149.906 359.317 150.083 358.88C150.263 358.443 150.531 358.103 150.888 357.86C151.244 357.617 151.691 357.497 152.228 357.5C152.764 357.503 153.211 357.627 153.568 357.87C153.928 358.113 154.196 358.452 154.373 358.885C154.553 359.318 154.643 359.823 154.643 360.4C154.643 360.973 154.553 361.48 154.373 361.92C154.196 362.357 153.928 362.697 153.568 362.94C153.211 363.183 152.764 363.303 152.228 363.3ZM159.969 364.15C160.385 364.15 160.765 364.095 161.109 363.985C161.452 363.875 161.757 363.718 162.024 363.515L162.659 364.145L163.234 363.56L162.599 362.925C163.085 362.268 163.329 361.427 163.329 360.4C163.329 359.66 163.199 359.008 162.939 358.445C162.679 357.882 162.299 357.442 161.799 357.125C161.299 356.808 160.689 356.65 159.969 356.65C159.252 356.65 158.642 356.808 158.139 357.125C157.639 357.442 157.259 357.882 156.999 358.445C156.739 359.008 156.609 359.66 156.609 360.4C156.609 361.14 156.739 361.792 156.999 362.355C157.259 362.918 157.639 363.358 158.139 363.675C158.642 363.992 159.252 364.15 159.969 364.15ZM159.969 363.3C159.432 363.297 158.984 363.173 158.624 362.93C158.267 362.687 157.999 362.348 157.819 361.915C157.639 361.478 157.55 360.973 157.554 360.4C157.557 359.823 157.647 359.317 157.824 358.88C158.004 358.443 158.272 358.103 158.629 357.86C158.985 357.617 159.432 357.497 159.969 357.5C160.505 357.503 160.952 357.627 161.309 357.87C161.669 358.113 161.937 358.452 162.114 358.885C162.294 359.318 162.384 359.823 162.384 360.4C162.384 361.157 162.235 361.778 161.939 362.265L161.279 361.605L160.694 362.19L161.389 362.88C161.202 363.017 160.99 363.122 160.754 363.195C160.517 363.268 160.255 363.303 159.969 363.3ZM164.749 364H166.969C167.036 364 167.163 363.998 167.349 363.995C167.536 363.992 167.713 363.978 167.879 363.955C168.436 363.882 168.901 363.68 169.274 363.35C169.651 363.02 169.934 362.6 170.124 362.09C170.314 361.577 170.409 361.013 170.409 360.4C170.409 359.787 170.314 359.225 170.124 358.715C169.934 358.205 169.651 357.785 169.274 357.455C168.901 357.122 168.436 356.918 167.879 356.845C167.709 356.822 167.533 356.808 167.349 356.805C167.166 356.802 167.039 356.8 166.969 356.8H164.749V364ZM165.664 363.15V357.65H166.969C167.089 357.65 167.229 357.653 167.389 357.66C167.549 357.667 167.688 357.682 167.804 357.705C168.194 357.775 168.511 357.938 168.754 358.195C168.998 358.448 169.176 358.767 169.289 359.15C169.406 359.53 169.464 359.947 169.464 360.4C169.464 360.843 169.408 361.257 169.294 361.64C169.181 362.023 169.003 362.343 168.759 362.6C168.516 362.857 168.198 363.022 167.804 363.095C167.688 363.118 167.551 363.133 167.394 363.14C167.238 363.147 167.096 363.15 166.969 363.15H165.664ZM171.277 364H172.202L172.767 362.315H175.842L176.412 364H177.337L174.927 356.8H173.687L171.277 364ZM173.047 361.48L174.297 357.735L175.562 361.48H173.047Z" fill="#868E96"/>
<path fill-rule="evenodd" clip-rule="evenodd" d="M56 365.5C59.3137 365.5 62 362.814 62 359.5C62 356.186 59.3137 353.5 56 353.5C52.6863 353.5 50 356.186 50 359.5C50 362.814 52.6863 365.5 56 365.5Z" fill="#F48C2A"/>
<path fill-rule="evenodd" clip-rule="evenodd" d="M56 362.5C57.6569 362.5 59 361.157 59 359.5C59 357.843 57.6569 356.5 56 356.5C54.3431 356.5 53 357.843 53 359.5C53 361.157 54.3431 362.5 56 362.5Z" fill="white"/>
<path d="M230.7 364H231.59V360.48L234.965 364H236.115L232.59 360.295L235.86 356.8H234.74L231.59 360.18V356.8H230.7V364ZM237.23 364H241.78V363.155H238.12V360.745H241.18V359.9H238.12V357.645H241.78V356.8H237.23V364ZM243.499 364H247.729V363.155H244.389V356.8H243.499V364ZM249.091 364H249.981V356.8H249.091V364ZM251.898 364H254.953C255.613 364 256.135 363.815 256.518 363.445C256.901 363.072 257.093 362.57 257.093 361.94C257.093 361.54 256.993 361.188 256.793 360.885C256.593 360.578 256.31 360.347 255.943 360.19C256.193 360.043 256.39 359.84 256.533 359.58C256.676 359.32 256.748 359.025 256.748 358.695C256.748 358.362 256.666 358.052 256.503 357.765C256.343 357.475 256.11 357.242 255.803 357.065C255.5 356.888 255.133 356.8 254.703 356.8H251.898V364ZM252.798 359.805V357.64H254.693C255.03 357.64 255.303 357.738 255.513 357.935C255.726 358.132 255.833 358.385 255.833 358.695C255.833 359.032 255.721 359.302 255.498 359.505C255.278 359.705 255.01 359.805 254.693 359.805H252.798ZM252.798 363.15V360.645H254.883C255.266 360.645 255.578 360.77 255.818 361.02C256.058 361.267 256.178 361.572 256.178 361.935C256.178 362.315 256.045 362.613 255.778 362.83C255.511 363.043 255.18 363.15 254.783 363.15H252.798ZM262.78 364H263.67V357.645H266.125V356.8H260.325V357.645H262.78V364ZM270.177 364.15C270.734 364.15 271.226 364.035 271.652 363.805C272.079 363.575 272.412 363.252 272.652 362.835C272.896 362.418 273.017 361.932 273.017 361.375V356.8H272.117V361.3C272.117 361.75 272.019 362.125 271.822 362.425C271.629 362.722 271.382 362.943 271.082 363.09C270.786 363.237 270.484 363.31 270.177 363.31C269.874 363.31 269.572 363.238 269.272 363.095C268.976 362.948 268.729 362.727 268.532 362.43C268.336 362.13 268.237 361.753 268.237 361.3V356.8L267.337 356.805V361.375C267.337 361.935 267.457 362.423 267.697 362.84C267.941 363.253 268.276 363.575 268.702 363.805C269.129 364.035 269.621 364.15 270.177 364.15ZM277.086 364.15C277.586 364.15 278.04 364.067 278.446 363.9C278.853 363.733 279.176 363.49 279.416 363.17C279.66 362.847 279.781 362.453 279.781 361.99C279.781 361.643 279.718 361.357 279.591 361.13C279.465 360.9 279.305 360.717 279.111 360.58C278.918 360.44 278.718 360.332 278.511 360.255C278.308 360.178 278.128 360.118 277.971 360.075L276.601 359.68C276.425 359.63 276.243 359.567 276.056 359.49C275.87 359.41 275.713 359.303 275.586 359.17C275.463 359.033 275.401 358.855 275.401 358.635C275.401 358.412 275.47 358.215 275.606 358.045C275.746 357.872 275.935 357.737 276.171 357.64C276.411 357.543 276.678 357.497 276.971 357.5C277.428 357.503 277.826 357.633 278.166 357.89C278.51 358.143 278.718 358.488 278.791 358.925L279.736 358.76C279.603 358.103 279.291 357.59 278.801 357.22C278.315 356.847 277.708 356.658 276.981 356.655C276.505 356.652 276.075 356.73 275.691 356.89C275.311 357.05 275.011 357.282 274.791 357.585C274.571 357.885 274.461 358.248 274.461 358.675C274.461 359.028 274.535 359.322 274.681 359.555C274.831 359.788 275.025 359.975 275.261 360.115C275.501 360.252 275.755 360.36 276.021 360.44L277.856 360.985C278.113 361.062 278.345 361.178 278.551 361.335C278.758 361.488 278.861 361.723 278.861 362.04C278.861 362.3 278.783 362.525 278.626 362.715C278.473 362.905 278.266 363.052 278.006 363.155C277.746 363.255 277.455 363.305 277.131 363.305C276.628 363.305 276.193 363.178 275.826 362.925C275.46 362.668 275.218 362.313 275.101 361.86L274.181 362.005C274.261 362.445 274.433 362.827 274.696 363.15C274.963 363.47 275.3 363.717 275.706 363.89C276.116 364.063 276.576 364.15 277.086 364.15ZM281.247 364H282.137V360.82H285.927V364H286.817V356.8H285.927V359.975H282.137V356.8H281.247V364ZM291.551 364.15C292.255 364.15 292.845 364.002 293.321 363.705C293.801 363.408 294.163 363.002 294.406 362.485C294.653 361.965 294.776 361.377 294.776 360.72C294.776 360.69 294.775 360.63 294.771 360.54C294.768 360.447 294.763 360.365 294.756 360.295H292.286V361.03H293.816C293.763 361.747 293.553 362.305 293.186 362.705C292.823 363.105 292.293 363.303 291.596 363.3C291.06 363.297 290.611 363.173 290.251 362.93C289.895 362.687 289.626 362.348 289.446 361.915C289.266 361.478 289.178 360.973 289.181 360.4C289.185 359.823 289.275 359.318 289.451 358.885C289.631 358.448 289.9 358.108 290.256 357.865C290.613 357.622 291.06 357.502 291.596 357.505C292.11 357.508 292.536 357.64 292.876 357.9C293.22 358.157 293.468 358.503 293.621 358.94L294.521 358.755C294.335 358.108 293.995 357.597 293.501 357.22C293.008 356.843 292.358 356.655 291.551 356.655C290.881 356.655 290.298 356.808 289.801 357.115C289.305 357.418 288.92 357.85 288.646 358.41C288.373 358.97 288.236 359.633 288.236 360.4C288.236 361.173 288.375 361.84 288.651 362.4C288.928 362.96 289.315 363.392 289.811 363.695C290.311 363.998 290.891 364.15 291.551 364.15ZM295.496 364H296.421L296.986 362.315H300.061L300.631 364H301.556L299.146 356.8H297.906L295.496 364ZM297.266 361.48L298.516 357.735L299.781 361.48H297.266ZM302.868 364H303.768V358.37L307.523 364H308.423V356.8H307.523V362.425L303.768 356.8H302.868V364Z" fill="#868E96"/>
<path fill-rule="evenodd" clip-rule="evenodd" d="M216 365.5C219.314 365.5 222 362.814 222 359.5C222 356.186 219.314 353.5 216 353.5C212.686 353.5 210 356.186 210 359.5C210 362.814 212.686 365.5 216 365.5Z" fill="#EEEEEF"/>
<path fill-rule="evenodd" clip-rule="evenodd" d="M216 362.5C217.657 362.5 219 361.157 219 359.5C219 357.843 217.657 356.5 216 356.5C214.343 356.5 213 357.843 213 359.5C213 361.157 214.343 362.5 216 362.5Z" fill="white"/>
<defs>
<filter id="filter0_d" x="0" y="0" width="400" height="480" filterUnits="userSpaceOnUse" color-interpolation-filters="sRGB">
<feFlood flood-opacity="0" result="BackgroundImageFix"/>
<feColorMatrix in="SourceAlpha" type="matrix" values="0 0 0 0 0 0 0 0 0 0 0 0 0 0 0 0 0 0 127 0"/>
<feOffset/>
<feGaussianBlur stdDeviation="15"/>
<feColorMatrix type="matrix" values="0 0 0 0 0.239216 0 0 0 0 0.580392 0 0 0 0 0.588235 0 0 0 0.15 0"/>
<feBlend mode="normal" in2="BackgroundImageFix" result="effect1_dropShadow"/>
<feBlend mode="normal" in="SourceGraphic" in2="effect1_dropShadow" result="shape"/>
</filter>
<filter id="filter1_dd" x="192" y="100" width="130" height="96" filterUnits="userSpaceOnUse" color-interpolation-filters="sRGB">
<feFlood flood-opacity="0" result="BackgroundImageFix"/>
<feColorMatrix in="SourceAlpha" type="matrix" values="0 0 0 0 0 0 0 0 0 0 0 0 0 0 0 0 0 0 127 0"/>
<feOffset dy="4"/>
<feGaussianBlur stdDeviation="12"/>
<feColorMatrix type="matrix" values="0 0 0 0 0 0 0 0 0 0 0 0 0 0 0 0 0 0 0.08 0"/>
<feBlend mode="normal" in2="BackgroundImageFix" result="effect1_dropShadow"/>
<feColorMatrix in="SourceAlpha" type="matrix" values="0 0 0 0 0 0 0 0 0 0 0 0 0 0 0 0 0 0 127 0"/>
<feOffset dy="2"/>
<feGaussianBlur stdDeviation="2"/>
<feColorMatrix type="matrix" values="0 0 0 0 0 0 0 0 0 0 0 0 0 0 0 0 0 0 0.08 0"/>
<feBlend mode="normal" in2="effect1_dropShadow" result="effect2_dropShadow"/>
<feBlend mode="normal" in="SourceGraphic" in2="effect2_dropShadow" result="shape"/>
</filter>
<filter id="filter2_d" x="111.315" y="138.818" width="163.99" height="163.99" filterUnits="userSpaceOnUse" color-interpolation-filters="sRGB">
<feFlood flood-opacity="0" result="BackgroundImageFix"/>
<feColorMatrix in="SourceAlpha" type="matrix" values="0 0 0 0 0 0 0 0 0 0 0 0 0 0 0 0 0 0 127 0"/>
<feOffset dy="5.70179"/>
<feGaussianBlur stdDeviation="20.3126"/>
<feColorMatrix type="matrix" values="0 0 0 0 0 0 0 0 0 0 0 0 0 0 0 0 0 0 0.14 0"/>
<feBlend mode="normal" in2="BackgroundImageFix" result="effect1_dropShadow"/>
<feBlend mode="normal" in="SourceGraphic" in2="effect1_dropShadow" result="shape"/>
</filter>
</defs>
</svg>
