<svg width="200" height="38" viewBox="0 0 200 38" fill="none" xmlns="http://www.w3.org/2000/svg">
<path fill-rule="evenodd" clip-rule="evenodd" d="M20.2056 17.1719H23.3916H32.9498V20.3769H23.3916V29.9922H26.5777V26.7872V23.5821H29.7639H32.9498V26.7872H29.7639V29.9922H32.9498V33.1974H20.2056V33.1973V29.9922V20.3769V17.1719Z" fill="white"/>
<path fill-rule="evenodd" clip-rule="evenodd" d="M32.9496 4.35156V7.55661H4.2749V4.35156H32.9496Z" fill="white"/>
<path fill-rule="evenodd" clip-rule="evenodd" d="M32.9496 10.7617V13.9668H20.2054V10.7617H32.9496ZM17.0192 13.9668V33.1972H13.8331V13.9668H10.647V33.1972H7.46097V13.9668H4.2749V10.7617H7.46097H10.647H13.8331H17.0192V13.9668Z" fill="white"/>
<path d="M42.544 15.3469V6.07934H38.1597V4.87465H48.2223V6.07934H43.8379V15.3469H42.544ZM48.7823 15.3469V4.87465H56.9715V6.07934H50.0764V9.14902H54.2482V10.3537H50.0764V14.1424H57.3964V15.3469H48.7823ZM67.6295 12.0052L68.6725 12.7824C68.196 13.6922 67.5395 14.3949 66.7089 14.8839C65.8816 15.3729 64.9385 15.619 63.8794 15.619C62.3214 15.619 61.0338 15.1008 60.0166 14.0679C59.0026 13.0348 58.4941 11.7235 58.4941 10.1336C58.4941 8.5403 59.0026 7.22561 60.0198 6.19268C61.0403 5.15959 62.3247 4.6416 63.8763 4.6416C64.8387 4.6416 65.7175 4.85204 66.5094 5.27626C67.3012 5.70048 67.9451 6.30601 68.4407 7.08967L67.3559 7.8668C67.0308 7.24185 66.5576 6.74965 65.9429 6.3966C65.328 6.04368 64.6391 5.86556 63.8794 5.86556C62.711 5.86556 61.7421 6.27036 60.9759 7.07662C60.2099 7.88303 59.8268 8.90293 59.8268 10.1336C59.8268 11.3672 60.2099 12.3873 60.9759 13.1903C61.7421 13.9934 62.711 14.3949 63.8794 14.3949C64.6971 14.3949 65.4213 14.191 66.0555 13.7862C66.6896 13.3814 67.2143 12.7887 67.6295 12.0052ZM70.9901 15.3469V4.87465H72.3035V9.01307H78.4454V4.87465H79.7393V15.3469H78.4454V10.2176H72.3035V15.3469H70.9901ZM82.8906 15.3469V4.87465H83.57L90.3266 12.7013V4.87465H91.6206V15.3469H90.9607L84.1847 7.52026V15.3469H82.8906ZM99.2849 14.3949C100.453 14.3949 101.422 13.9934 102.192 13.1903C102.958 12.3873 103.341 11.3672 103.341 10.1336C103.341 8.89655 102.958 7.87332 102.195 7.07025C101.432 6.26717 100.46 5.86556 99.2849 5.86556C98.1164 5.86556 97.1475 6.27036 96.3782 7.07662C95.6121 7.88303 95.229 8.90293 95.229 10.1336C95.229 11.3672 95.6121 12.3873 96.3782 13.1903C97.1475 13.9934 98.1164 14.3949 99.2849 14.3949ZM99.2817 15.619C97.7205 15.619 96.4329 15.1008 95.4189 14.0679C94.4049 13.0348 93.8964 11.7235 93.8964 10.1336C93.8964 8.5403 94.4049 7.22561 95.4254 6.19268C96.4426 5.15959 97.727 4.6416 99.2817 4.6416C100.84 4.6416 102.131 5.15959 103.157 6.19905C104.181 7.23532 104.693 8.54682 104.693 10.1336C104.693 11.7235 104.181 13.0348 103.161 14.0679C102.14 15.1008 100.846 15.619 99.2817 15.619ZM115.274 12.0052L116.317 12.7824C115.84 13.6922 115.184 14.3949 114.353 14.8839C113.526 15.3729 112.583 15.619 111.524 15.619C109.966 15.619 108.678 15.1008 107.661 14.0679C106.647 13.0348 106.138 11.7235 106.138 10.1336C106.138 8.5403 106.647 7.22561 107.664 6.19268C108.684 5.15959 109.969 4.6416 111.52 4.6416C112.483 4.6416 113.362 4.85204 114.154 5.27626C114.945 5.70048 115.589 6.30601 116.085 7.08967L115 7.8668C114.675 7.24185 114.202 6.74965 113.587 6.3966C112.972 6.04368 112.283 5.86556 111.524 5.86556C110.355 5.86556 109.386 6.27036 108.62 7.07662C107.854 7.88303 107.471 8.90293 107.471 10.1336C107.471 11.3672 107.854 12.3873 108.62 13.1903C109.386 13.9934 110.355 14.3949 111.524 14.3949C112.341 14.3949 113.065 14.191 113.7 13.7862C114.334 13.3814 114.858 12.7887 115.274 12.0052ZM123.192 14.3949C124.361 14.3949 125.33 13.9934 126.099 13.1903C126.865 12.3873 127.248 11.3672 127.248 10.1336C127.248 8.89655 126.865 7.87332 126.102 7.07025C125.339 6.26717 124.367 5.86556 123.192 5.86556C122.024 5.86556 121.055 6.27036 120.286 7.07662C119.52 7.88303 119.136 8.90293 119.136 10.1336C119.136 11.3672 119.52 12.3873 120.286 13.1903C121.055 13.9934 122.024 14.3949 123.192 14.3949ZM123.189 15.619C121.628 15.619 120.34 15.1008 119.326 14.0679C118.312 13.0348 117.804 11.7235 117.804 10.1336C117.804 8.5403 118.312 7.22561 119.333 6.19268C120.35 5.15959 121.634 4.6416 123.189 4.6416C124.747 4.6416 126.038 5.15959 127.065 6.19905C128.088 7.23532 128.6 8.54682 128.6 10.1336C128.6 11.7235 128.088 13.0348 127.068 14.0679C126.048 15.1008 124.754 15.619 123.189 15.619ZM132.112 9.53773H136.709C137.362 9.53773 137.858 9.39193 138.193 9.10047C138.531 8.81234 138.698 8.38493 138.698 7.82143C138.698 7.27417 138.531 6.84357 138.193 6.53907C137.858 6.23152 137.385 6.07934 136.773 6.07934H132.112V9.53773ZM130.818 15.3469V4.87465H136.793C137.81 4.87465 138.605 5.13379 139.184 5.6486C139.761 6.16354 140.05 6.87589 140.05 7.78578C140.05 8.54349 139.825 9.1912 139.374 9.73194C138.92 10.2727 138.325 10.6095 137.585 10.7423L140.185 15.3469H138.756L136.152 10.7617H132.112V15.3469H130.818ZM143.646 9.53773H148.243C148.896 9.53773 149.392 9.39193 149.727 9.10047C150.065 8.81234 150.232 8.38493 150.232 7.82143C150.232 7.27417 150.065 6.84357 149.727 6.53907C149.392 6.23152 148.919 6.07934 148.307 6.07934H143.646V9.53773ZM142.352 15.3469V4.87465H148.326C149.337 4.87465 150.132 5.12727 150.712 5.63251C151.294 6.1376 151.584 6.83053 151.584 7.7081C151.584 8.61799 151.304 9.35628 150.741 9.91659C150.18 10.4799 149.43 10.7617 148.497 10.7617H143.646V15.3469H142.352Z" fill="white" stroke="white" stroke-width="0.0762" stroke-miterlimit="22.9256"/>
<path d="M40.966 21.0951H39.1114V25.2427H38.5664V20.5889H40.966V21.0951Z" fill="white"/>
<path d="M44.9583 20.5889L43.5288 23.8368C43.2745 24.4129 43.0288 24.804 42.7933 25.0122C42.5564 25.2193 42.2977 25.3235 42.019 25.3235C41.7889 25.3235 41.5962 25.2904 41.4409 25.2227V24.6711C41.6258 24.7818 41.8043 24.8371 41.9761 24.8371C42.1511 24.8371 42.3109 24.7696 42.4573 24.6345C42.6038 24.4993 42.7613 24.26 42.932 23.9189L41.3638 20.5889H41.9794L43.0895 23.0748C43.1092 23.1156 43.1489 23.2165 43.2095 23.3761H43.215C43.2216 23.3572 43.2657 23.252 43.3483 23.0614L44.3768 20.5889H44.9583Z" fill="white"/>
<path d="M49.0349 25.2427H48.4866V21.0951H46.0704V25.2427H45.5254V20.5889H49.0349V25.2427Z" fill="white"/>
<path d="M54.4916 24.5935H53.9487L52.984 23.5034L53.9487 22.3867H54.4971L53.507 23.5034L54.4916 24.5935ZM53.2361 24.5935H52.7009L51.7363 23.5034L52.7009 22.3867H53.2361L52.2583 23.5034L53.2361 24.5935Z" fill="white"/>
<path d="M59.4853 26.4923H58.9842V25.2427H55.3877V20.5889H55.9294V24.7498H58.3235V20.5889H58.8654V24.7498H59.4853V26.4923Z" fill="white"/>
<path d="M62.7428 25.2427H60.2915V20.5889H62.6403V21.0818H60.8332V22.6305H62.5049V23.1201H60.8332V24.7498H62.7428V25.2427Z" fill="white"/>
<path d="M67.1115 25.2427H66.5696V23.1201H64.1755V25.2427H63.6338V20.5889H64.1755V22.6305H66.5696V20.5889H67.1115V25.2427Z" fill="white"/>
<path d="M71.0607 21.0818H69.7249V25.2427H69.1831V21.0818H67.8506V20.5889H71.0607V21.0818Z" fill="white"/>
<path d="M72.3293 23.4835V25.2427H71.7876V20.5889H73.0583C73.5528 20.5889 73.936 20.7096 74.2092 20.9522C74.4812 21.1948 74.6166 21.536 74.6166 21.9781C74.6166 22.4189 74.4658 22.7801 74.163 23.0614C73.8611 23.3427 73.4527 23.4835 72.9395 23.4835H72.3293ZM72.3293 21.0818V22.9906H72.8975C73.2708 22.9906 73.5573 22.9042 73.7532 22.7324C73.9503 22.5607 74.0484 22.3171 74.0484 22.0034C74.0484 21.3886 73.6872 21.0818 72.9647 21.0818H72.3293Z" fill="white"/>
<path d="M77.8396 23.4835V25.2427H77.2979V20.5889H78.5686C79.0631 20.5889 79.4463 20.7096 79.7195 20.9522C79.9915 21.1948 80.1269 21.536 80.1269 21.9781C80.1269 22.4189 79.9761 22.7801 79.6732 23.0614C79.3714 23.3427 78.9629 23.4835 78.4497 23.4835H77.8396ZM77.8396 21.0818V22.9906H78.4078C78.7811 22.9906 79.0675 22.9042 79.2635 22.7324C79.4606 22.5607 79.5587 22.3171 79.5587 22.0034C79.5587 21.3886 79.1975 21.0818 78.4749 21.0818H77.8396Z" fill="white"/>
<path d="M84.0626 25.2427H83.4626L82.9724 23.9377H81.01L80.5487 25.2427H79.9463L81.7204 20.5889H82.282L84.0626 25.2427ZM82.7941 23.4481L82.0684 21.4651C82.0452 21.3998 82.021 21.2956 81.9979 21.1538H81.9847C81.9638 21.2856 81.9384 21.3886 81.9109 21.4651L81.1907 23.4481H82.7941Z" fill="white"/>
<path d="M84.4458 25.0473V24.4569C84.807 24.7227 85.2166 24.8556 85.6748 24.8556C86.0084 24.8556 86.2738 24.7747 86.4709 24.613C86.667 24.4502 86.7661 24.2319 86.7661 23.9573C86.7661 23.3602 86.3642 23.061 85.5624 23.061H85.0812V22.6101H85.5239C85.8652 22.6101 86.1306 22.5359 86.3189 22.3864C86.5072 22.2368 86.6009 22.0263 86.6009 21.7539C86.6009 21.5201 86.5226 21.3328 86.3675 21.1921C86.211 21.0515 85.9963 20.9805 85.7232 20.9805C85.3366 20.9805 84.96 21.1036 84.5945 21.3472V20.7956C84.9348 20.605 85.3257 20.5098 85.7684 20.5098C86.2077 20.5098 86.5525 20.615 86.8046 20.8254C87.0557 21.0349 87.1824 21.3107 87.1824 21.653C87.1824 22.2568 86.8894 22.6367 86.3046 22.7952V22.8084C86.6229 22.8449 86.875 22.9646 87.0623 23.1684C87.2495 23.3723 87.3431 23.6238 87.3431 23.924C87.3431 24.3505 87.1923 24.6895 86.8916 24.9421C86.5909 25.1946 86.1792 25.3198 85.656 25.3198C85.1329 25.3198 84.7299 25.2289 84.4458 25.0473Z" fill="white"/>
<path d="M88.3115 25.2427V20.5889H89.6275C90.0272 20.5889 90.3454 20.6874 90.579 20.8835C90.8135 21.0806 90.9312 21.3377 90.9312 21.6534C90.9312 21.917 90.8598 22.1463 90.7177 22.3414C90.5757 22.5363 90.3807 22.6747 90.1308 22.7568V22.7701C90.4424 22.8066 90.6924 22.9252 90.8795 23.1246C91.0668 23.3251 91.1603 23.5854 91.1603 23.9055C91.1603 24.3032 91.0183 24.6257 90.7341 24.8727C90.45 25.1198 90.0921 25.2427 89.6593 25.2427H88.3115ZM88.8532 21.0818V22.585H89.4082C89.7046 22.585 89.938 22.513 90.1087 22.3691C90.2783 22.225 90.363 22.0223 90.363 21.7598C90.363 21.3077 90.0679 21.0818 89.4755 21.0818H88.8532ZM88.8532 23.0748V24.7498H89.5889C89.9072 24.7498 90.1538 24.6732 90.3289 24.5226C90.5051 24.3709 90.5921 24.1626 90.5921 23.8989C90.5921 23.3494 90.2199 23.0748 89.4755 23.0748H88.8532Z" fill="white"/>
<path d="M95.8284 25.2427H95.2856V21.8805C95.2856 21.577 95.2965 21.3643 95.3186 21.2414H95.2988C95.258 21.3466 95.2085 21.444 95.1501 21.5327L92.7692 25.2427H92.0986V20.5889H92.6404V23.8668C92.6404 24.2168 92.6316 24.4451 92.615 24.5513H92.6271C92.6745 24.4561 92.7352 24.3521 92.8078 24.2402L95.1314 20.5889H95.8284V25.2427Z" fill="white"/>
<path d="M99.7829 21.0818H98.447V25.2427H97.9053V21.0818H96.5728V20.5889H99.7829V21.0818Z" fill="white"/>
<path d="M104.24 25.2427H103.697V21.8805C103.697 21.577 103.708 21.3643 103.73 21.2414H103.71C103.669 21.3466 103.62 21.444 103.561 21.5327L101.18 25.2427H100.51V20.5889H101.051V23.8668C101.051 24.2168 101.043 24.4451 101.026 24.5513H101.038C101.086 24.4561 101.146 24.3521 101.219 24.2402L103.543 20.5889H104.24V25.2427Z" fill="white"/>
<path d="M108.146 25.2427H107.604V23.263H106.93C106.801 23.263 106.688 23.2985 106.589 23.3683C106.491 23.4391 106.387 23.5965 106.274 23.8402L105.694 25.2427H105.049L105.751 23.6884C105.797 23.5865 105.866 23.4791 105.96 23.3649C106.053 23.252 106.162 23.1711 106.288 23.1235V23.1101C105.979 23.0437 105.74 22.9019 105.57 22.6847C105.399 22.4688 105.313 22.2073 105.313 21.8994C105.313 21.5038 105.45 21.186 105.725 20.9477C105.999 20.7084 106.358 20.5889 106.803 20.5889H108.146V25.2427ZM107.604 22.7701V21.0818H106.852C106.546 21.0818 106.31 21.1548 106.14 21.2989C105.972 21.444 105.887 21.6489 105.887 21.9127C105.887 22.1763 105.974 22.3856 106.146 22.5397C106.317 22.6926 106.549 22.7701 106.84 22.7701H107.604Z" fill="white"/>
<path d="M114.903 25.2427H114.36V21.8805C114.36 21.577 114.371 21.3643 114.393 21.2414H114.373C114.332 21.3466 114.283 21.444 114.224 21.5327L111.843 25.2427H111.173V20.5889H111.715V23.8668C111.715 24.2168 111.706 24.4451 111.689 24.5513H111.701C111.749 24.4561 111.809 24.3521 111.882 24.2402L114.206 20.5889H114.903V25.2427Z" fill="white"/>
<path d="M119.6 25.2427H119.058V23.1201H116.664V25.2427H116.122V20.5889H116.664V22.6305H119.058V20.5889H119.6V25.2427Z" fill="white"/>
<path d="M122.885 24.632V25.2425H122.381V24.632H122.294C121.778 24.632 121.352 24.456 121.015 24.1014C120.678 23.7481 120.509 23.3127 120.509 22.7955C120.509 22.3024 120.678 21.887 121.013 21.5492C121.348 21.2112 121.778 21.0428 122.3 21.0428H122.381V20.459H122.885V21.0428H122.962C123.49 21.0428 123.922 21.209 124.253 21.5413C124.586 21.8725 124.752 22.2914 124.752 22.7955C124.752 23.3061 124.584 23.7403 124.247 24.0971C123.911 24.4538 123.485 24.632 122.968 24.632H122.885ZM122.885 21.5003V24.1525H122.968C123.336 24.1525 123.63 24.0294 123.853 23.7836C124.074 23.5377 124.184 23.2108 124.184 22.802C124.184 22.4121 124.074 22.0986 123.853 21.8593C123.63 21.62 123.334 21.5003 122.962 21.5003H122.885ZM122.381 24.1525V21.5003H122.3C121.934 21.5003 121.639 21.6211 121.414 21.8637C121.19 22.1063 121.078 22.4188 121.078 22.802C121.078 23.213 121.189 23.541 121.41 23.7858C121.631 24.0294 121.927 24.1525 122.294 24.1525H122.381Z" fill="white"/>
<path d="M127.478 25.3198C126.821 25.3198 126.296 25.1027 125.902 24.6673C125.508 24.2331 125.31 23.667 125.31 22.9702C125.31 22.2213 125.511 21.6242 125.913 21.1789C126.315 20.7335 126.863 20.5098 127.556 20.5098C128.195 20.5098 128.709 20.7269 129.099 21.1589C129.49 21.5921 129.685 22.1581 129.685 22.8572C129.685 23.616 129.484 24.2164 129.085 24.6585C128.685 25.0994 128.15 25.3198 127.478 25.3198ZM127.517 21.0038C127.031 21.0038 126.637 21.1799 126.333 21.5323C126.03 21.8856 125.878 22.3487 125.878 22.9215C125.878 23.4952 126.025 23.9561 126.322 24.3061C126.617 24.6551 127.003 24.8302 127.478 24.8302C127.986 24.8302 128.385 24.664 128.678 24.3305C128.971 23.9971 129.117 23.5308 129.117 22.9315C129.117 22.3166 128.976 21.8424 128.691 21.5068C128.407 21.1711 128.015 21.0038 127.517 21.0038Z" fill="white"/>
<path d="M131.136 23.4835V25.2427H130.594V20.5889H131.865C132.359 20.5889 132.743 20.7096 133.016 20.9522C133.288 21.1948 133.423 21.536 133.423 21.9781C133.423 22.4189 133.272 22.7801 132.97 23.0614C132.668 23.3427 132.259 23.4835 131.746 23.4835H131.136ZM131.136 21.0818V22.9906H131.704C132.077 22.9906 132.364 22.9042 132.56 22.7324C132.757 22.5607 132.855 22.3171 132.855 22.0034C132.855 21.3886 132.494 21.0818 131.771 21.0818H131.136Z" fill="white"/>
<path d="M139.011 25.2427H138.472V22.121C138.472 21.8738 138.487 21.5725 138.518 21.2147H138.504C138.453 21.4253 138.406 21.5747 138.366 21.6656L136.785 25.2427H136.52L134.943 21.6922C134.898 21.588 134.852 21.4296 134.804 21.2147H134.791C134.809 21.4008 134.816 21.7054 134.816 22.1265V25.2427H134.294V20.5889H135.01L136.43 23.8335C136.54 24.0828 136.61 24.2689 136.643 24.3919H136.662C136.755 24.1371 136.829 23.9465 136.884 23.8213L138.334 20.5889H139.011V25.2427Z" fill="white"/>
<path d="M143.809 25.2427H143.209L142.719 23.9377H140.756L140.295 25.2427H139.692L141.467 20.5889H142.028L143.809 25.2427ZM142.54 23.4481L141.814 21.4651C141.791 21.3998 141.767 21.2956 141.744 21.1538H141.731C141.71 21.2856 141.685 21.3886 141.657 21.4651L140.937 23.4481H142.54Z" fill="white"/>
<path d="M148.587 26.4923H148.086V25.2427H144.49V20.5889H145.031V24.7498H147.426V20.5889H147.967V24.7498H148.587V26.4923Z" fill="white"/>
<path d="M153.123 25.2427H152.58V21.8805C152.58 21.577 152.591 21.3643 152.613 21.2414H152.594C152.553 21.3466 152.503 21.444 152.445 21.5327L150.064 25.2427H149.394V20.5889H149.935V23.8668C149.935 24.2168 149.926 24.4451 149.91 24.5513H149.922C149.969 24.4561 150.03 24.3521 150.103 24.2402L152.426 20.5889H153.123V25.2427Z" fill="white"/>
<path d="M156.207 25.3198C155.55 25.3198 155.025 25.1027 154.631 24.6673C154.237 24.2331 154.039 23.667 154.039 22.9702C154.039 22.2213 154.24 21.6242 154.642 21.1789C155.044 20.7335 155.592 20.5098 156.285 20.5098C156.924 20.5098 157.438 20.7269 157.828 21.1589C158.219 21.5921 158.414 22.1581 158.414 22.8572C158.414 23.616 158.213 24.2164 157.814 24.6585C157.414 25.0994 156.879 25.3198 156.207 25.3198ZM156.246 21.0038C155.76 21.0038 155.366 21.1799 155.062 21.5323C154.759 21.8856 154.607 22.3487 154.607 22.9215C154.607 23.4952 154.754 23.9561 155.051 24.3061C155.346 24.6551 155.732 24.8302 156.207 24.8302C156.715 24.8302 157.114 24.664 157.407 24.3305C157.7 23.9971 157.846 23.5308 157.846 22.9315C157.846 22.3166 157.705 21.8424 157.42 21.5068C157.136 21.1711 156.744 21.0038 156.246 21.0038Z" fill="white"/>
<path d="M162.801 25.2427H162.259V23.1201H159.865V25.2427H159.323V20.5889H159.865V22.6305H162.259V20.5889H162.801V25.2427Z" fill="white"/>
<path d="M167.492 25.2427H166.95V23.1201H164.556V25.2427H164.015V20.5889H164.556V22.6305H166.95V20.5889H167.492V25.2427Z" fill="white"/>
<path d="M172.664 25.2427H172.122V20.5889H172.664V25.2427ZM168.706 25.2427V20.5889H169.247V22.5618H170.125C170.585 22.5618 170.943 22.6737 171.199 22.8975C171.455 23.1213 171.583 23.4403 171.583 23.8535C171.583 24.2822 171.449 24.62 171.18 24.8693C170.911 25.1186 170.545 25.2427 170.08 25.2427H168.706ZM169.247 23.0548V24.7498H170.008C170.329 24.7498 170.577 24.6732 170.751 24.5226C170.924 24.3709 171.013 24.1581 171.013 23.8857C171.013 23.3317 170.678 23.0548 170.008 23.0548H169.247Z" fill="white"/>
<path d="M177.074 25.2427H176.413L175.348 23.4613C175.317 23.4071 175.28 23.3296 175.242 23.2309H175.228C175.207 23.2807 175.171 23.3572 175.119 23.4613L174.023 25.2427H173.357L174.906 22.903L173.481 20.5889H174.145L175.09 22.2239C175.152 22.3326 175.207 22.4411 175.255 22.5485H175.268C175.336 22.4056 175.397 22.2937 175.449 22.2117L176.432 20.5889H177.055L175.6 22.8963L177.074 25.2427Z" fill="white"/>
<path d="M41.3019 29.0388H39.9661V33.1997H39.4243V29.0388H38.0918V28.5459H41.3019V29.0388Z" fill="white"/>
<path d="M44.4801 33.1997H42.0288V28.5459H44.3776V29.0388H42.5705V30.5876H44.2422V31.0772H42.5705V32.7068H44.4801V33.1997Z" fill="white"/>
<path d="M48.5966 33.1997H47.9358L46.8708 31.4183C46.839 31.3641 46.8026 31.2866 46.7641 31.1879H46.7508C46.7299 31.2377 46.6936 31.3143 46.6419 31.4183L45.5451 33.1997H44.8799L46.4283 30.86L45.0032 28.5459H45.6672L46.6121 30.1809C46.6749 30.2896 46.7299 30.3981 46.7773 30.5055H46.7905C46.8587 30.3626 46.9194 30.2507 46.9711 30.1687L47.9546 28.5459H48.5778L47.122 30.8534L48.5966 33.1997Z" fill="white"/>
<path d="M52.778 33.1997H52.2361V31.0772H49.842V33.1997H49.3003V28.5459H49.842V30.5876H52.2361V28.5459H52.778V33.1997Z" fill="white"/>
<path d="M55.8558 33.2768C55.1994 33.2768 54.6743 33.0597 54.2799 32.6243C53.8857 32.1901 53.6875 31.624 53.6875 30.9272C53.6875 30.1783 53.8891 29.5812 54.291 29.136C54.6929 28.6906 55.2413 28.4668 55.9341 28.4668C56.5727 28.4668 57.0869 28.6839 57.4768 29.116C57.8678 29.5492 58.0628 30.1151 58.0628 30.8143C58.0628 31.573 57.8622 32.1735 57.4625 32.6155C57.0627 33.0564 56.5276 33.2768 55.8558 33.2768ZM55.8944 28.9609C55.4088 28.9609 55.0144 29.137 54.7106 29.4893C54.4077 29.8426 54.2557 30.3057 54.2557 30.8785C54.2557 31.4523 54.4033 31.9132 54.6995 32.2632C54.9947 32.6122 55.3812 32.7873 55.8558 32.7873C56.3635 32.7873 56.7632 32.621 57.0561 32.2875C57.3492 31.9542 57.4945 31.4878 57.4945 30.8885C57.4945 30.2737 57.3535 29.7995 57.0694 29.4638C56.7852 29.1281 56.3932 28.9609 55.8944 28.9609Z" fill="white"/>
<path d="M62.1658 33.1997H61.624V29.0388H60.3399C60.1924 30.2119 60.0745 31.0406 59.9887 31.5247C59.9028 32.0099 59.8158 32.3666 59.7277 32.5959C59.6396 32.8252 59.5196 32.9959 59.3687 33.1078C59.2189 33.2185 59.0383 33.2739 58.8268 33.2739C58.6573 33.2739 58.5097 33.2517 58.3853 33.2064V32.6935C58.4955 32.7566 58.6165 32.7877 58.7498 32.7877C58.883 32.7877 59.0085 32.7078 59.1254 32.5472C59.2432 32.3876 59.3621 31.9711 59.4832 31.2976C59.6054 30.6253 59.7398 29.708 59.8885 28.5459H62.1658V33.1997Z" fill="white"/>
<path d="M65.2504 33.2768C64.594 33.2768 64.0688 33.0597 63.6745 32.6243C63.2803 32.1901 63.082 31.624 63.082 30.9272C63.082 30.1783 63.2836 29.5812 63.6856 29.136C64.0874 28.6906 64.6359 28.4668 65.3286 28.4668C65.9673 28.4668 66.4815 28.6839 66.8713 29.116C67.2624 29.5492 67.4573 30.1151 67.4573 30.8143C67.4573 31.573 67.2567 32.1735 66.8571 32.6155C66.4573 33.0564 65.9222 33.2768 65.2504 33.2768ZM65.289 28.9609C64.8033 28.9609 64.409 29.137 64.1051 29.4893C63.8023 29.8426 63.6503 30.3057 63.6503 30.8785C63.6503 31.4523 63.7978 31.9132 64.094 32.2632C64.3892 32.6122 64.7758 32.7873 65.2504 32.7873C65.7581 32.7873 66.1577 32.621 66.4506 32.2875C66.7437 31.9542 66.8891 31.4878 66.8891 30.8885C66.8891 30.2737 66.748 29.7995 66.4639 29.4638C66.1798 29.1281 65.7878 28.9609 65.289 28.9609Z" fill="white"/>
<path d="M70.7667 29.0522H68.9122V33.1997H68.3672V28.5459H70.7667V29.0522Z" fill="white"/>
<path d="M75.2132 33.1997H74.6703V29.8375C74.6703 29.5341 74.6813 29.3213 74.7033 29.1984H74.6836C74.6428 29.3036 74.5932 29.401 74.5349 29.4897L72.1539 33.1997H71.4834V28.5459H72.0251V31.8239C72.0251 32.1739 72.0163 32.4021 71.9998 32.5084H72.0119C72.0593 32.4132 72.1199 32.3091 72.1925 32.1972L74.5162 28.5459H75.2132V33.1997Z" fill="white"/>
<path d="M80.1624 33.1995H79.6196V29.8374C79.6196 29.5339 79.6305 29.3211 79.6525 29.1982H79.6328C79.592 29.3034 79.5425 29.4008 79.4841 29.4895L77.1031 33.1995H76.4326V28.5457H76.9743V31.8237C76.9743 32.1737 76.9656 32.402 76.949 32.5082H76.9611C77.0085 32.413 77.0691 32.3089 77.1418 32.197L79.4654 28.5457H80.1624V33.1995ZM79.4775 27.1299C79.4455 27.4345 79.3233 27.6761 79.1118 27.8522C78.8993 28.0283 78.6351 28.117 78.3168 28.117C77.9896 28.117 77.7232 28.0283 77.5172 27.8522C77.3125 27.6761 77.2001 27.4345 77.1804 27.1299H77.7034C77.7332 27.5364 77.9402 27.7403 78.3223 27.7403C78.4952 27.7403 78.6373 27.686 78.7485 27.5798C78.8607 27.4722 78.929 27.3226 78.9555 27.1299H79.4775Z" fill="white"/>
<path d="M86.9217 33.1997H86.3788V29.8375C86.3788 29.5341 86.3898 29.3213 86.4118 29.1984H86.3921C86.3513 29.3036 86.3017 29.401 86.2434 29.4897L83.8624 33.1997H83.1919V28.5459H83.7336V31.8239C83.7336 32.1739 83.7248 32.4021 83.7083 32.5084H83.7204C83.7678 32.4132 83.8284 32.3091 83.901 32.1972L86.2247 28.5459H86.9217V33.1997Z" fill="white"/>
<path d="M93.681 33.1997H93.1381V29.8375C93.1381 29.5341 93.149 29.3213 93.1711 29.1984H93.1514C93.1106 29.3036 93.061 29.401 93.0027 29.4897L90.6217 33.1997H89.9512V28.5459H90.4929V31.8239C90.4929 32.1739 90.4841 32.4021 90.4675 32.5084H90.4796C90.527 32.4132 90.5877 32.3091 90.6603 32.1972L92.9839 28.5459H93.681V33.1997Z" fill="white"/>
<path d="M98.3781 33.1997H97.8362V31.0772H95.4421V33.1997H94.9004V28.5459H95.4421V30.5876H97.8362V28.5459H98.3781V33.1997Z" fill="white"/>
<path d="M101.663 32.5891V33.1995H101.16V32.5891H101.073C100.556 32.5891 100.13 32.413 99.793 32.0585C99.456 31.7051 99.2876 31.2698 99.2876 30.7525C99.2876 30.2594 99.456 29.844 99.7909 29.5062C100.127 29.1682 100.556 28.9998 101.078 28.9998H101.16V28.416H101.663V28.9998H101.74C102.269 28.9998 102.7 29.166 103.032 29.4984C103.364 29.8295 103.531 30.2484 103.531 30.7525C103.531 31.2631 103.362 31.6973 103.025 32.0541C102.689 32.4108 102.263 32.5891 101.747 32.5891H101.663ZM101.663 29.4574V32.1095H101.747C102.114 32.1095 102.409 31.9864 102.631 31.7406C102.852 31.4947 102.962 31.1679 102.962 30.759C102.962 30.3691 102.852 30.0556 102.631 29.8164C102.409 29.5771 102.112 29.4574 101.74 29.4574H101.663ZM101.16 32.1095V29.4574H101.078C100.713 29.4574 100.417 29.5781 100.193 29.8207C99.9682 30.0633 99.8558 30.3758 99.8558 30.759C99.8558 31.17 99.9671 31.498 100.188 31.7428C100.41 31.9864 100.705 32.1095 101.073 32.1095H101.16Z" fill="white"/>
<path d="M106.256 33.2768C105.6 33.2768 105.075 33.0597 104.68 32.6243C104.286 32.1901 104.088 31.624 104.088 30.9272C104.088 30.1783 104.289 29.5812 104.691 29.136C105.093 28.6906 105.642 28.4668 106.334 28.4668C106.973 28.4668 107.487 28.6839 107.877 29.116C108.268 29.5492 108.463 30.1151 108.463 30.8143C108.463 31.573 108.263 32.1735 107.863 32.6155C107.463 33.0564 106.928 33.2768 106.256 33.2768ZM106.295 28.9609C105.809 28.9609 105.415 29.137 105.111 29.4893C104.808 29.8426 104.656 30.3057 104.656 30.8785C104.656 31.4523 104.804 31.9132 105.1 32.2632C105.395 32.6122 105.782 32.7873 106.256 32.7873C106.764 32.7873 107.164 32.621 107.456 32.2875C107.75 31.9542 107.895 31.4878 107.895 30.8885C107.895 30.2737 107.754 29.7995 107.47 29.4638C107.186 29.1281 106.794 28.9609 106.295 28.9609Z" fill="white"/>
<path d="M109.914 31.4405V33.1997H109.373V28.5459H110.643C111.138 28.5459 111.521 28.6666 111.794 28.9092C112.066 29.1519 112.202 29.493 112.202 29.9351C112.202 30.376 112.051 30.7371 111.748 31.0185C111.446 31.2998 111.038 31.4405 110.524 31.4405H109.914ZM109.914 29.0388V30.9476H110.483C110.856 30.9476 111.142 30.8612 111.338 30.6895C111.535 30.5177 111.633 30.2741 111.633 29.9604C111.633 29.3456 111.272 29.0388 110.55 29.0388H109.914Z" fill="white"/>
<path d="M117.789 33.1997H117.251V30.078C117.251 29.8309 117.265 29.5296 117.296 29.1717H117.283C117.231 29.3823 117.185 29.5317 117.144 29.6226L115.564 33.1997H115.298L113.721 29.6493C113.676 29.5451 113.63 29.3867 113.583 29.1717H113.569C113.587 29.3578 113.595 29.6625 113.595 30.0835V33.1997H113.073V28.5459H113.789L115.208 31.7905C115.318 32.0398 115.389 32.2259 115.422 32.3489H115.44C115.533 32.0942 115.608 31.9036 115.663 31.7783L117.112 28.5459H117.789V33.1997Z" fill="white"/>
<path d="M122.588 33.1997H121.987L121.497 31.8947H119.535L119.074 33.1997H118.471L120.245 28.5459H120.807L122.588 33.1997ZM121.319 31.4051L120.593 29.4222C120.57 29.3568 120.546 29.2526 120.523 29.1108H120.51C120.489 29.2426 120.463 29.3456 120.436 29.4222L119.716 31.4051H121.319Z" fill="white"/>
<path d="M127.366 34.4493H126.865V33.1997H123.268V28.5459H123.81V32.7068H126.204V28.5459H126.746V32.7068H127.366V34.4493Z" fill="white"/>
<path d="M131.902 33.1997H131.359V29.8375C131.359 29.5341 131.37 29.3213 131.392 29.1984H131.372C131.331 29.3036 131.282 29.401 131.223 29.4897L128.842 33.1997H128.172V28.5459H128.714V31.8239C128.714 32.1739 128.705 32.4021 128.688 32.5084H128.7C128.748 32.4132 128.808 32.3091 128.881 32.1972L131.205 28.5459H131.902V33.1997Z" fill="white"/>
<path d="M134.985 33.2768C134.329 33.2768 133.804 33.0597 133.409 32.6243C133.015 32.1901 132.817 31.624 132.817 30.9272C132.817 30.1783 133.018 29.5812 133.42 29.136C133.822 28.6906 134.371 28.4668 135.063 28.4668C135.702 28.4668 136.216 28.6839 136.606 29.116C136.997 29.5492 137.192 30.1151 137.192 30.8143C137.192 31.573 136.992 32.1735 136.592 32.6155C136.192 33.0564 135.657 33.2768 134.985 33.2768ZM135.024 28.9609C134.538 28.9609 134.144 29.137 133.84 29.4893C133.537 29.8426 133.385 30.3057 133.385 30.8785C133.385 31.4523 133.533 31.9132 133.829 32.2632C134.124 32.6122 134.511 32.7873 134.985 32.7873C135.493 32.7873 135.893 32.621 136.186 32.2875C136.479 31.9542 136.624 31.4878 136.624 30.8885C136.624 30.2737 136.483 29.7995 136.199 29.4638C135.915 29.1281 135.523 28.9609 135.024 28.9609Z" fill="white"/>
<path d="M141.579 33.1997H141.037V31.0772H138.643V33.1997H138.102V28.5459H138.643V30.5876H141.037V28.5459H141.579V33.1997Z" fill="white"/>
<path d="M146.271 33.1997H145.729V31.0772H143.335V33.1997H142.793V28.5459H143.335V30.5876H145.729V28.5459H146.271V33.1997Z" fill="white"/>
<path d="M151.443 33.1997H150.9V28.5459H151.443V33.1997ZM147.484 33.1997V28.5459H148.026V30.5189H148.904C149.364 30.5189 149.722 30.6308 149.977 30.8545C150.234 31.0783 150.362 31.3973 150.362 31.8105C150.362 32.2392 150.228 32.5771 149.959 32.8264C149.69 33.0756 149.323 33.1997 148.859 33.1997H147.484ZM148.026 31.0118V32.7068H148.787C149.108 32.7068 149.355 32.6303 149.529 32.4797C149.703 32.3279 149.791 32.1152 149.791 31.8427C149.791 31.2888 149.457 31.0118 148.787 31.0118H148.026Z" fill="white"/>
<path d="M155.852 33.1997H155.192L154.127 31.4183C154.095 31.3641 154.058 31.2866 154.02 31.1879H154.007C153.986 31.2377 153.949 31.3143 153.898 31.4183L152.801 33.1997H152.136L153.684 30.86L152.259 28.5459H152.923L153.868 30.1809C153.931 30.2896 153.986 30.3981 154.033 30.5055H154.046C154.115 30.3626 154.175 30.2507 154.227 30.1687L155.21 28.5459H155.834L154.378 30.8534L155.852 33.1997Z" fill="white"/>
<path d="M158.908 31.4405V33.1997H158.367V28.5459H159.637C160.132 28.5459 160.515 28.6666 160.788 28.9092C161.06 29.1519 161.196 29.493 161.196 29.9351C161.196 30.376 161.045 30.7371 160.742 31.0185C160.44 31.2998 160.032 31.4405 159.519 31.4405H158.908ZM158.908 29.0388V30.9476H159.477C159.85 30.9476 160.136 30.8612 160.332 30.6895C160.529 30.5177 160.628 30.2741 160.628 29.9604C160.628 29.3456 160.266 29.0388 159.544 29.0388H158.908Z" fill="white"/>
<path d="M164.518 33.1997H162.066V28.5459H164.415V29.0388H162.608V30.5876H164.28V31.0772H162.608V32.7068H164.518V33.1997Z" fill="white"/>
<path d="M168.557 33.0044C168.216 33.186 167.79 33.2768 167.28 33.2768C166.621 33.2768 166.095 33.0641 165.7 32.6377C165.303 32.2111 165.105 31.6517 165.105 30.9594C165.105 30.216 165.329 29.6145 165.773 29.1558C166.218 28.6961 166.783 28.4668 167.467 28.4668C167.905 28.4668 168.269 28.531 168.557 28.6584V29.24C168.226 29.0539 167.86 28.9609 167.46 28.9609C166.93 28.9609 166.499 29.1393 166.169 29.496C165.838 29.8526 165.673 30.3301 165.673 30.9272C165.673 31.4944 165.827 31.9463 166.136 32.282C166.445 32.6188 166.849 32.7873 167.352 32.7873C167.815 32.7873 168.218 32.683 168.557 32.4759V33.0044Z" fill="white"/>
<path d="M172.681 28.5459L171.252 31.7938C170.998 32.37 170.752 32.761 170.516 32.9693C170.28 33.1764 170.021 33.2806 169.742 33.2806C169.512 33.2806 169.319 33.2474 169.164 33.1797V32.6281C169.349 32.7388 169.527 32.7942 169.699 32.7942C169.874 32.7942 170.034 32.7266 170.18 32.5916C170.327 32.4563 170.484 32.2171 170.655 31.8759L169.087 28.5459H169.703L170.813 31.0318C170.832 31.0727 170.872 31.1735 170.933 31.3331H170.938C170.945 31.3143 170.989 31.209 171.071 31.0185L172.1 28.5459H172.681Z" fill="white"/>
<path d="M173.79 31.4405V33.1997H173.249V28.5459H174.519C175.014 28.5459 175.397 28.6666 175.67 28.9092C175.942 29.1519 176.078 29.493 176.078 29.9351C176.078 30.376 175.927 30.7371 175.624 31.0185C175.322 31.2998 174.914 31.4405 174.4 31.4405H173.79ZM173.79 29.0388V30.9476H174.358C174.732 30.9476 175.018 30.8612 175.214 30.6895C175.411 30.5177 175.509 30.2741 175.509 29.9604C175.509 29.3456 175.148 29.0388 174.426 29.0388H173.79Z" fill="white"/>
<path d="M180.065 33.0044C179.724 33.186 179.298 33.2768 178.788 33.2768C178.129 33.2768 177.603 33.0641 177.207 32.6377C176.811 32.2111 176.613 31.6517 176.613 30.9594C176.613 30.216 176.836 29.6145 177.281 29.1558C177.726 28.6961 178.291 28.4668 178.975 28.4668C179.413 28.4668 179.777 28.531 180.065 28.6584V29.24C179.734 29.0539 179.368 28.9609 178.968 28.9609C178.438 28.9609 178.007 29.1393 177.677 29.496C177.346 29.8526 177.181 30.3301 177.181 30.9272C177.181 31.4944 177.335 31.9463 177.644 32.282C177.953 32.6188 178.357 32.7873 178.859 32.7873C179.323 32.7873 179.726 32.683 180.065 32.4759V33.0044Z" fill="white"/>
<path d="M182.695 33.2768C182.038 33.2768 181.513 33.0597 181.119 32.6243C180.725 32.1901 180.526 31.624 180.526 30.9272C180.526 30.1783 180.728 29.5812 181.13 29.136C181.532 28.6906 182.08 28.4668 182.773 28.4668C183.412 28.4668 183.926 28.6839 184.316 29.116C184.707 29.5492 184.902 30.1151 184.902 30.8143C184.902 31.573 184.701 32.1735 184.301 32.6155C183.902 33.0564 183.367 33.2768 182.695 33.2768ZM182.733 28.9609C182.248 28.9609 181.853 29.137 181.549 29.4893C181.247 29.8426 181.095 30.3057 181.095 30.8785C181.095 31.4523 181.242 31.9132 181.538 32.2632C181.834 32.6122 182.22 32.7873 182.695 32.7873C183.202 32.7873 183.602 32.621 183.895 32.2875C184.188 31.9542 184.333 31.4878 184.333 30.8885C184.333 30.2737 184.192 29.7995 183.908 29.4638C183.624 29.1281 183.232 28.9609 182.733 28.9609Z" fill="white"/>
<path d="M185.812 33.1997V28.5459H187.128C187.527 28.5459 187.845 28.6445 188.079 28.8405C188.314 29.0377 188.431 29.2948 188.431 29.6104C188.431 29.8741 188.36 30.1034 188.218 30.2984C188.076 30.4934 187.881 30.6318 187.631 30.7138V30.7271C187.942 30.7637 188.192 30.8822 188.38 31.0817C188.567 31.2821 188.66 31.5424 188.66 31.8625C188.66 32.2602 188.518 32.5827 188.234 32.8297C187.95 33.0768 187.592 33.1997 187.159 33.1997H185.812ZM186.353 29.0388V30.5421H186.908C187.205 30.5421 187.438 30.47 187.609 30.3261C187.778 30.182 187.863 29.9793 187.863 29.7168C187.863 29.2648 187.568 29.0388 186.976 29.0388H186.353ZM186.353 31.0318V32.7068H187.089C187.407 32.7068 187.654 32.6303 187.829 32.4797C188.005 32.3279 188.092 32.1197 188.092 31.8559C188.092 31.3064 187.72 31.0318 186.976 31.0318H186.353Z" fill="white"/>
<path d="M192.05 31.4538L191.08 32.5505H190.547L191.521 31.4538L190.547 30.3438H191.08L192.05 31.4538ZM190.796 31.4538L189.831 32.5505H189.283L190.276 31.4538L189.283 30.3438H189.831L190.796 31.4538Z" fill="white"/>
</svg>
