<svg width="13" height="14" viewBox="0 0 13 14" fill="none" xmlns="http://www.w3.org/2000/svg">
<g clip-path="url(#clip0)">
<path d="M2.64886 8.85534C3.93108 10.386 5.47459 11.5912 7.2363 12.4439C7.90704 12.7613 8.80406 13.1379 9.80344 13.2025C9.86539 13.2052 9.92465 13.2079 9.98661 13.2079C10.6574 13.2079 11.1961 12.9765 11.6352 12.5004C11.6379 12.4977 11.6433 12.4923 11.646 12.4869C11.8022 12.2986 11.98 12.1292 12.1658 11.9489C12.2925 11.8279 12.4218 11.7014 12.5457 11.5723C13.1194 10.9751 13.1194 10.2165 12.5403 9.63816L10.9213 8.02142C10.6466 7.73627 10.3179 7.58563 9.97314 7.58563C9.62834 7.58563 9.29701 7.73627 9.01417 8.01873L8.04981 8.98178C7.96092 8.93067 7.86933 8.88494 7.78313 8.84189C7.67538 8.78809 7.57571 8.73698 7.48682 8.68049C6.60866 8.12364 5.81131 7.39732 5.04898 6.46387C4.66378 5.97696 4.40518 5.56807 4.2247 5.15111C4.47791 4.92246 4.71496 4.68304 4.94393 4.449C5.02474 4.36561 5.10824 4.28222 5.19175 4.19883C5.48267 3.9083 5.63891 3.57204 5.63891 3.2304C5.63891 2.88876 5.48537 2.5525 5.19175 2.26197L4.38901 1.46033C4.29473 1.36618 4.20584 1.27471 4.11425 1.18056C3.93647 0.997637 3.7506 0.809332 3.56742 0.639857C3.28997 0.36816 2.96402 0.225586 2.61923 0.225586C2.27712 0.225586 1.94848 0.36816 1.66025 0.642547L0.652794 1.64864C0.286445 2.01449 0.0790268 2.45835 0.0359269 2.97215C-0.0152542 3.61508 0.10327 4.29836 0.410357 5.12421C0.881762 6.402 1.59291 7.58832 2.64886 8.85534ZM0.6932 3.02864C0.725525 2.67086 0.862906 2.37227 1.1215 2.11402L2.12358 1.11331C2.27981 0.962666 2.45221 0.884654 2.61923 0.884654C2.78354 0.884654 2.95056 0.962666 3.1041 1.11869C3.28458 1.28548 3.45429 1.46033 3.63746 1.64595C3.72905 1.7401 3.82333 1.83425 3.91761 1.93109L4.72034 2.73274C4.88736 2.89952 4.97356 3.06899 4.97356 3.23578C4.97356 3.40256 4.88736 3.57204 4.72034 3.73882C4.63684 3.82222 4.55333 3.9083 4.46983 3.99169C4.21931 4.24456 3.98495 4.48397 3.72635 4.71263C3.72097 4.71801 3.71827 4.7207 3.71289 4.72608C3.4893 4.94936 3.52432 5.16187 3.5782 5.32328C3.58089 5.33135 3.58359 5.33673 3.58628 5.3448C3.7937 5.84246 4.08193 6.31591 4.53178 6.88083C5.33991 7.87616 6.19113 8.64821 7.12855 9.24272C7.24438 9.31804 7.36829 9.37722 7.48412 9.4364C7.59187 9.4902 7.69154 9.54131 7.78044 9.59781C7.79121 9.60318 7.79929 9.60857 7.81007 9.61395C7.89896 9.65968 7.98516 9.6812 8.07136 9.6812C8.28686 9.6812 8.42693 9.544 8.47273 9.49827L9.48019 8.49218C9.63642 8.33616 9.80613 8.25277 9.97314 8.25277C10.1779 8.25277 10.3449 8.3792 10.4499 8.49218L12.0743 10.1116C12.3975 10.4344 12.3948 10.7841 12.0662 11.1258C11.953 11.2468 11.8345 11.3625 11.7079 11.4835C11.5193 11.6665 11.3227 11.8548 11.1449 12.0673C10.8351 12.4009 10.4661 12.5569 9.9893 12.5569C9.94351 12.5569 9.89502 12.5542 9.84923 12.5515C8.96568 12.495 8.14409 12.1507 7.52722 11.8575C5.85172 11.0478 4.38093 9.89909 3.16067 8.44107C2.1559 7.23323 1.47977 6.10878 1.03261 4.90363C0.755156 4.16385 0.6501 3.56935 0.6932 3.02864Z" fill="#1BA098"/>
</g>
<defs>
<clipPath id="clip0">
<rect width="13" height="12.9823" fill="white" transform="translate(0 0.225586)"/>
</clipPath>
</defs>
</svg>
