<svg width="70" height="70" viewBox="0 0 70 70" fill="none" xmlns="http://www.w3.org/2000/svg">
<g filter="url(#filter0_d)">
<rect x="15" y="15" width="40" height="40" rx="20" fill="white"/>
</g>
<g clip-path="url(#clip0)">
<path d="M40.8064 37.3897C40.397 36.9633 39.9031 36.7354 39.3797 36.7354C38.8605 36.7354 38.3624 36.9591 37.936 37.3855L36.6022 38.7151C36.4924 38.656 36.3827 38.6011 36.2771 38.5463C36.1252 38.4703 35.9816 38.3985 35.8592 38.3225C34.6098 37.529 33.4743 36.4948 32.3852 35.1567C31.8576 34.4898 31.503 33.9283 31.2455 33.3585C31.5917 33.0419 31.9125 32.7127 32.2248 32.3961C32.343 32.2779 32.4612 32.1555 32.5794 32.0373C33.4658 31.1508 33.4658 30.0027 32.5794 29.1162L31.427 27.9639C31.2962 27.833 31.1611 27.6979 31.0345 27.5629C30.7812 27.3012 30.5153 27.031 30.2409 26.7777C29.8315 26.3725 29.3418 26.1572 28.8268 26.1572C28.3118 26.1572 27.8137 26.3725 27.3916 26.7777C27.3874 26.782 27.3874 26.782 27.3832 26.7862L25.948 28.234C25.4077 28.7743 25.0996 29.4328 25.032 30.1969C24.9307 31.4294 25.2937 32.5776 25.5723 33.3289C26.2561 35.1736 27.2777 36.8831 28.8015 38.7151C30.6504 40.9228 32.8749 42.6661 35.416 43.8944C36.3869 44.3545 37.6828 44.8991 39.1306 44.9919C39.2193 44.9962 39.3121 45.0004 39.3965 45.0004C40.3716 45.0004 41.1905 44.65 41.8321 43.9535C41.8364 43.9451 41.8448 43.9409 41.849 43.9324C42.0685 43.6665 42.3218 43.4259 42.5877 43.1684C42.7692 42.9953 42.955 42.8138 43.1365 42.6239C43.5544 42.1891 43.7739 41.6826 43.7739 41.1634C43.7739 40.6399 43.5501 40.1376 43.1238 39.7155L40.8064 37.3897ZM42.3176 41.8345C42.3134 41.8345 42.3134 41.8388 42.3176 41.8345C42.153 42.0118 41.9841 42.1722 41.8026 42.3495C41.5282 42.6112 41.2496 42.8856 40.9879 43.1937C40.5616 43.6496 40.0593 43.8649 39.4008 43.8649C39.3375 43.8649 39.2699 43.8649 39.2066 43.8607C37.9529 43.7805 36.7879 43.2908 35.9141 42.8729C33.5249 41.7163 31.427 40.0743 29.6837 37.9933C28.2443 36.2584 27.2819 34.6544 26.6445 32.9322C26.2519 31.8811 26.1084 31.0622 26.1717 30.2897C26.2139 29.7958 26.4039 29.3864 26.7542 29.036L28.1936 27.5966C28.4005 27.4025 28.62 27.2969 28.8353 27.2969C29.1012 27.2969 29.3165 27.4573 29.4515 27.5924C29.4558 27.5966 29.46 27.6009 29.4642 27.6051C29.7217 27.8457 29.9665 28.0947 30.224 28.3607C30.3549 28.4957 30.4899 28.6308 30.625 28.7701L31.7774 29.9225C32.2248 30.3699 32.2248 30.7836 31.7774 31.231C31.655 31.3534 31.5368 31.4759 31.4144 31.5941C31.0598 31.9571 30.7221 32.2948 30.3549 32.624C30.3464 32.6325 30.338 32.6367 30.3338 32.6451C29.9707 33.0081 30.0383 33.3627 30.1143 33.6033C30.1185 33.616 30.1227 33.6286 30.1269 33.6413C30.4266 34.3673 30.8487 35.0512 31.4904 35.8658L31.4946 35.8701C32.6596 37.3053 33.888 38.4239 35.2429 39.2807C35.416 39.3905 35.5933 39.4791 35.7621 39.5636C35.9141 39.6395 36.0576 39.7113 36.18 39.7873C36.1969 39.7957 36.2138 39.8084 36.2307 39.8168C36.3742 39.8886 36.5093 39.9224 36.6486 39.9224C36.9989 39.9224 37.2184 39.7029 37.2902 39.6311L38.7338 38.1875C38.8773 38.0439 39.1053 37.8709 39.3712 37.8709C39.6329 37.8709 39.8482 38.0355 39.9791 38.179C39.9833 38.1832 39.9833 38.1832 39.9875 38.1875L42.3134 40.5133C42.7481 40.9439 42.7481 41.3871 42.3176 41.8345Z" fill="#3D9496"/>
<path d="M35.8084 29.7574C36.9144 29.9431 37.919 30.4666 38.721 31.2686C39.523 32.0706 40.0422 33.0752 40.2322 34.1812C40.2786 34.4598 40.5192 34.6539 40.7936 34.6539C40.8273 34.6539 40.8569 34.6497 40.8907 34.6455C41.203 34.5948 41.4099 34.2993 41.3592 33.987C41.1313 32.6489 40.4981 31.429 39.5315 30.4623C38.5648 29.4957 37.3449 28.8625 36.0068 28.6346C35.6944 28.5839 35.4032 28.7908 35.3483 29.0989C35.2934 29.4071 35.4961 29.7068 35.8084 29.7574Z" fill="#3D9496"/>
<path d="M44.9771 33.8263C44.6014 31.6229 43.563 29.6179 41.9674 28.0223C40.3718 26.4267 38.3668 25.3883 36.1634 25.0126C35.8552 24.9577 35.564 25.1688 35.5091 25.4769C35.4584 25.7893 35.6653 26.0805 35.9776 26.1354C37.9447 26.4689 39.7387 27.4018 41.1654 28.8243C42.5922 30.251 43.5208 32.045 43.8543 34.0121C43.9007 34.2907 44.1413 34.4848 44.4157 34.4848C44.4495 34.4848 44.479 34.4806 44.5128 34.4764C44.8209 34.43 45.032 34.1345 44.9771 33.8263Z" fill="#3D9496"/>
</g>
<defs>
<filter id="filter0_d" x="0" y="0" width="70" height="70" filterUnits="userSpaceOnUse" color-interpolation-filters="sRGB">
<feFlood flood-opacity="0" result="BackgroundImageFix"/>
<feColorMatrix in="SourceAlpha" type="matrix" values="0 0 0 0 0 0 0 0 0 0 0 0 0 0 0 0 0 0 127 0"/>
<feOffset/>
<feGaussianBlur stdDeviation="7.5"/>
<feColorMatrix type="matrix" values="0 0 0 0 1 0 0 0 0 1 0 0 0 0 1 0 0 0 0.4 0"/>
<feBlend mode="normal" in2="BackgroundImageFix" result="effect1_dropShadow"/>
<feBlend mode="normal" in="SourceGraphic" in2="effect1_dropShadow" result="shape"/>
</filter>
<clipPath id="clip0">
<rect width="20" height="20" fill="white" transform="translate(25 25)"/>
</clipPath>
</defs>
</svg>
