<svg width="211" height="102" viewBox="0 0 211 102" fill="none" xmlns="http://www.w3.org/2000/svg">
<g filter="url(#filter0_d)">
<rect x="30" y="10" width="151" height="42" rx="21" fill="#0088CC"/>
</g>
<path d="M88.992 37V27.056H85.16V25.48H94.496V27.056H90.664V37H88.992ZM98.327 37.24C97.4683 37.24 96.7137 37.0533 96.063 36.68C95.4177 36.3013 94.9137 35.776 94.551 35.104C94.1937 34.4267 94.015 33.6427 94.015 32.752C94.015 31.808 94.191 30.9893 94.543 30.296C94.9003 29.6027 95.3963 29.0667 96.031 28.688C96.6657 28.3093 97.4043 28.12 98.247 28.12C99.127 28.12 99.8763 28.3253 100.495 28.736C101.114 29.1413 101.575 29.72 101.879 30.472C102.188 31.224 102.311 32.1173 102.247 33.152H100.575V32.544C100.564 31.5413 100.372 30.8 99.999 30.32C99.631 29.84 99.0683 29.6 98.311 29.6C97.4737 29.6 96.8443 29.864 96.423 30.392C96.0017 30.92 95.791 31.6827 95.791 32.68C95.791 33.6293 96.0017 34.3653 96.423 34.888C96.8443 35.4053 97.4523 35.664 98.247 35.664C98.7697 35.664 99.2203 35.5467 99.599 35.312C99.983 35.072 100.282 34.7307 100.495 34.288L102.135 34.808C101.799 35.5813 101.29 36.1813 100.607 36.608C99.9243 37.0293 99.1643 37.24 98.327 37.24ZM95.247 33.152V31.848H101.415V33.152H95.247ZM104.202 37V25.24H105.874V37H104.202ZM112.108 37.24C111.25 37.24 110.495 37.0533 109.844 36.68C109.199 36.3013 108.695 35.776 108.332 35.104C107.975 34.4267 107.796 33.6427 107.796 32.752C107.796 31.808 107.972 30.9893 108.324 30.296C108.682 29.6027 109.178 29.0667 109.812 28.688C110.447 28.3093 111.186 28.12 112.028 28.12C112.908 28.12 113.658 28.3253 114.276 28.736C114.895 29.1413 115.356 29.72 115.66 30.472C115.97 31.224 116.092 32.1173 116.028 33.152H114.356V32.544C114.346 31.5413 114.154 30.8 113.78 30.32C113.412 29.84 112.85 29.6 112.092 29.6C111.255 29.6 110.626 29.864 110.204 30.392C109.783 30.92 109.572 31.6827 109.572 32.68C109.572 33.6293 109.783 34.3653 110.204 34.888C110.626 35.4053 111.234 35.664 112.028 35.664C112.551 35.664 113.002 35.5467 113.38 35.312C113.764 35.072 114.063 34.7307 114.276 34.288L115.916 34.808C115.58 35.5813 115.071 36.1813 114.388 36.608C113.706 37.0293 112.946 37.24 112.108 37.24ZM109.028 33.152V31.848H115.196V33.152H109.028ZM121.383 41.08C120.919 41.08 120.468 41.008 120.031 40.864C119.599 40.72 119.204 40.5067 118.847 40.224C118.49 39.9467 118.194 39.6027 117.959 39.192L119.503 38.408C119.69 38.776 119.956 39.0453 120.303 39.216C120.65 39.3867 121.015 39.472 121.399 39.472C121.874 39.472 122.279 39.3867 122.615 39.216C122.951 39.0507 123.204 38.8 123.375 38.464C123.551 38.128 123.636 37.712 123.631 37.216V34.8H123.831V28.36H125.311V37.232C125.311 37.4613 125.303 37.68 125.287 37.888C125.271 38.096 125.242 38.304 125.199 38.512C125.076 39.0933 124.842 39.5733 124.495 39.952C124.154 40.3307 123.716 40.6133 123.183 40.8C122.655 40.9867 122.055 41.08 121.383 41.08ZM121.255 37.24C120.45 37.24 119.754 37.04 119.167 36.64C118.586 36.24 118.135 35.696 117.815 35.008C117.5 34.3147 117.343 33.536 117.343 32.672C117.343 31.8027 117.503 31.0267 117.823 30.344C118.143 29.656 118.596 29.1147 119.183 28.72C119.775 28.32 120.476 28.12 121.287 28.12C122.103 28.12 122.788 28.32 123.343 28.72C123.903 29.1147 124.324 29.656 124.607 30.344C124.895 31.032 125.039 31.808 125.039 32.672C125.039 33.536 124.895 34.312 124.607 35C124.319 35.688 123.895 36.2347 123.335 36.64C122.775 37.04 122.082 37.24 121.255 37.24ZM121.487 35.728C122.036 35.728 122.484 35.5973 122.831 35.336C123.178 35.0747 123.431 34.7147 123.591 34.256C123.751 33.7973 123.831 33.2693 123.831 32.672C123.831 32.0747 123.748 31.5467 123.583 31.088C123.423 30.6293 123.172 30.272 122.831 30.016C122.495 29.76 122.066 29.632 121.543 29.632C120.988 29.632 120.532 29.768 120.175 30.04C119.818 30.312 119.551 30.6773 119.375 31.136C119.204 31.5947 119.119 32.1067 119.119 32.672C119.119 33.2427 119.204 33.76 119.375 34.224C119.551 34.6827 119.812 35.048 120.159 35.32C120.511 35.592 120.954 35.728 121.487 35.728ZM127.558 37V28.36H129.046V30.456L128.838 30.184C128.944 29.9067 129.083 29.6533 129.254 29.424C129.424 29.1893 129.622 28.9973 129.846 28.848C130.064 28.688 130.307 28.5653 130.574 28.48C130.846 28.3893 131.123 28.336 131.406 28.32C131.688 28.2987 131.96 28.312 132.222 28.36V29.928C131.939 29.8533 131.624 29.832 131.278 29.864C130.936 29.896 130.622 30.0053 130.334 30.192C130.062 30.368 129.846 30.5813 129.686 30.832C129.531 31.0827 129.419 31.3627 129.35 31.672C129.28 31.976 129.246 32.2987 129.246 32.64V37H127.558ZM135.951 37.24C135.311 37.24 134.775 37.1227 134.343 36.888C133.911 36.648 133.583 36.3333 133.359 35.944C133.14 35.5493 133.031 35.1173 133.031 34.648C133.031 34.2107 133.108 33.8267 133.263 33.496C133.417 33.1653 133.647 32.8853 133.951 32.656C134.255 32.4213 134.628 32.232 135.071 32.088C135.455 31.976 135.889 31.8773 136.375 31.792C136.86 31.7067 137.369 31.6267 137.903 31.552C138.441 31.4773 138.975 31.4027 139.503 31.328L138.895 31.664C138.905 30.9867 138.761 30.4853 138.463 30.16C138.169 29.8293 137.663 29.664 136.943 29.664C136.489 29.664 136.073 29.7707 135.695 29.984C135.316 30.192 135.052 30.5387 134.903 31.024L133.343 30.544C133.556 29.8027 133.961 29.2133 134.559 28.776C135.161 28.3387 135.961 28.12 136.959 28.12C137.732 28.12 138.404 28.2533 138.975 28.52C139.551 28.7813 139.972 29.1973 140.239 29.768C140.377 30.0507 140.463 30.3493 140.495 30.664C140.527 30.9787 140.543 31.3173 140.543 31.68V37H139.063V35.024L139.351 35.28C138.993 35.9413 138.537 36.4347 137.983 36.76C137.433 37.08 136.756 37.24 135.951 37.24ZM136.247 35.872C136.721 35.872 137.129 35.7893 137.471 35.624C137.812 35.4533 138.087 35.2373 138.295 34.976C138.503 34.7147 138.639 34.4427 138.703 34.16C138.793 33.904 138.844 33.616 138.855 33.296C138.871 32.976 138.879 32.72 138.879 32.528L139.423 32.728C138.895 32.808 138.415 32.88 137.983 32.944C137.551 33.008 137.159 33.072 136.807 33.136C136.46 33.1947 136.151 33.2667 135.879 33.352C135.649 33.432 135.444 33.528 135.263 33.64C135.087 33.752 134.945 33.888 134.839 34.048C134.737 34.208 134.687 34.4027 134.687 34.632C134.687 34.856 134.743 35.064 134.855 35.256C134.967 35.4427 135.137 35.592 135.367 35.704C135.596 35.816 135.889 35.872 136.247 35.872ZM152.972 37L152.98 31.616C152.98 30.992 152.82 30.5067 152.5 30.16C152.18 29.808 151.759 29.632 151.236 29.632C150.916 29.632 150.623 29.7067 150.356 29.856C150.095 30 149.881 30.2187 149.716 30.512C149.556 30.8 149.476 31.1627 149.476 31.6L148.668 31.192C148.657 30.584 148.785 30.0507 149.052 29.592C149.324 29.1333 149.692 28.7787 150.156 28.528C150.62 28.272 151.14 28.144 151.716 28.144C152.649 28.144 153.372 28.424 153.884 28.984C154.396 29.544 154.652 30.288 154.652 31.216L154.644 37H152.972ZM142.612 37V28.36H144.1V30.856H144.292V37H142.612ZM147.796 37L147.804 31.648C147.804 31.0187 147.644 30.5253 147.324 30.168C147.009 29.8107 146.585 29.632 146.052 29.632C145.524 29.632 145.097 29.8133 144.772 30.176C144.452 30.5387 144.292 31.0133 144.292 31.6L143.492 31.088C143.492 30.5227 143.628 30.0187 143.9 29.576C144.172 29.1333 144.54 28.784 145.004 28.528C145.468 28.272 145.993 28.144 146.58 28.144C147.193 28.144 147.716 28.2747 148.148 28.536C148.58 28.792 148.908 29.152 149.132 29.616C149.361 30.08 149.476 30.6187 149.476 31.232L149.468 37H147.796Z" fill="white"/>
<g clip-path="url(#clip0)">
<path d="M62.8472 33.6505L62.5163 38.3039C62.9897 38.3039 63.1947 38.1005 63.4405 37.8564L65.6597 35.7355L70.258 39.103C71.1013 39.573 71.6955 39.3255 71.923 38.3272L74.9413 24.1839L74.9422 24.183C75.2097 22.9364 74.4913 22.4489 73.6697 22.7547L55.928 29.5472C54.7172 30.0172 54.7355 30.6922 55.7222 30.998L60.258 32.4089L70.7938 25.8164C71.2897 25.488 71.7405 25.6697 71.3697 25.998L62.8472 33.6505Z" fill="white"/>
</g>
<defs>
<filter id="filter0_d" x="0" y="0" width="211" height="102" filterUnits="userSpaceOnUse" color-interpolation-filters="sRGB">
<feFlood flood-opacity="0" result="BackgroundImageFix"/>
<feColorMatrix in="SourceAlpha" type="matrix" values="0 0 0 0 0 0 0 0 0 0 0 0 0 0 0 0 0 0 127 0"/>
<feOffset dy="20"/>
<feGaussianBlur stdDeviation="15"/>
<feColorMatrix type="matrix" values="0 0 0 0 0 0 0 0 0 0.533333 0 0 0 0 0.8 0 0 0 0.2 0"/>
<feBlend mode="normal" in2="BackgroundImageFix" result="effect1_dropShadow"/>
<feBlend mode="normal" in="SourceGraphic" in2="effect1_dropShadow" result="shape"/>
</filter>
<clipPath id="clip0">
<rect width="20" height="20" fill="white" transform="translate(55 21)"/>
</clipPath>
</defs>
</svg>
