<svg width="30" height="30" viewBox="0 0 30 30" fill="none" xmlns="http://www.w3.org/2000/svg">
<g clip-path="url(#clip0)">
<path d="M22.5745 7.14346L10.2364 14.7425C9.53824 15.1735 9.20783 16.0248 9.43277 16.8122L10.7668 21.4997C10.8808 21.8994 11.2365 22.165 11.6457 22.165C11.6685 22.165 11.6915 22.1642 11.7146 22.1625C12.152 22.1307 12.4982 21.8049 12.5564 21.3706L12.9033 18.8003C12.95 18.4545 13.1167 18.1328 13.3721 17.8951L23.5536 8.43076C23.8613 8.14547 23.902 7.6783 23.6484 7.34414C23.3945 7.00969 22.9331 6.9232 22.5745 7.14346ZM12.558 17.02C12.1005 17.4458 11.8024 18.0213 11.7187 18.6404L11.5505 19.8871L10.5821 16.4845C10.5035 16.2088 10.6194 15.9108 10.8637 15.76L19.9022 10.1931L12.558 17.02Z" fill="white"/>
<path d="M29.5119 2.19017C29.1264 1.86345 28.5945 1.77351 28.1234 1.9555L0.88361 12.4638C0.344137 12.6719 -0.00273763 13.1798 1.62783e-05 13.7579C0.00282878 14.3364 0.354801 14.8416 0.897438 15.0449L7.26013 17.4196L9.7421 25.4016C9.87839 25.8404 10.2224 26.1813 10.6622 26.3136C11.1018 26.4458 11.5765 26.3513 11.9313 26.0611L15.631 23.0451C15.8086 22.9002 16.0623 22.8931 16.2478 23.0278L22.9207 27.8724C23.1607 28.0469 23.444 28.1367 23.7306 28.1367C23.8985 28.1367 24.0675 28.1059 24.2296 28.0432C24.6683 27.8736 24.9873 27.4976 25.0828 27.0376L29.9712 3.52336C30.0738 3.02824 29.8979 2.51742 29.5119 2.19017ZM28.801 3.28048L23.9126 26.7946C23.8949 26.8796 23.8337 26.9149 23.7988 26.9285C23.7636 26.942 23.6942 26.9571 23.6232 26.9054L16.9501 22.0606C16.6518 21.844 16.3011 21.7365 15.951 21.7365C15.5691 21.7365 15.1877 21.8645 14.876 22.1185L11.1755 25.1352C11.1097 25.1891 11.0413 25.1795 11.0065 25.169C10.9715 25.1585 10.9089 25.1286 10.8835 25.0468L8.31447 16.7847C8.25957 16.6082 8.12597 16.4669 7.95277 16.4023L1.31615 13.9253C1.21677 13.8881 1.19562 13.8106 1.19533 13.7521C1.19504 13.6941 1.21543 13.6169 1.31386 13.5789L28.5537 3.07066C28.5538 3.0706 28.554 3.07054 28.5542 3.07048C28.6426 3.03632 28.7081 3.07558 28.7393 3.10195C28.7705 3.12861 28.8203 3.1872 28.801 3.28048Z" fill="white"/>
<path d="M25.0478 14.774C24.7252 14.7039 24.407 14.9087 24.337 15.2313L24.2461 15.6496C24.1761 15.9722 24.3809 16.2904 24.7034 16.3604C24.7461 16.3697 24.7887 16.3741 24.8308 16.3741C25.1059 16.3741 25.3535 16.183 25.4143 15.9032L25.5051 15.4849C25.5751 15.1623 25.3703 14.8441 25.0478 14.774Z" fill="white"/>
<path d="M24.4502 17.5264C24.1272 17.4564 23.8093 17.6611 23.7393 17.9837L22.3648 24.3148C22.2948 24.6374 22.4995 24.9556 22.822 25.0256C22.8648 25.0349 22.9074 25.0393 22.9494 25.0393C23.2245 25.0393 23.472 24.8482 23.5329 24.5684L24.9074 18.2372C24.9774 17.9147 24.7727 17.5964 24.4502 17.5264Z" fill="white"/>
</g>
<defs>
<clipPath id="clip0">
<rect width="30" height="30" fill="white"/>
</clipPath>
</defs>
</svg>
