<svg width="211" height="102" viewBox="0 0 211 102" fill="none" xmlns="http://www.w3.org/2000/svg">
<g filter="url(#filter0_d)">
<rect x="30" y="10" width="151" height="42" rx="21" fill="#FF0000"/>
</g>
<path d="M93.864 37H95.048V32.176L98.896 25.48H97.536L94.456 30.832L91.36 25.48H90L93.864 32.176V37ZM102.337 37.24C103.191 37.24 103.921 37.048 104.529 36.664C105.143 36.28 105.612 35.7467 105.937 35.064C106.268 34.376 106.433 33.5787 106.433 32.672C106.433 31.7813 106.271 30.9947 105.945 30.312C105.625 29.624 105.159 29.088 104.545 28.704C103.937 28.3147 103.201 28.12 102.337 28.12C101.495 28.12 100.767 28.312 100.153 28.696C99.5454 29.0747 99.076 29.6053 98.7454 30.288C98.4147 30.9707 98.2494 31.7653 98.2494 32.672C98.2494 33.5627 98.4094 34.352 98.7294 35.04C99.0547 35.728 99.5214 36.2667 100.129 36.656C100.743 37.0453 101.479 37.24 102.337 37.24ZM102.337 36.112C101.404 36.112 100.697 35.8 100.217 35.176C99.7374 34.5467 99.4974 33.712 99.4974 32.672C99.4974 31.664 99.7294 30.8427 100.193 30.208C100.657 29.568 101.372 29.248 102.337 29.248C103.292 29.248 104.004 29.56 104.473 30.184C104.948 30.8027 105.185 31.632 105.185 32.672C105.185 33.6907 104.951 34.52 104.481 35.16C104.012 35.7947 103.297 36.112 102.337 36.112ZM111.502 37.216C112.121 37.216 112.678 37.0987 113.174 36.864C113.675 36.624 114.086 36.2693 114.406 35.8V37H115.462V28.36H114.286V32.968C114.286 33.944 114.067 34.7093 113.63 35.264C113.193 35.8187 112.558 36.096 111.726 36.096C111.123 36.096 110.638 35.952 110.27 35.664C109.902 35.3707 109.635 34.9733 109.47 34.472C109.305 33.9707 109.222 33.4027 109.222 32.768V28.36H108.038V33.112C108.038 33.5973 108.097 34.0827 108.214 34.568C108.337 35.0533 108.531 35.496 108.798 35.896C109.065 36.296 109.419 36.616 109.862 36.856C110.31 37.096 110.857 37.216 111.502 37.216ZM122.402 37V35.968C121.783 36.0693 121.263 36.0853 120.842 36.016C120.426 35.9467 120.122 35.7333 119.93 35.376C119.829 35.1893 119.773 34.976 119.762 34.736C119.757 34.4907 119.754 34.1867 119.754 33.824V29.368H122.402V28.36H119.754V25.96H118.586V28.36H116.738V29.368H118.586V33.872C118.586 34.2933 118.591 34.6693 118.602 35C118.618 35.3307 118.703 35.6533 118.858 35.968C119.05 36.352 119.33 36.6347 119.698 36.816C120.071 36.9973 120.493 37.0987 120.962 37.12C121.437 37.1413 121.917 37.1013 122.402 37ZM127.408 37.216C128.027 37.216 128.584 37.0987 129.08 36.864C129.582 36.624 129.992 36.2693 130.312 35.8V37H131.368V28.36H130.192V32.968C130.192 33.944 129.974 34.7093 129.536 35.264C129.099 35.8187 128.464 36.096 127.632 36.096C127.03 36.096 126.544 35.952 126.176 35.664C125.808 35.3707 125.542 34.9733 125.376 34.472C125.211 33.9707 125.128 33.4027 125.128 32.768V28.36H123.944V33.112C123.944 33.5973 124.003 34.0827 124.12 34.568C124.243 35.0533 124.438 35.496 124.704 35.896C124.971 36.296 125.326 36.616 125.768 36.856C126.216 37.096 126.763 37.216 127.408 37.216ZM133.596 37H134.652V35.792C134.962 36.24 135.354 36.5947 135.828 36.856C136.303 37.112 136.855 37.24 137.484 37.24C138.295 37.24 138.986 37.04 139.556 36.64C140.127 36.2347 140.562 35.688 140.86 35C141.164 34.312 141.316 33.536 141.316 32.672C141.316 31.8133 141.164 31.04 140.86 30.352C140.562 29.664 140.13 29.12 139.564 28.72C138.999 28.32 138.322 28.12 137.532 28.12C136.935 28.12 136.404 28.232 135.94 28.456C135.482 28.6747 135.095 28.9813 134.78 29.376V25.48H133.596V37ZM137.364 36.144C136.751 36.144 136.244 35.9947 135.844 35.696C135.444 35.392 135.146 34.9787 134.948 34.456C134.751 33.9333 134.652 33.3387 134.652 32.672C134.652 31.6533 134.874 30.824 135.316 30.184C135.764 29.5387 136.439 29.216 137.34 29.216C137.959 29.216 138.468 29.368 138.868 29.672C139.274 29.976 139.575 30.3893 139.772 30.912C139.97 31.4347 140.068 32.0213 140.068 32.672C140.068 33.328 139.967 33.9173 139.764 34.44C139.567 34.9627 139.268 35.3787 138.868 35.688C138.468 35.992 137.967 36.144 137.364 36.144ZM146.729 37.24C147.566 37.24 148.316 37.0347 148.977 36.624C149.644 36.2133 150.148 35.6293 150.489 34.872L149.393 34.448C148.844 35.5573 147.94 36.112 146.681 36.112C145.817 36.112 145.14 35.8427 144.649 35.304C144.164 34.7653 143.897 34 143.849 33.008H150.657C150.7 31.4827 150.366 30.288 149.657 29.424C148.953 28.5547 147.961 28.12 146.681 28.12C145.849 28.12 145.126 28.3067 144.513 28.68C143.905 29.0533 143.433 29.584 143.097 30.272C142.761 30.96 142.593 31.776 142.593 32.72C142.593 33.632 142.761 34.4267 143.097 35.104C143.438 35.7813 143.918 36.3067 144.537 36.68C145.161 37.0533 145.892 37.24 146.729 37.24ZM146.713 29.2C148.34 29.2 149.244 30.1413 149.425 32.024H143.873C143.964 31.112 144.252 30.4133 144.737 29.928C145.222 29.4427 145.881 29.2 146.713 29.2Z" fill="white"/>
<g clip-path="url(#clip0)">
<path d="M75.5879 26.199C75.3574 25.3422 74.6819 24.6668 73.8252 24.4361C72.2602 24.0078 65.9998 24.0078 65.9998 24.0078C65.9998 24.0078 59.7396 24.0078 58.1745 24.4198C57.3344 24.6504 56.6424 25.3423 56.4118 26.199C56 27.7639 56 31.0094 56 31.0094C56 31.0094 56 34.2713 56.4118 35.8199C56.6425 36.6765 57.3179 37.352 58.1747 37.5827C59.7561 38.0111 66 38.0111 66 38.0111C66 38.0111 72.2602 38.0111 73.8252 37.5991C74.682 37.3685 75.3574 36.693 75.5881 35.8364C75.9999 34.2713 75.9999 31.0259 75.9999 31.0259C75.9999 31.0259 76.0164 27.7639 75.5879 26.199Z" fill="white"/>
<path d="M64.0063 34.0074L69.2122 31.0091L64.0063 28.0107V34.0074Z" fill="#FF0000"/>
</g>
<defs>
<filter id="filter0_d" x="0" y="0" width="211" height="102" filterUnits="userSpaceOnUse" color-interpolation-filters="sRGB">
<feFlood flood-opacity="0" result="BackgroundImageFix"/>
<feColorMatrix in="SourceAlpha" type="matrix" values="0 0 0 0 0 0 0 0 0 0 0 0 0 0 0 0 0 0 127 0"/>
<feOffset dy="20"/>
<feGaussianBlur stdDeviation="15"/>
<feColorMatrix type="matrix" values="0 0 0 0 1 0 0 0 0 0 0 0 0 0 0 0 0 0 0.2 0"/>
<feBlend mode="normal" in2="BackgroundImageFix" result="effect1_dropShadow"/>
<feBlend mode="normal" in="SourceGraphic" in2="effect1_dropShadow" result="shape"/>
</filter>
<clipPath id="clip0">
<rect width="20" height="20" fill="white" transform="translate(56 21)"/>
</clipPath>
</defs>
</svg>
